<svg width="20" height="20" viewBox="0 0 20 20" fill="none" xmlns="http://www.w3.org/2000/svg">
<g id="Group">
<path id="Vector" fill-rule="evenodd" clip-rule="evenodd" d="M10.0001 0C15.5219 0 20.0002 4.47823 20.0002 10.0001C20.0002 15.5219 15.5219 20 10.0001 20C4.47806 20.0002 0 15.5219 0 10.0001C0 4.47823 4.47806 0 10.0001 0ZM12.9265 15.9856H7.07362V15.0004H8.17341V8.98477H7.07362V8.20091H9.80932C10.5002 8.20091 11.1801 8.1179 11.8518 7.94847V15.0006H12.9267L12.9265 15.9856ZM10.3938 3.43069C10.8471 3.43069 11.2035 3.56172 11.4633 3.82067C11.7203 4.07946 11.8502 4.43444 11.8502 4.8918C11.8502 5.35535 11.6292 5.76762 11.184 6.12896C10.7363 6.49029 10.217 6.67226 9.62524 6.67226C9.18041 6.67226 8.82689 6.54774 8.55606 6.29839C8.28506 6.04595 8.14964 5.71961 8.14964 5.31368C8.14964 4.80212 8.37067 4.36104 8.81029 3.98685C9.24975 3.6164 9.77742 3.43069 10.3938 3.43069Z" fill="white"/>
</g>
</svg>
