<svg width="24" height="24" viewBox="0 0 24 24" fill="none" xmlns="http://www.w3.org/2000/svg">
<g id="Group">
<path id="Vector" d="M5.8226 11.609C6.53351 12.8902 7.35185 14.1206 8.41626 15.2436C9.48263 16.3725 10.8088 17.3998 12.5274 18.2767C12.6544 18.3392 12.7755 18.3392 12.8829 18.2962C13.047 18.2337 13.213 18.099 13.377 17.9349C13.504 17.808 13.6622 17.6049 13.8282 17.3822C14.4883 16.5131 15.3066 15.435 16.4609 15.9741C16.4863 15.9858 16.5058 15.9994 16.5312 16.0112L20.3826 18.2259C20.3944 18.2318 20.408 18.2455 20.4198 18.2513C20.9275 18.6009 21.1365 19.14 21.1424 19.7493C21.1424 20.3704 20.9139 21.0696 20.578 21.6594C20.1346 22.4387 19.4803 22.9543 18.7265 23.2961C18.0097 23.6261 17.2109 23.8039 16.4433 23.9171C15.2383 24.0949 14.1094 23.9816 12.9552 23.6261C11.8263 23.2765 10.6896 22.7004 9.44748 21.9328L9.35568 21.8742C8.78539 21.5188 8.17018 21.1379 7.56668 20.6887C5.35387 19.0189 3.10199 16.6088 1.63525 13.9565C0.404819 11.7301 -0.267032 9.32585 0.100143 7.03491C0.303261 5.7791 0.842304 4.63656 1.78173 3.88268C2.60006 3.22254 3.70353 2.86123 5.13122 2.98818C5.29528 2.9999 5.44176 3.0956 5.51792 3.23622L7.98659 7.4099C8.34791 7.87863 8.39283 8.34151 8.19557 8.80634C8.03151 9.18718 7.70144 9.53678 7.25029 9.86489C7.11748 9.97817 6.95928 10.0934 6.79327 10.2145C6.24056 10.6149 5.61362 11.0777 5.82846 11.6226L5.8226 11.609ZM14.2715 0C13.5841 0 12.9962 0.242179 12.506 0.726537C12.0157 1.2109 11.7794 1.79877 11.7794 2.4921V6.865C11.7794 7.55833 12.0216 8.1462 12.506 8.63056C12.9903 9.11492 13.5782 9.3571 14.2715 9.3571H16.3183C16.1758 9.90786 16 10.4293 15.7793 10.9195C15.5645 11.4137 15.1973 11.8883 14.6895 12.3375C15.6621 12.0836 16.5254 11.7047 17.291 11.2047C18.0507 10.7106 18.7089 10.0875 19.2538 9.3571H20.9041C21.5916 9.3571 22.1795 9.10906 22.6697 8.63056C23.1599 8.1462 23.3962 7.55833 23.3962 6.865V2.4921C23.3962 1.80463 23.154 1.21675 22.6697 0.726537C22.1853 0.23632 21.5974 0 20.9041 0C18.6933 0 16.4824 0 14.2715 0ZM16.996 1.56831H18.1776C18.3983 1.56831 18.578 1.74799 18.578 1.96868V3.73034H20.3397C20.5604 3.73034 20.7401 3.91002 20.7401 4.13072V5.31232C20.7401 5.53301 20.5604 5.71269 20.3397 5.71269H18.578V7.47435C18.578 7.69505 18.3983 7.87473 18.1776 7.87473H16.996C16.7753 7.87473 16.5957 7.69505 16.5957 7.47435V5.71269H14.834C14.6133 5.71269 14.4336 5.53301 14.4336 5.31232V4.13072C14.4336 3.91002 14.6133 3.73034 14.834 3.73034H16.5957V1.96868C16.5957 1.74799 16.7753 1.56831 16.996 1.56831Z" fill="#888888"/>
</g>
</svg>
