<svg width="28" height="28" viewBox="0 0 28 28" fill="none" xmlns="http://www.w3.org/2000/svg">
<path fill-rule="evenodd" clip-rule="evenodd" d="M23.3333 4.66667V23.3333H4.66667V4.66667H23.3333ZM12.5234 9.33333H10.7055L7.25404 18.6667H8.89413L9.54574 16.8421H13.6773L14.315 18.6667H16.0539L12.5234 9.33333ZM18.9652 9.33333H17.3317V18.6667H18.9652V9.33333ZM11.6007 10.8992L13.2277 15.5555H9.99943L11.6007 10.8992ZM24.8889 18.6667H28V21.7778H24.8889V18.6667ZM6.22222 24.8889H9.33333V28H6.22222V24.8889ZM12.4444 24.8889H15.5556V28H12.4444V24.8889ZM6.22222 0H9.33333V3.11111H6.22222V0ZM18.6667 24.8889H21.7778V28H18.6667V24.8889ZM12.4444 0H15.5556V3.11111H12.4444V0ZM18.6667 0H21.7778V3.11111H18.6667V0ZM24.8889 12.4444H28V15.5556H24.8889V12.4444ZM0 18.6667H3.11111V21.7778H0V18.6667ZM24.8889 6.22222H28V9.33333H24.8889V6.22222ZM0 12.4444H3.11111V15.5556H0V12.4444ZM0 6.22222H3.11111V9.33333H0V6.22222Z" fill="white"/>
</svg>
