<svg width="25" height="30" viewBox="0 0 25 30" fill="none" xmlns="http://www.w3.org/2000/svg">
<path fill-rule="evenodd" clip-rule="evenodd" d="M20.8855 15.9385C20.847 12.1407 24.056 10.3183 24.1994 10.228C22.3957 7.6504 19.5856 7.2961 18.5843 7.25626C16.193 7.0204 13.9189 8.63251 12.704 8.63251C11.4925 8.63251 9.62023 7.29165 7.63749 7.32713C5.03139 7.36477 2.62871 8.808 1.28522 11.0884C-1.42235 15.6778 0.592674 22.48 3.23169 26.2015C4.52082 28.0239 6.05819 30.0712 8.0772 29.9981C10.0208 29.9234 10.7564 28.768 13.1075 28.768C15.458 28.768 16.1182 29.9981 18.1757 29.9588C20.2678 29.9212 21.5932 28.1009 22.8739 26.2723C24.3557 24.1575 24.9632 22.1124 25 22.0073C24.9535 21.9868 20.9206 20.4776 20.8798 15.9402L20.8855 15.9385H20.8855ZM17.0209 4.79041C18.0919 3.52098 18.8155 1.75883 18.6177 0C17.0747 0.0614492 15.2036 1.0048 14.0958 2.27259C13.1013 3.39808 12.2326 5.19178 12.4649 6.91461C14.1881 7.04585 15.9476 6.05929 17.0192 4.79262L17.0209 4.79041Z" fill="white"/>
</svg>
