<svg width="28" height="28" viewBox="0 0 28 28" fill="none" xmlns="http://www.w3.org/2000/svg">
<path d="M16.2804 25.8606L15.5214 27.1429C14.845 28.2857 13.1551 28.2857 12.4787 27.1429L11.7197 25.8606C11.1311 24.8661 10.8367 24.3689 10.3639 24.0938C9.89116 23.8189 9.29592 23.8086 8.10544 23.7882C6.34793 23.7578 5.24567 23.6502 4.32123 23.2672C2.60603 22.5567 1.2433 21.1941 0.532842 19.4788C-4.17234e-08 18.1925 0 16.5616 0 13.3001V11.9C0 7.31723 -8.34468e-08 5.02581 1.03152 3.34253C1.60872 2.40063 2.40063 1.60872 3.34253 1.03152C5.02581 -8.34468e-08 7.31723 0 11.9 0H16.1001C20.6828 0 22.9742 -8.34468e-08 24.6576 1.03152C25.5995 1.60872 26.3914 2.40063 26.9686 3.34253C28.0001 5.02581 28.0001 7.31723 28.0001 11.9V13.3001C28.0001 16.5616 28.0001 18.1925 27.4673 19.4788C26.7568 21.1941 25.3941 22.5567 23.6788 23.2672C22.7544 23.6502 21.6522 23.7578 19.8946 23.7882C18.7041 23.8086 18.1089 23.8189 17.6361 24.0938C17.1634 24.3688 16.8689 24.8661 16.2804 25.8606Z" fill="white"/>
</svg>
