<svg width="15" height="18" viewBox="0 0 15 18" fill="none" xmlns="http://www.w3.org/2000/svg">
<path id="Vector" fill-rule="evenodd" clip-rule="evenodd" d="M1.26384 0H8.76463V5.15732C8.76463 5.35103 8.92178 5.50817 9.11549 5.50817H14.5544V16.7365C14.5544 17.0821 14.4124 17.3978 14.1835 17.6274L14.1807 17.6302C13.9511 17.8583 13.6361 18 13.2909 18H1.26384C0.915802 18 0.599754 17.858 0.370891 17.6291C0.142028 17.4002 0 17.0842 0 16.7365V1.26349C0 0.915802 0.142028 0.599754 0.370891 0.370891C0.599754 0.142028 0.915802 0 1.26384 0ZM9.46669 0.0783969C9.49895 0.100061 9.52836 0.125691 9.55423 0.154684L14.3547 4.80612H9.46669V0.0783969ZM3.21005 14.7558C3.016 14.7558 2.85885 14.5987 2.85885 14.405C2.85885 14.2113 3.016 14.0538 3.21005 14.0538H11.3443C11.5384 14.0538 11.6956 14.2113 11.6956 14.405C11.6956 14.5987 11.5384 14.7558 11.3443 14.7558H3.21005ZM3.21005 12.0717C3.016 12.0717 2.85885 11.9146 2.85885 11.7209C2.85885 11.5268 3.016 11.3697 3.21005 11.3697H11.2178C11.4118 11.3697 11.569 11.5268 11.569 11.7209C11.569 11.9146 11.4118 12.0717 11.2178 12.0717H3.21005ZM3.21005 9.38759C3.016 9.38759 2.85885 9.23044 2.85885 9.03639C2.85885 8.84268 3.016 8.68553 3.21005 8.68553H9.68958C9.88328 8.68553 10.0408 8.84268 10.0408 9.03639C10.0408 9.23044 9.88328 9.38759 9.68958 9.38759H3.21005ZM3.21005 6.70311C3.016 6.70311 2.85885 6.54597 2.85885 6.35226C2.85885 6.1582 3.016 6.00105 3.21005 6.00105H6.82756C7.02162 6.00105 7.17877 6.1582 7.17877 6.35226C7.17877 6.54597 7.02162 6.70311 6.82756 6.70311H3.21005ZM3.21005 4.01898C3.016 4.01898 2.85885 3.86184 2.85885 3.66778C2.85885 3.47407 3.016 3.31693 3.21005 3.31693H5.15802C5.35208 3.31693 5.50923 3.47407 5.50923 3.66778C5.50923 3.86184 5.35208 4.01898 5.15802 4.01898H3.21005Z" fill="white"/>
</svg>
