<svg width="24" height="24" viewBox="0 0 24 24" fill="none" xmlns="http://www.w3.org/2000/svg">
<g id="Group 107">
<g id="Rectangle 20">
<rect width="24" height="24" rx="12" fill="url(#paint0_linear_130_353)"/>
<rect x="0.5" y="0.5" width="23" height="23" rx="11.5" stroke="url(#paint1_linear_130_353)" stroke-opacity="0.4"/>
</g>
<g id="Group">
<path id="Vector" fill-rule="evenodd" clip-rule="evenodd" d="M10.5758 7.80501H14.8362L15.8068 9.53339H17.8067C17.9131 9.53339 18 9.62323 18 9.72673V16.4723C18 16.5758 17.9111 16.6656 17.8067 16.6656H6.19334C6.08984 16.6646 6 16.5777 6 16.4723V9.72673C6 9.6203 6.08691 9.53339 6.19334 9.53339H7.09268V8.91332H8.20392V9.53339H9.41086C9.66181 9.03734 9.91277 8.54226 10.1637 8.04621C10.3161 7.74447 10.2321 7.80501 10.5758 7.80501ZM16.7481 10.3878C17.0665 10.3878 17.3243 10.6456 17.3243 10.9639C17.3243 11.2823 17.0665 11.5401 16.7481 11.5401C16.4298 11.5401 16.172 11.2823 16.172 10.9639C16.173 10.6456 16.4308 10.3878 16.7481 10.3878ZM12.5073 11.0587C13.4711 11.0587 14.2532 11.8408 14.2532 12.8046C14.2532 13.7684 13.4711 14.5506 12.5073 14.5506C11.5435 14.5506 10.7613 13.7684 10.7613 12.8046C10.7613 11.8408 11.5435 11.0587 12.5073 11.0587ZM12.5073 9.92203C14.0999 9.92203 15.3908 11.2129 15.3908 12.8056C15.3908 14.3973 14.0999 15.6891 12.5073 15.6891C10.9156 15.6891 9.62373 14.3973 9.62373 12.8056C9.62471 11.2129 10.9156 9.92203 12.5073 9.92203Z" fill="white"/>
</g>
</g>
<defs>
<linearGradient id="paint0_linear_130_353" x1="24" y1="12" x2="0" y2="12" gradientUnits="userSpaceOnUse">
<stop stop-color="#AAFF00"/>
<stop offset="1" stop-color="#3C00FF"/>
</linearGradient>
<linearGradient id="paint1_linear_130_353" x1="24" y1="12" x2="0" y2="12" gradientUnits="userSpaceOnUse">
<stop stop-color="#AAFF00" stop-opacity="0.5"/>
<stop offset="1" stop-color="#3C00FF" stop-opacity="0.5"/>
</linearGradient>
</defs>
</svg>
