<svg width="299" height="300" viewBox="0 0 299 300" fill="none" xmlns="http://www.w3.org/2000/svg">
<path opacity="0.16" d="M282.076 205.221C254.401 271.338 180.681 308.377 116.75 298.386C106.347 296.76 77.8279 291.917 52.5778 269.07C3.96968 225.088 -6.42554 137.997 32.7852 76.6215C61.3237 31.9512 112.482 6.62905 161.092 7.8957C171.563 8.16848 211.691 9.84998 246.956 39.3544C252.136 43.688 263.561 53.986 273.857 70.3229C298.034 108.685 300.113 162.132 282.076 205.221Z" fill="url(#paint0_linear_36_699)"/>
<path d="M1.64243 192.884C6.36765 172.715 21.8191 156.883 41.4897 152.041C55.0134 148.713 67.9882 150.499 78.955 155.893C82.5924 157.682 86.9149 155.657 87.9227 151.651C97.6171 113.123 131.736 84.6591 172.341 84.6591C220.49 84.6591 259.522 124.68 259.522 174.047C259.522 175.358 259.496 177.148 259.474 178.866C259.644 182.557 261.216 184.125 263.563 184.518C282.427 186.532 297.253 202.477 298.075 222.144C299.02 244.726 281.094 263.435 259.05 263.435H55.1411C20.2348 263.436 -7.09592 230.18 1.64243 192.884Z" fill="url(#paint1_linear_36_699)"/>
<path opacity="0.21" d="M17.4352 200.442C21.6542 182.434 35.4504 168.298 53.0136 163.975C65.0885 161.003 76.6733 162.598 86.4652 167.414C89.7129 169.011 93.5723 167.203 94.4721 163.627C103.128 129.226 133.592 103.812 169.847 103.812C212.837 103.812 247.688 139.545 247.688 183.624C247.688 184.794 247.665 186.392 247.645 187.926C247.797 191.222 249.201 192.622 251.296 192.973C268.139 194.77 281.376 209.008 282.111 226.568C282.954 246.731 266.949 263.436 247.266 263.436H65.2025C34.0358 263.436 9.63307 233.742 17.4352 200.442Z" fill="#91B3FA"/>
<path d="M41.1101 287.595C41.1101 289.247 42.4636 290.599 44.1177 290.599H206.76C208.414 290.599 209.767 289.247 209.767 287.595L211.12 194.129C211.12 192.476 209.173 189.25 205.605 189.492L46.6537 185.379C44.5781 185.326 42.5713 186.125 41.1016 187.59C39.6318 189.055 38.8276 191.058 38.8766 193.131L41.1101 287.595Z" fill="white"/>
<path d="M44.0796 284.712C44.0796 286.277 45.36 287.557 46.925 287.557H202.837C204.402 287.557 205.683 286.277 205.683 284.712L206.96 199.863C206.81 194.757 202.333 192.922 199.619 193.03L47.2788 188.943C45.8207 188.904 44.4108 189.465 43.3781 190.496C42.3453 191.526 41.7774 192.936 41.8139 194.394L44.0796 284.712Z" fill="#7D97F4"/>
<path d="M203.998 244.403C203.996 244.403 203.994 244.403 203.994 244.403C203.762 244.399 203.578 244.21 203.581 243.979L203.682 237.098C203.685 236.87 203.871 236.688 204.099 236.688C204.101 236.688 204.103 236.688 204.103 236.688C204.335 236.691 204.519 236.88 204.516 237.111L204.415 243.992C204.412 244.22 204.225 244.403 203.998 244.403Z" fill="white"/>
<path d="M204.246 227.54C204.246 227.54 204.242 227.54 204.24 227.54C204.009 227.537 203.825 227.347 203.829 227.117L204.216 200.762C204.208 199.197 203.733 197.947 202.803 197.056C201.067 195.392 198.311 195.477 198.195 195.483L149.503 194.177C149.273 194.171 149.091 193.979 149.098 193.749C149.104 193.519 149.28 193.323 149.526 193.344L198.188 194.649C198.491 194.631 201.426 194.581 203.38 196.453C204.479 197.507 205.041 198.958 205.049 200.766L204.662 227.129C204.659 227.358 204.473 227.54 204.246 227.54Z" fill="white"/>
<path d="M28.5218 298.358H219.058C219.392 298.358 219.664 298.086 219.664 297.752V290.752C219.664 290.419 219.392 290.146 219.058 290.146H28.5218C28.1886 290.146 27.916 290.419 27.916 290.752V297.752C27.9161 298.086 28.1887 298.358 28.5218 298.358Z" fill="white"/>
<path d="M111.721 283.418H51.6913C49.4779 283.418 47.6836 281.624 47.6836 279.41V201.053C47.6836 198.779 49.5727 196.961 51.8445 197.048L111.875 199.345C114.027 199.428 115.729 201.196 115.729 203.35V279.41C115.729 281.624 113.935 283.418 111.721 283.418Z" fill="#91B3FA"/>
<path opacity="0.51" d="M99.7814 233.071H60.0182C59.7026 233.071 59.4468 232.816 59.4468 232.5V228.358C59.4468 228.043 59.7026 227.787 60.0182 227.787H99.7814C100.097 227.787 100.353 228.043 100.353 228.358V232.5C100.353 232.816 100.097 233.071 99.7814 233.071Z" fill="white"/>
<path opacity="0.51" d="M99.8619 241.51H60.0987C59.7832 241.51 59.5273 241.254 59.5273 240.939V236.797C59.5273 236.482 59.7832 236.226 60.0987 236.226H99.8619C100.178 236.226 100.433 236.482 100.433 236.797V240.939C100.433 241.254 100.178 241.51 99.8619 241.51Z" fill="white"/>
<path opacity="0.51" d="M100.101 250.126H60.3382C60.0227 250.126 59.7668 249.87 59.7668 249.555V245.413C59.7668 245.097 60.0227 244.842 60.3382 244.842H100.101C100.417 244.842 100.673 245.097 100.673 245.413V249.555C100.673 249.87 100.417 250.126 100.101 250.126Z" fill="white"/>
<path opacity="0.51" d="M100.182 258.565H60.4188C60.1032 258.565 59.8474 258.309 59.8474 257.994V253.852C59.8474 253.536 60.1033 253.281 60.4188 253.281H100.182C100.498 253.281 100.753 253.536 100.753 253.852V257.994C100.753 258.309 100.498 258.565 100.182 258.565Z" fill="white"/>
<path opacity="0.51" d="M186.986 233.065H129.318C129.002 233.065 128.747 232.809 128.747 232.494V228.352C128.747 228.036 129.002 227.781 129.318 227.781H186.986C187.302 227.781 187.557 228.036 187.557 228.352V232.494C187.557 232.809 187.302 233.065 186.986 233.065Z" fill="white"/>
<path opacity="0.51" d="M187.168 241.51H129.5C129.184 241.51 128.928 241.254 128.928 240.939V236.797C128.928 236.482 129.184 236.226 129.5 236.226H187.168C187.483 236.226 187.739 236.482 187.739 236.797V240.939C187.739 241.254 187.483 241.51 187.168 241.51Z" fill="white"/>
<path opacity="0.51" d="M163.205 250.126H129.5C129.184 250.126 128.928 249.87 128.928 249.555V245.413C128.928 245.097 129.184 244.842 129.5 244.842H163.205C163.521 244.842 163.777 245.097 163.777 245.413V249.555C163.777 249.87 163.521 250.126 163.205 250.126Z" fill="white"/>
<g opacity="0.51">
<path d="M159.966 208.085H159.071C158.626 208.085 158.265 207.725 158.265 207.28V204.218C158.265 203.122 157.377 202.233 156.281 202.233H150.73C149.634 202.233 148.745 203.122 148.745 204.218V207.28C148.745 207.725 148.385 208.085 147.94 208.085H147.044C146.599 208.085 146.239 207.725 146.239 207.28V204.218C146.239 201.737 148.25 199.727 150.73 199.727H156.281C158.761 199.727 160.772 201.737 160.772 204.218V207.28C160.772 207.725 160.411 208.085 159.966 208.085Z" fill="white"/>
<path d="M161.077 208.808H145.934C145.006 208.808 144.253 209.56 144.253 210.488V222.11C144.253 223.038 145.006 223.79 145.934 223.79H161.077C162.005 223.79 162.757 223.038 162.757 222.11V210.488C162.757 209.56 162.005 208.808 161.077 208.808ZM155.672 220.04C155.766 220.432 155.469 220.808 155.067 220.808H151.944C151.541 220.808 151.245 220.432 151.339 220.04L152.067 217.007C151.207 216.493 150.645 215.532 150.702 214.444C150.777 213.036 151.918 211.883 153.326 211.795C154.958 211.694 156.312 212.987 156.312 214.597C156.312 215.621 155.763 216.517 154.943 217.007L155.672 220.04Z" fill="white"/>
</g>
<path d="M204.047 72.4085C203.988 72.4085 203.927 72.394 203.872 72.363C203.698 72.2662 203.635 72.0467 203.732 71.8727C203.964 71.455 204.189 71.0344 204.408 70.6109C204.499 70.4341 204.716 70.365 204.894 70.4559C205.07 70.5471 205.14 70.7648 205.049 70.942C204.827 71.3717 204.598 71.7987 204.362 72.2228C204.297 72.3415 204.174 72.4085 204.047 72.4085Z" fill="#91B3FA"/>
<path d="M161.851 97.2444C161.638 97.2444 161.425 97.243 161.212 97.2402C161.013 97.2374 160.853 97.0739 160.856 96.8745C160.859 96.6773 161.02 96.5187 161.217 96.5187H161.221C162.155 96.5313 163.097 96.5159 164.028 96.4736C164.214 96.461 164.396 96.6183 164.405 96.8177C164.414 97.0167 164.26 97.1851 164.061 97.1942C163.328 97.2275 162.584 97.2444 161.851 97.2444ZM156.63 96.9629C156.617 96.9629 156.604 96.9622 156.591 96.9608C155.649 96.8587 154.699 96.728 153.769 96.5718C153.572 96.5387 153.439 96.3527 153.472 96.1566C153.505 95.9601 153.692 95.8261 153.888 95.8603C154.805 96.0143 155.74 96.1432 156.669 96.2436C156.867 96.265 157.01 96.4429 156.988 96.6408C156.968 96.8259 156.812 96.9629 156.63 96.9629ZM168.62 96.7695C168.443 96.7695 168.288 96.6391 168.263 96.4592C168.235 96.262 168.373 96.0795 168.57 96.0517C169.493 95.9217 170.424 95.7625 171.337 95.5786C171.531 95.5395 171.723 95.6659 171.762 95.8612C171.801 96.0563 171.675 96.2466 171.479 96.286C170.553 96.4727 169.608 96.634 168.671 96.7661C168.653 96.7685 168.636 96.7695 168.62 96.7695ZM149.338 95.6036C149.307 95.6036 149.276 95.5997 149.245 95.5913C148.331 95.3472 147.412 95.0728 146.515 94.7758C146.326 94.7134 146.223 94.5091 146.286 94.32C146.348 94.1312 146.551 94.029 146.742 94.0911C147.626 94.3834 148.53 94.654 149.431 94.8945C149.623 94.946 149.738 95.1435 149.686 95.336C149.643 95.4972 149.497 95.6036 149.338 95.6036ZM175.865 95.172C175.71 95.172 175.567 95.0716 175.52 94.9159C175.462 94.7253 175.57 94.5239 175.76 94.4662C176.654 94.1953 177.549 93.8948 178.422 93.5732C178.609 93.5046 178.816 93.6 178.885 93.7871C178.954 93.9742 178.859 94.1813 178.672 94.2503C177.786 94.5768 176.877 94.8819 175.969 95.1566C175.935 95.1671 175.899 95.172 175.865 95.172ZM142.34 93.1438C142.291 93.1438 142.242 93.134 142.195 93.1132C141.327 92.731 140.462 92.3185 139.623 91.8877C139.446 91.7968 139.376 91.5791 139.467 91.4019C139.558 91.2254 139.775 91.1549 139.953 91.2459C140.779 91.6704 141.631 92.0765 142.486 92.4531C142.668 92.5334 142.75 92.7465 142.67 92.9286C142.611 93.0635 142.478 93.1438 142.34 93.1438ZM182.778 92.4783C182.643 92.4783 182.514 92.4033 182.452 92.274C182.366 92.0948 182.441 91.8792 182.621 91.7925C183.46 91.3885 184.299 90.9535 185.114 90.4994C185.289 90.4029 185.507 90.4652 185.604 90.6392C185.701 90.8132 185.639 91.0331 185.465 91.13C184.637 91.5907 183.786 92.0324 182.934 92.4428C182.883 92.4671 182.83 92.4783 182.778 92.4783ZM135.806 89.6364C135.74 89.6364 135.672 89.6181 135.612 89.5793C134.815 89.0685 134.024 88.5275 133.26 87.9716C133.099 87.8543 133.063 87.6288 133.181 87.4675C133.298 87.3066 133.524 87.2713 133.685 87.3882C134.437 87.9359 135.216 88.4685 136.001 88.9719C136.169 89.0794 136.218 89.3026 136.11 89.4703C136.041 89.5779 135.925 89.6364 135.806 89.6364ZM189.192 88.7498C189.078 88.7498 188.965 88.6956 188.895 88.5941C188.782 88.43 188.823 88.2052 188.987 88.0921C189.754 87.5627 190.516 87.0037 191.251 86.4302C191.408 86.308 191.635 86.3358 191.758 86.4929C191.88 86.65 191.852 86.8768 191.695 86.9995C190.949 87.5811 190.176 88.1485 189.397 88.686C189.334 88.729 189.263 88.7498 189.192 88.7498ZM129.892 85.1638C129.807 85.1638 129.722 85.1339 129.653 85.0733C128.947 84.4484 128.248 83.7925 127.576 83.1235C127.435 82.9829 127.434 82.7547 127.574 82.6135C127.715 82.4726 127.943 82.4715 128.084 82.6121C128.747 83.2708 129.436 83.9172 130.132 84.533C130.281 84.6651 130.295 84.893 130.163 85.0423C130.091 85.1227 129.992 85.1638 129.892 85.1638ZM194.963 84.081C194.867 84.081 194.771 84.043 194.7 83.968C194.564 83.8229 194.57 83.5946 194.715 83.4579C195.394 82.8175 196.062 82.15 196.701 81.4733C196.838 81.3288 197.066 81.3225 197.211 81.4585C197.356 81.5955 197.362 81.8237 197.226 81.9686C196.577 82.6552 195.899 83.3328 195.21 83.9828C195.141 84.0482 195.052 84.081 194.963 84.081ZM124.727 79.8382C124.623 79.8382 124.521 79.7938 124.449 79.7082C123.845 78.9825 123.253 78.2283 122.69 77.4668C122.572 77.3065 122.606 77.0807 122.766 76.962C122.927 76.8436 123.152 76.8782 123.271 77.0378C123.825 77.7884 124.408 78.5317 125.004 79.2467C125.131 79.3996 125.111 79.6272 124.957 79.7547C124.89 79.8106 124.808 79.8382 124.727 79.8382ZM199.955 78.5954C199.878 78.5954 199.8 78.5708 199.734 78.5194C199.577 78.3971 199.549 78.1703 199.671 78.0132C200.245 77.2752 200.803 76.5133 201.33 75.7485C201.443 75.5844 201.668 75.5428 201.831 75.6555C201.996 75.7686 202.037 75.9934 201.924 76.1572C201.39 76.9339 200.824 77.7074 200.24 78.4563C200.169 78.5475 200.063 78.5954 199.955 78.5954ZM120.429 73.791C120.307 73.791 120.187 73.7287 120.12 73.616C119.631 72.8019 119.161 71.9656 118.725 71.1305C118.633 70.954 118.701 70.7359 118.878 70.6436C119.054 70.5517 119.272 70.6196 119.365 70.7965C119.794 71.619 120.257 72.4425 120.738 73.2446C120.841 73.4154 120.785 73.637 120.615 73.7395C120.556 73.7744 120.492 73.791 120.429 73.791ZM117.113 67.1546C116.971 67.1546 116.836 67.0697 116.779 66.9295C116.422 66.0506 116.088 65.152 115.785 64.2587C115.721 64.0703 115.822 63.8653 116.011 63.8016C116.198 63.7378 116.404 63.839 116.468 64.0277C116.766 64.9073 117.095 65.7922 117.447 66.6583C117.522 66.8429 117.433 67.0531 117.249 67.1282C117.204 67.1461 117.159 67.1546 117.113 67.1546Z" fill="#91B3FA"/>
<path d="M114.856 60.0669C114.692 60.0669 114.544 59.9549 114.505 59.7886C114.395 59.3166 114.291 58.8435 114.194 58.3694C114.154 58.1743 114.28 57.9837 114.476 57.9443C114.67 57.9048 114.861 58.0299 114.901 58.2257C114.996 58.6929 115.098 59.1588 115.208 59.6238C115.253 59.818 115.133 60.012 114.939 60.0575C114.911 60.0637 114.884 60.0669 114.856 60.0669Z" fill="#91B3FA"/>
<path d="M120.972 23.2829C120.906 23.2829 120.84 23.2649 120.78 23.2272C120.612 23.1211 120.561 22.8981 120.667 22.7298C120.925 22.3212 121.189 21.9151 121.459 21.5124C121.57 21.3472 121.795 21.3026 121.96 21.4142C122.126 21.5255 122.169 21.7496 122.058 21.9148C121.791 22.3117 121.531 22.7116 121.277 23.1146C121.209 23.2233 121.092 23.2829 120.972 23.2829Z" fill="#91B3FA"/>
<path d="M208.15 35.3666C207.994 35.3666 207.85 35.2648 207.804 35.1073C207.529 34.1671 207.22 33.2234 206.886 32.302C206.819 32.1149 206.916 31.9081 207.103 31.8402C207.29 31.7718 207.497 31.8694 207.565 32.0568C207.903 32.9918 208.216 33.9498 208.497 34.9045C208.553 35.0957 208.443 35.2962 208.252 35.3522C208.218 35.362 208.184 35.3666 208.15 35.3666ZM205.355 28.0858C205.221 28.0858 205.092 28.0104 205.03 27.8815C204.604 26.9966 204.147 26.1153 203.669 25.2621C203.572 25.0885 203.634 24.8687 203.808 24.7711C203.982 24.6746 204.202 24.7362 204.299 24.9099C204.783 25.7757 205.248 26.6704 205.68 27.5686C205.766 27.7483 205.691 27.9639 205.511 28.0501C205.461 28.0745 205.408 28.0858 205.355 28.0858ZM201.416 21.3543C201.302 21.3543 201.19 21.3007 201.12 21.2004C200.559 20.399 199.965 19.6033 199.354 18.8357C199.23 18.6797 199.256 18.4528 199.411 18.3288C199.568 18.2041 199.794 18.2306 199.918 18.3862C200.538 19.1658 201.141 19.9731 201.711 20.7869C201.825 20.95 201.786 21.1747 201.622 21.2892C201.56 21.3331 201.487 21.3543 201.416 21.3543ZM124.653 18.2061C124.572 18.2061 124.49 18.179 124.423 18.123C124.27 17.9958 124.249 17.7682 124.376 17.615C125.009 16.8527 125.676 16.0971 126.359 15.3697C126.495 15.2242 126.723 15.2172 126.869 15.3536C127.014 15.4903 127.021 15.7185 126.885 15.8637C126.212 16.5805 125.554 17.3248 124.931 18.0759C124.859 18.1618 124.757 18.2061 124.653 18.2061ZM196.445 15.3441C196.351 15.3441 196.257 15.3075 196.186 15.2346C195.507 14.534 194.794 13.8433 194.068 13.1814C193.921 13.0471 193.91 12.8189 194.044 12.6717C194.179 12.5237 194.407 12.5135 194.554 12.6481C195.291 13.3202 196.014 14.0211 196.704 14.7324C196.843 14.8754 196.839 15.1036 196.696 15.2425C196.626 15.3103 196.536 15.3441 196.445 15.3441ZM130.099 12.6237C129.999 12.6237 129.899 12.5818 129.828 12.5004C129.697 12.3502 129.712 12.1224 129.862 11.9913C130.612 11.3358 131.392 10.6957 132.178 10.0888C132.337 9.96761 132.563 9.99686 132.684 10.1539C132.806 10.3118 132.776 10.5383 132.619 10.6601C131.844 11.2578 131.076 11.8884 130.337 12.5344C130.268 12.5944 130.183 12.6237 130.099 12.6237ZM190.584 10.2044C190.509 10.2044 190.434 10.1811 190.369 10.1333C189.582 9.5489 188.768 8.98211 187.948 8.44811C187.781 8.33957 187.733 8.11596 187.842 7.94893C187.951 7.78232 188.173 7.73475 188.341 7.8436C189.174 8.38575 190.001 8.961 190.799 9.55414C190.959 9.67286 190.992 9.89904 190.873 10.0589C190.803 10.154 190.694 10.2044 190.584 10.2044ZM136.367 7.9785C136.247 7.9785 136.129 7.91828 136.061 7.80836C135.955 7.63928 136.007 7.41697 136.176 7.31164C137.02 6.78643 137.892 6.27986 138.768 5.80682C138.944 5.71136 139.163 5.77789 139.257 5.95264C139.352 6.12804 139.286 6.34682 139.111 6.44153C138.248 6.9076 137.389 7.40636 136.557 7.92386C136.498 7.96093 136.432 7.9785 136.367 7.9785ZM183.968 6.07918C183.913 6.07918 183.856 6.06654 183.803 6.039C182.934 5.59061 182.038 5.16332 181.141 4.76882C180.958 4.68889 180.875 4.47611 180.956 4.29364C181.035 4.11118 181.248 4.02771 181.431 4.10871C182.341 4.50889 183.251 4.9425 184.134 5.39797C184.311 5.48914 184.38 5.70686 184.289 5.88375C184.225 6.00804 184.099 6.07918 183.968 6.07918ZM143.302 4.407C143.161 4.407 143.027 4.32354 142.969 4.18479C142.892 4.00093 142.98 3.78996 143.164 3.71314C144.08 3.33236 145.022 2.97407 145.965 2.64932C146.154 2.58482 146.359 2.68414 146.424 2.87261C146.489 3.06107 146.388 3.26647 146.2 3.33129C145.272 3.65143 144.343 4.00404 143.441 4.37957C143.395 4.39822 143.348 4.407 143.302 4.407ZM176.772 3.07971C176.735 3.07971 176.697 3.07403 176.66 3.06214C175.729 2.76021 174.776 2.48336 173.827 2.23896C173.634 2.18925 173.517 1.99243 173.567 1.79968C173.617 1.60661 173.817 1.49079 174.006 1.54007C174.97 1.78843 175.938 2.06946 176.883 2.376C177.072 2.43729 177.176 2.64086 177.115 2.83039C177.065 2.98286 176.924 3.07971 176.772 3.07971ZM150.723 2.00818C150.559 2.00818 150.411 1.89621 150.372 1.73025C150.327 1.53653 150.447 1.34207 150.64 1.29632C151.61 1.06768 152.598 0.866893 153.577 0.699643C153.777 0.667928 153.96 0.797892 153.993 0.994178C154.027 1.19078 153.895 1.37711 153.699 1.41054C152.735 1.57543 151.762 1.77332 150.806 1.99875C150.778 2.00507 150.75 2.00818 150.723 2.00818ZM169.185 1.28046C169.167 1.28046 169.148 1.27907 169.13 1.27618C168.161 1.12757 167.176 1.00746 166.2 0.918643C166.002 0.900643 165.855 0.72493 165.873 0.526608C165.892 0.328287 166.063 0.181393 166.265 0.200036C167.256 0.29025 168.256 0.412499 169.239 0.563249C169.436 0.59357 169.571 0.777428 169.541 0.974357C169.514 1.15296 169.36 1.28046 169.185 1.28046ZM158.434 0.837966C158.246 0.837966 158.088 0.692465 158.075 0.502608C158.061 0.303644 158.21 0.131356 158.409 0.117642C159.4 0.047892 160.407 0.00846429 161.403 0H161.406C161.604 0 161.765 0.159536 161.766 0.357536C161.768 0.556929 161.608 0.719679 161.409 0.721393C160.428 0.729857 159.435 0.768643 158.46 0.836893C158.451 0.837643 158.442 0.837966 158.434 0.837966Z" fill="#91B3FA"/>
<path d="M209.522 41.5077C209.347 41.5077 209.194 41.3805 209.166 41.2027C209.092 40.7317 209.012 40.2614 208.924 39.7919C208.888 39.596 209.017 39.4076 209.213 39.3709C209.407 39.3371 209.597 39.4639 209.634 39.6595C209.722 40.1361 209.804 40.6134 209.879 41.0914C209.909 41.2884 209.775 41.473 209.578 41.5036C209.559 41.5063 209.54 41.5077 209.522 41.5077Z" fill="#91B3FA"/>
<path d="M198.897 47.5432C198.916 47.2969 198.777 47.0653 198.551 46.9668L192.084 44.1579C191.585 40.9036 190.563 37.7055 189.005 34.6963L192.574 28.6213C192.699 28.4082 192.675 28.1392 192.515 27.9514L187.018 21.5254C186.857 21.3376 186.595 21.2725 186.365 21.363L179.811 23.9474C177.079 21.943 174.078 20.4377 170.94 19.4402L169.166 12.6168C169.104 12.3777 168.897 12.2043 168.651 12.1851L160.22 11.5282C159.973 11.5091 159.742 11.6482 159.644 11.875L156.835 18.3412C153.58 18.8407 150.382 19.8629 147.373 21.4201L141.298 17.8517C141.085 17.7265 140.816 17.7502 140.628 17.911L134.202 23.4081C134.014 23.5687 133.949 23.8308 134.04 24.0608L136.624 30.6152C134.62 33.3469 133.114 36.3479 132.117 39.4856L125.293 41.2591C125.054 41.3214 124.881 41.5285 124.862 41.7747L124.205 50.2055C124.186 50.452 124.325 50.6834 124.552 50.7819L131.018 53.5908C131.517 56.8451 132.539 60.0432 134.097 63.0524L130.528 69.1275C130.403 69.3405 130.427 69.6095 130.587 69.7973L136.084 76.2235C136.245 76.4113 136.507 76.4763 136.737 76.3857L143.292 73.8013C146.023 75.8059 149.024 77.3111 152.162 78.3085L153.936 85.1317C153.998 85.371 154.205 85.5444 154.451 85.5635L162.882 86.2204C163.128 86.2396 163.36 86.1004 163.458 85.8737L166.267 79.4075C169.522 78.908 172.72 77.8859 175.729 76.3286L181.804 79.8972C182.017 80.0222 182.286 79.9984 182.474 79.8378L188.9 74.3408C189.088 74.1801 189.153 73.9181 189.063 73.6881L186.478 67.1337C188.483 64.402 189.988 61.4008 190.985 58.2633L197.809 56.4897C198.048 56.4275 198.221 56.2205 198.241 55.974L198.897 47.5432Z" fill="#91B3FA"/>
<path opacity="0.7" d="M161.534 56.9262C159.883 56.9265 158.276 56.4182 156.901 55.4454C153.277 52.8814 152.416 47.8477 154.98 44.2244C156.222 42.4691 158.073 41.3029 160.193 40.9401C162.312 40.5784 164.446 41.062 166.201 42.3037C167.956 43.5461 169.123 45.3972 169.485 47.5163C169.848 49.6358 169.364 51.7697 168.122 53.5246C166.88 55.28 165.029 56.4462 162.909 56.809C162.45 56.8874 161.99 56.9262 161.534 56.9262ZM161.566 41.9048C161.171 41.9048 160.773 41.9386 160.375 42.0066C158.541 42.3204 156.938 43.33 155.863 44.8493C153.644 47.9854 154.389 52.3427 157.526 54.562C159.045 55.6374 160.891 56.0556 162.727 55.7424C164.561 55.4286 166.163 54.419 167.238 52.8997C168.314 51.3804 168.733 49.5336 168.419 47.699C168.105 45.8645 167.095 44.262 165.576 43.187C164.386 42.3447 162.995 41.9048 161.566 41.9048Z" fill="white"/>
<path opacity="0.7" d="M161.405 69.8229C160.853 69.8229 160.3 69.8013 159.744 69.7581C154.166 69.3237 149.091 66.7427 145.454 62.4911C142.179 58.6632 140.423 53.8933 140.423 48.9092C140.423 48.3576 140.445 47.8039 140.488 47.248C140.923 41.67 143.503 36.5952 147.755 32.9581C152.006 29.3215 157.42 27.5577 162.998 27.9924C168.576 28.4267 173.651 31.0077 177.288 35.2593C178.259 36.3943 179.109 37.6311 179.813 38.9348L178.861 39.4491C178.193 38.2126 177.387 37.0396 176.466 35.9629C173.017 31.9306 168.204 29.4832 162.914 29.071C157.625 28.6623 152.491 30.3317 148.459 33.7802C144.427 37.2295 141.979 42.0423 141.567 47.3321C141.526 47.859 141.505 48.3842 141.505 48.9074C141.505 53.6339 143.171 58.1576 146.276 61.7879C149.725 65.8198 154.538 68.2673 159.828 68.6793C165.122 69.0918 170.252 67.419 174.284 63.9701C177.02 61.629 179.068 58.5965 180.204 55.2005L181.231 55.5443C180.032 59.126 177.872 62.3241 174.987 64.7923C171.159 68.0669 166.389 69.8229 161.405 69.8229Z" fill="white"/>
<path d="M244.732 84.249C244.67 84.249 244.607 84.2328 244.549 84.1986C244.377 84.0971 244.321 83.8759 244.423 83.7044C244.665 83.2951 244.897 82.8769 245.111 82.4613C245.202 82.2844 245.419 82.2154 245.597 82.3062C245.774 82.3974 245.843 82.6151 245.752 82.7924C245.531 83.2204 245.293 83.6508 245.043 84.0721C244.976 84.186 244.856 84.249 244.732 84.249Z" fill="#91B3FA"/>
<path d="M221.452 96.3215C221.443 96.3215 221.433 96.3211 221.424 96.3204C220.446 96.2432 219.462 96.1079 218.503 95.9185C218.307 95.8797 218.18 95.6899 218.218 95.4948C218.257 95.2992 218.448 95.1717 218.642 95.2105C219.575 95.3951 220.53 95.5265 221.48 95.6011C221.679 95.617 221.827 95.7907 221.812 95.989C221.797 96.1781 221.639 96.3215 221.452 96.3215ZM226.17 96.2451C225.989 96.2451 225.832 96.1088 225.812 95.9245C225.79 95.7265 225.932 95.5479 226.13 95.5257C227.08 95.4193 228.029 95.2566 228.954 95.0418C229.146 94.9946 229.342 95.1168 229.387 95.3112C229.432 95.5054 229.311 95.6991 229.117 95.7442C228.165 95.9658 227.188 96.1334 226.21 96.2429C226.197 96.2443 226.183 96.2451 226.17 96.2451ZM214.05 94.5743C214.005 94.5743 213.959 94.5658 213.914 94.5478C213.008 94.1794 212.112 93.7524 211.253 93.279C211.078 93.1828 211.015 92.9634 211.111 92.7891C211.207 92.6147 211.426 92.5516 211.601 92.6471C212.436 93.1068 213.306 93.5214 214.186 93.8793C214.37 93.9543 214.46 94.1649 214.385 94.3495C214.328 94.4894 214.193 94.5743 214.05 94.5743ZM233.509 94.2506C233.371 94.2506 233.24 94.171 233.18 94.0372C233.098 93.855 233.18 93.6419 233.362 93.5606C234.232 93.1721 235.087 92.7276 235.904 92.2396C236.075 92.1371 236.296 92.1931 236.399 92.3644C236.501 92.5356 236.446 92.7568 236.274 92.8589C235.433 93.3616 234.552 93.8191 233.656 94.2193C233.608 94.2407 233.558 94.2506 233.509 94.2506ZM207.533 90.66C207.452 90.66 207.37 90.6326 207.303 90.5763C206.553 89.9503 205.829 89.2711 205.153 88.5582C205.016 88.4135 205.022 88.1851 205.167 88.0481C205.312 87.9114 205.54 87.9171 205.677 88.0615C206.334 88.7547 207.036 89.4142 207.765 90.0225C207.918 90.15 207.938 90.3776 207.81 90.5305C207.739 90.616 207.637 90.66 207.533 90.66ZM239.893 90.1162C239.794 90.1162 239.695 90.0754 239.623 89.9957C239.491 89.8471 239.504 89.6188 239.652 89.4864L239.864 89.2951C240.499 88.7164 241.109 88.0989 241.678 87.4596C241.81 87.3099 242.038 87.2965 242.187 87.4297C242.336 87.5621 242.349 87.79 242.217 87.9387C241.632 88.5971 241.004 89.2329 240.351 89.8285L240.133 90.0247C240.064 90.0859 239.978 90.1162 239.893 90.1162ZM202.505 84.9561C202.386 84.9561 202.269 84.8976 202.201 84.7898C201.672 83.9648 201.187 83.0993 200.758 82.2165C200.671 82.0373 200.746 81.8216 200.925 81.7346C201.105 81.6479 201.32 81.7226 201.407 81.9015C201.823 82.7586 202.295 83.5994 202.808 84.4007C202.915 84.5684 202.867 84.7914 202.699 84.8989C202.638 84.9378 202.571 84.9561 202.505 84.9561Z" fill="#91B3FA"/>
<path d="M199.436 77.9813C199.277 77.9813 199.131 77.8746 199.088 77.7129C198.964 77.2441 198.852 76.7647 198.755 76.2888C198.715 76.0937 198.841 75.9034 199.036 75.8637C199.232 75.8239 199.422 75.9496 199.462 76.1451C199.556 76.6072 199.665 77.0726 199.786 77.5284C199.837 77.7208 199.722 77.9184 199.529 77.9694C199.498 77.9775 199.467 77.9813 199.436 77.9813Z" fill="#91B3FA"/>
<path d="M202.408 58.4061C202.342 58.4061 202.275 58.3881 202.216 58.3504C202.047 58.2443 201.996 58.0218 202.103 57.853C202.362 57.4416 202.636 57.033 202.919 56.6381C203.035 56.4765 203.26 56.4387 203.422 56.5543C203.584 56.6703 203.621 56.8954 203.505 57.0574C203.231 57.4409 202.965 57.838 202.713 58.2378C202.645 58.3465 202.527 58.4061 202.408 58.4061Z" fill="#91B3FA"/>
<path d="M246.224 61.9141C246.084 61.9141 245.951 61.8317 245.892 61.6943C245.527 60.8326 245.106 59.983 244.642 59.1689C244.543 58.996 244.604 58.7755 244.777 58.6768C244.95 58.5781 245.17 58.6388 245.269 58.8117C245.746 59.6501 246.18 60.525 246.557 61.4124C246.635 61.5956 246.549 61.8076 246.365 61.8854C246.319 61.9049 246.272 61.9141 246.224 61.9141ZM242.289 55.5503C242.187 55.5503 242.085 55.5073 242.014 55.4235C241.83 55.2072 241.642 54.9935 241.448 54.7817C241.008 54.2995 240.544 53.8292 240.068 53.3839C239.922 53.2477 239.915 53.0193 240.051 52.8739C240.187 52.7281 240.415 52.7207 240.561 52.857C241.05 53.3153 241.528 53.7993 241.981 54.2956C242.18 54.513 242.374 54.7331 242.563 54.9557C242.692 55.1076 242.674 55.3351 242.522 55.4643C242.455 55.5221 242.371 55.5503 242.289 55.5503ZM206.254 53.7002C206.159 53.7002 206.064 53.6629 205.993 53.5886C205.856 53.4442 205.861 53.2159 206.005 53.0785C206.151 52.9393 206.299 52.8013 206.448 52.6646C207.012 52.1503 207.605 51.6561 208.212 51.1957C208.37 51.0748 208.596 51.1054 208.717 51.2647C208.838 51.4231 208.807 51.6493 208.648 51.7698C208.059 52.2176 207.482 52.6977 206.935 53.1972C206.789 53.3304 206.645 53.4649 206.503 53.6005C206.433 53.6671 206.344 53.7002 206.254 53.7002ZM236.641 50.6413C236.575 50.6413 236.509 50.6233 236.449 50.5857C235.657 50.0851 234.828 49.6261 233.985 49.221C233.805 49.1348 233.73 48.9195 233.816 48.7398C233.902 48.5602 234.116 48.4833 234.297 48.5708C235.165 48.9879 236.019 49.4606 236.834 49.9755C237.003 50.0822 237.053 50.3049 236.947 50.4733C236.878 50.5817 236.761 50.6413 236.641 50.6413ZM212.375 49.3953C212.242 49.3953 212.114 49.3221 212.051 49.1953C211.962 49.0167 212.035 48.8005 212.214 48.7117C213.076 48.2833 213.974 47.9004 214.883 47.5728C215.072 47.5059 215.277 47.6027 215.345 47.7902C215.412 47.9776 215.315 48.1844 215.128 48.2517C214.244 48.5698 213.372 48.9418 212.535 49.3577C212.483 49.3834 212.429 49.3953 212.375 49.3953ZM229.787 47.6492C229.756 47.6492 229.725 47.6454 229.694 47.6372C228.789 47.397 227.86 47.2067 226.933 47.0718C226.736 47.0433 226.599 46.8601 226.628 46.6632C226.657 46.4656 226.838 46.3243 227.037 46.3582C227.991 46.4969 228.947 46.6924 229.879 46.9397C230.072 46.9908 230.186 47.1884 230.135 47.3811C230.092 47.5425 229.946 47.6492 229.787 47.6492ZM219.502 47.1216C219.328 47.1216 219.174 46.9948 219.146 46.8173C219.115 46.6203 219.249 46.4357 219.446 46.4048C220.396 46.2543 221.368 46.1575 222.333 46.1167C222.533 46.1125 222.701 46.2625 222.709 46.4619C222.717 46.6608 222.562 46.8289 222.363 46.8374C221.425 46.8768 220.482 46.9712 219.559 47.1171C219.54 47.1202 219.521 47.1216 219.502 47.1216Z" fill="#91B3FA"/>
<path d="M247.894 67.7674C247.719 67.7674 247.566 67.6403 247.538 67.4624C247.465 66.9963 247.378 66.5265 247.279 66.0654C247.237 65.8706 247.36 65.6786 247.555 65.6367C247.753 65.5948 247.942 65.7187 247.984 65.9132C248.086 66.3876 248.176 66.8717 248.251 67.3511C248.282 67.548 248.147 67.7325 247.95 67.7633C247.931 67.766 247.912 67.7674 247.894 67.7674Z" fill="#91B3FA"/>
<path d="M242.437 70.6925C242.446 70.5659 242.375 70.447 242.259 70.3964L238.937 68.9535C238.68 67.2819 238.155 65.6391 237.355 64.0933L239.188 60.9727C239.253 60.8633 239.24 60.7251 239.158 60.6285L236.334 57.3276C236.252 57.2311 236.117 57.1977 235.999 57.2442L232.632 58.5718C231.229 57.5422 229.687 56.7689 228.076 56.2566L227.164 52.7515C227.132 52.6287 227.026 52.5397 226.9 52.5298L222.569 52.1924C222.442 52.1826 222.323 52.254 222.273 52.3705L220.83 55.692C219.158 55.9486 217.515 56.4736 215.97 57.2737L212.849 55.4406C212.74 55.3762 212.601 55.3885 212.505 55.471L209.204 58.2949C209.108 58.3774 209.074 58.5119 209.121 58.6301L210.448 61.997C209.419 63.4002 208.645 64.9418 208.133 66.5535L204.628 67.4646C204.505 67.4965 204.416 67.6029 204.406 67.7294L204.069 72.0603C204.059 72.1868 204.13 72.3057 204.247 72.3563L207.568 73.7992C207.825 75.4708 208.35 77.1136 209.15 78.6594L207.317 81.78C207.253 81.8894 207.265 82.0276 207.347 82.1241L210.171 85.4251C210.254 85.5216 210.388 85.555 210.506 85.5085L213.873 84.1809C215.276 85.2106 216.818 85.9838 218.43 86.4961L219.341 90.0011C219.373 90.124 219.479 90.213 219.606 90.223L223.937 90.5604C224.063 90.5702 224.182 90.4988 224.233 90.3823L225.676 87.0608C227.347 86.8042 228.99 86.2791 230.536 85.4791L233.656 87.3122C233.766 87.3764 233.904 87.3642 234 87.2817L237.301 84.4581C237.398 84.3755 237.431 84.2409 237.385 84.1228L236.057 80.756C237.087 79.3527 237.86 77.8111 238.372 76.1994L241.877 75.2884C242 75.2564 242.089 75.1501 242.099 75.0235L242.437 70.6925Z" fill="#91B3FA"/>
<path opacity="0.7" d="M223.243 75.7756C222.341 75.7756 221.463 75.498 220.712 74.9665C218.733 73.5656 218.262 70.8152 219.663 68.8355C220.341 67.8764 221.353 67.2391 222.511 67.0411C223.669 66.8428 224.835 67.1076 225.793 67.7862C226.753 68.4649 227.39 69.4762 227.588 70.6341C227.786 71.7924 227.522 72.9583 226.843 73.9171C226.164 74.8762 225.153 75.5135 223.995 75.7114C223.744 75.7545 223.493 75.7756 223.243 75.7756ZM223.257 68.0612C222.217 68.0612 221.192 68.5484 220.546 69.4604C219.49 70.9532 219.845 73.027 221.337 74.083C222.06 74.5948 222.941 74.7945 223.812 74.6448C224.685 74.4955 225.448 74.015 225.959 73.2921C226.471 72.5689 226.671 71.6897 226.521 70.8168C226.372 69.9436 225.891 69.181 225.169 68.6695C224.588 68.2585 223.919 68.0612 223.257 68.0612Z" fill="white"/>
<path opacity="0.7" d="M223.178 82.4004C222.888 82.4004 222.596 82.3892 222.304 82.3662C219.368 82.1376 216.698 80.7794 214.784 78.5419C213.01 76.4686 212.142 73.9203 212.142 71.3841C212.142 68.2719 213.45 65.1774 215.995 63.0005C220.613 59.049 227.585 59.5924 231.536 64.2115C231.567 64.2474 231.598 64.2841 231.628 64.3204C232.057 64.8347 232.438 65.3864 232.765 65.9644C232.766 65.9669 232.767 65.969 232.768 65.9711C232.773 65.9799 232.778 65.9884 232.783 65.9969C232.791 66.012 232.8 66.0272 232.808 66.042C232.813 66.0504 232.817 66.0589 232.822 66.0669C232.836 66.093 232.85 66.1194 232.865 66.1455L231.913 66.6597C231.579 66.0412 231.175 65.4544 230.714 64.9147C228.191 61.9656 224.302 60.8599 220.769 61.7289C219.312 62.0875 217.914 62.7825 216.698 63.8227C214.403 65.7862 213.224 68.5767 213.224 71.3835C213.224 73.6706 214.006 75.9687 215.606 77.8388C219.169 82.0035 225.457 82.4942 229.622 78.9308C230.991 77.7595 232.016 76.2421 232.585 74.5425L233.611 74.8863C232.98 76.7716 231.844 78.4542 230.325 79.753C228.311 81.4761 225.801 82.4004 223.178 82.4004Z" fill="white"/>
<path d="M152.938 121.1C153.828 120.267 155.03 119.853 156.244 119.962C169.227 121.129 193.45 114.876 209.281 98.6775C210.38 97.5527 212.384 98.1885 213.644 99.1301C231.25 112.289 260.435 115.014 270.566 115.571C272.662 115.686 274.362 117.312 274.578 119.4C283.792 208.387 225.853 240.632 213.837 246.324C212.523 246.947 210.977 246.856 209.743 246.088C149.853 208.783 152.415 160.27 151.586 124.324C151.558 123.105 152.049 121.933 152.938 121.1Z" fill="url(#paint2_linear_36_699)"/>
<path opacity="0.61" d="M212.216 239.861C211.948 239.861 211.681 239.786 211.448 239.637C188.488 224.959 173.523 207.412 165.699 185.993C158.711 166.863 158.369 147.384 158.067 130.197L158.026 127.906C158.019 127.523 158.162 127.163 158.43 126.89C158.7 126.615 159.062 126.464 159.449 126.464H159.45C173.669 126.464 195.011 120.185 210.665 106.159C211.145 105.728 211.857 105.676 212.396 106.034C229.595 117.446 254.129 120.769 267.223 121.734C267.919 121.786 268.469 122.329 268.531 123.026C271.574 157.747 264.352 187.108 247.066 210.293C234.155 227.608 218.845 236.63 212.862 239.705C212.66 239.809 212.438 239.861 212.216 239.861ZM212.596 239.187C218.543 236.13 233.76 227.162 246.598 209.944C263.797 186.878 270.98 157.651 267.95 123.077C267.914 122.666 267.59 122.346 267.18 122.315C254.03 121.346 229.384 118.005 212.074 106.52C211.756 106.309 211.337 106.339 211.054 106.593C195.286 120.722 173.78 127.047 159.462 127.047H159.461C159.22 127.047 159.005 127.136 158.846 127.299C158.689 127.458 158.605 127.67 158.609 127.895L158.65 130.186C158.951 147.327 159.292 166.755 166.247 185.793C174.025 207.088 188.913 224.54 211.762 239.146C212.012 239.306 212.332 239.322 212.596 239.187Z" fill="white"/>
<path opacity="0.61" d="M233.151 154.691H230.443C229.098 154.691 228.008 153.601 228.008 152.256V142.999C228.008 139.685 225.321 136.999 222.008 136.999H205.226C201.913 136.999 199.227 139.685 199.227 142.999V152.256C199.227 153.601 198.137 154.691 196.792 154.691H194.083C192.739 154.691 191.648 153.601 191.648 152.256V142.999C191.648 135.5 197.728 129.421 205.226 129.421H222.008C229.507 129.421 235.586 135.5 235.586 142.999V152.256C235.586 153.601 234.496 154.691 233.151 154.691Z" fill="white"/>
<path opacity="0.61" d="M236.508 156.876H190.727C187.921 156.876 185.647 159.15 185.647 161.955V197.09C185.647 199.896 187.921 202.17 190.727 202.17H236.508C239.313 202.17 241.587 199.896 241.587 197.09V161.955C241.587 159.15 239.313 156.876 236.508 156.876ZM220.167 190.834C220.452 192.017 219.555 193.156 218.337 193.156H208.897C207.68 193.156 206.783 192.018 207.067 190.834L209.27 181.664C206.669 180.11 204.97 177.204 205.143 173.916C205.368 169.658 208.819 166.171 213.075 165.907C218.008 165.601 222.103 169.51 222.103 174.376C222.103 177.474 220.443 180.182 217.965 181.664L220.167 190.834Z" fill="white"/>
<path d="M38.13 145.39C38.13 145.39 41.8379 145.586 42.2927 153.214C42.2927 153.214 33.6947 160.922 22.0805 162.757C21.2085 162.894 23.2994 156.805 23.6137 155.98C25.1093 152.055 29.8194 149.527 38.13 145.39Z" fill="url(#paint3_linear_36_699)"/>
<path d="M79.8888 136.42H72.0641C72.0641 136.42 48.0484 109.897 32.2971 107.221C32.2971 107.221 21.3326 121.217 32.881 147.368C33.8101 149.472 36.4083 150.406 38.3464 149.169C38.926 148.798 39.3423 148.302 39.5951 147.68L38.6665 125.351C38.6665 125.351 59.152 143.268 62.7128 146.726C66.2735 150.183 84.373 148.076 79.8888 136.42Z" fill="#7D97F4"/>
<path d="M4.24157 192.107C7.52046 189.234 12.7449 186.01 20.287 185.085L22.8376 186.646C22.8376 186.646 21.2111 189.045 18.2398 191.579C15.509 193.165 11.2922 195.313 7.79625 195.779C4.39746 196.231 3.89625 194.178 4.24157 192.107Z" fill="url(#paint4_linear_36_699)"/>
<path d="M23.6139 155.98C25.6339 156.634 26.5224 159.496 31.648 157.603C36.6071 155.772 40.2936 153.411 42.1902 152.049C42.2325 152.418 42.2682 152.803 42.2928 153.215C42.2928 153.215 33.2271 161.838 21.6129 163.672C20.741 163.81 20.0499 162.939 20.3644 162.114C20.9283 160.634 21.9452 158.39 23.6139 155.98Z" fill="#91B3FA"/>
<path d="M1.77152 194.561C2.41792 193.826 3.24292 192.982 4.2417 192.107C3.89628 194.178 4.39759 196.232 7.79649 195.779C11.2923 195.313 15.5092 193.165 18.24 191.579C14.8173 194.498 9.60967 197.596 3.03678 197.414C1.57674 197.374 0.806809 195.657 1.77152 194.561Z" fill="#91B3FA"/>
<path d="M79.6024 142.082L42.9605 142.479C42.9605 142.479 22.0353 159.791 18.2398 186.19C18.2398 186.19 17.6098 188.132 21.3922 188.464C21.3922 188.464 34.0435 180.201 42.2926 165.592C52.4073 147.68 72.4458 155.743 72.4458 155.743C82.0728 157.868 89.7351 157.077 95.3426 148.448L79.6024 142.082Z" fill="#7D97F4"/>
<path d="M78.7373 112.565C78.7373 112.565 74.7926 132.333 55.4654 140.154L48.5905 139.344L46.9683 141.93L63.0947 142.444C63.0947 142.444 76.8793 136.985 84.1828 122.107C84.4241 121.616 88.4459 113.312 78.7373 112.565Z" fill="url(#paint5_linear_36_699)"/>
<path d="M76.6235 141.759C76.6235 141.759 81.1091 129.565 82.0731 117.718C82.0731 117.718 78.7916 114.897 76.7404 113.681C76.0762 113.287 75.8254 112.453 76.1612 111.758C77.6692 108.634 86.7889 96.3672 87.4719 96.1967C91.1851 95.2701 106.413 88.0296 117.138 102.7C121.741 108.996 116.225 128.377 95.3428 148.448C88.6233 149.542 82.3412 147.606 76.6235 141.759Z" fill="url(#paint6_linear_36_699)"/>
<path d="M93.908 120.39C93.908 120.39 81.4455 135.146 65.512 137.303C65.512 137.303 61.3942 133.549 58.3322 134.889C55.2701 136.23 51.0715 142.146 51.0715 142.146H71.53C71.53 142.146 90.8744 141.464 100.541 129.734C99.7629 125.629 97.4335 123.177 93.908 120.39Z" fill="url(#paint7_linear_36_699)"/>
<path d="M101.178 85.8468L103.905 94.9414C104.03 95.3581 103.875 95.8094 103.517 96.0552C102.204 96.9542 98.7725 98.7424 94.0655 97.0047C93.5271 96.8059 93.1582 96.3032 93.1116 95.7313L92.4651 87.8084L101.178 85.8468Z" fill="url(#paint8_linear_36_699)"/>
<path d="M85.2112 78.4815C85.2112 78.4815 86.5519 87.9091 90.1734 90.8082C93.7948 93.7074 100.851 91.5245 103.234 84.4172L98.4854 72.2651L85.2112 78.4815Z" fill="url(#paint9_linear_36_699)"/>
<path d="M99.0202 80.1289C98.7447 80.2177 98.4563 80.0411 98.4133 79.755C98.2825 78.8846 97.9563 77.1624 97.2955 75.9892C97.2955 75.9892 97.6412 74.7523 94.1696 76.6208C90.6981 78.4893 85.4841 81.2341 82.4141 79.5996C79.4212 78.0061 76.3895 69.9863 84.2994 71.4722C84.6004 71.5287 84.8771 71.2889 84.8546 70.9835C84.7574 69.6654 84.8882 66.6331 87.959 65.6598C90.8326 64.7489 92.4058 66.0461 93.054 66.8291C93.2448 67.0595 93.5987 67.0549 93.7806 66.8175C94.6415 65.6936 96.9792 63.3017 100.421 64.8183C103.255 66.0676 103.696 67.8134 103.65 68.9015C103.634 69.254 103.992 69.4929 104.313 69.3453C105.181 68.9454 106.577 68.7377 107.915 70.4137C109.764 72.7307 107.121 74.7399 106.329 75.2667C106.199 75.3531 106.118 75.4961 106.117 75.6521C106.109 76.8571 105.922 82.1132 103.287 85.078C103.059 85.3347 102.638 85.2594 102.505 84.9428L100.477 80.11C100.382 79.8856 100.132 79.7706 99.9005 79.8453L99.0202 80.1289Z" fill="url(#paint10_linear_36_699)"/>
<path d="M98.9773 81.1101C98.9773 81.1101 100.216 76.0652 102.097 77.7031C103.979 79.341 101.607 82.9462 99.4515 83.6333L98.9773 81.1101Z" fill="url(#paint11_linear_36_699)"/>
<path d="M52.1015 143.291L42.9157 112.657C42.541 111.407 41.4307 110.521 40.1291 110.432L27.727 109.583C26.4664 109.497 25.5287 110.728 25.9473 111.92L36.2162 141.175C36.547 142.118 37.3931 142.784 38.3869 142.884L50.5997 144.241L52.1015 143.291Z" fill="url(#paint12_linear_36_699)"/>
<path d="M35.1601 123.04C35.846 124.424 37.0303 125.235 37.8055 124.851C38.5807 124.467 38.6531 123.033 37.9673 121.649C37.2815 120.265 36.0972 119.454 35.322 119.838C34.5469 120.222 34.4743 121.655 35.1601 123.04Z" fill="#91B3FA"/>
<path d="M50.5997 144.241C50.6197 144.241 50.6396 144.24 50.6596 144.239L76.6824 142.924C77.3257 142.891 77.8208 142.343 77.7883 141.7C77.7558 141.057 77.2056 140.551 76.5645 140.594L50.5418 141.91C49.8985 141.942 49.4034 142.49 49.4358 143.133C49.4674 143.756 49.9826 144.241 50.5997 144.241Z" fill="url(#paint13_linear_36_699)"/>
<path d="M82.073 117.898C81.9737 117.898 81.893 117.818 81.8927 117.718C81.8746 112.225 83.9884 104.955 84.0097 104.882C84.0377 104.787 84.1376 104.732 84.2336 104.76C84.3292 104.788 84.384 104.888 84.3559 104.983C84.3346 105.056 82.2353 112.277 82.2533 117.717C82.2537 117.817 82.1732 117.898 82.0735 117.898H82.073Z" fill="url(#paint14_linear_36_699)"/>
<path d="M93.9077 120.57C93.8686 120.57 93.8291 120.557 93.796 120.531C93.718 120.469 93.7046 120.356 93.7662 120.278C93.8231 120.206 99.4794 113.015 101.415 108.109C101.452 108.017 101.556 107.969 101.649 108.008C101.742 108.044 101.788 108.149 101.751 108.242C99.7955 113.197 94.1067 120.429 94.0495 120.501C94.0139 120.546 93.961 120.57 93.9077 120.57Z" fill="url(#paint15_linear_36_699)"/>
<path d="M101.926 131.626L100.897 130.171C100.839 130.089 100.859 129.977 100.94 129.919C101.021 129.861 101.134 129.881 101.191 129.962L102.052 131.179C110.078 127.66 115.047 118.059 115.096 117.961C115.141 117.873 115.25 117.837 115.339 117.883C115.428 117.928 115.463 118.037 115.418 118.126C115.367 118.224 110.286 128.046 102.06 131.569L101.926 131.626Z" fill="url(#paint16_linear_36_699)"/>
<defs>
<linearGradient id="paint0_linear_36_699" x1="319.504" y1="302.723" x2="104.021" y2="114.175" gradientUnits="userSpaceOnUse">
<stop stop-color="#DAE3FE"/>
<stop offset="1" stop-color="#E9EFFD"/>
</linearGradient>
<linearGradient id="paint1_linear_36_699" x1="23.986" y1="21.3992" x2="254.693" y2="379.393" gradientUnits="userSpaceOnUse">
<stop stop-color="#4F52FF"/>
<stop offset="1" stop-color="#4042E2"/>
</linearGradient>
<linearGradient id="paint2_linear_36_699" x1="343.386" y1="30.764" x2="293.611" y2="79.4571" gradientUnits="userSpaceOnUse">
<stop stop-color="#FF928E"/>
<stop offset="1" stop-color="#FE7062"/>
</linearGradient>
<linearGradient id="paint3_linear_36_699" x1="34.3833" y1="152.641" x2="20.9414" y2="166.68" gradientUnits="userSpaceOnUse">
<stop stop-color="#09005D"/>
<stop offset="1" stop-color="#1A0F91"/>
</linearGradient>
<linearGradient id="paint4_linear_36_699" x1="16.5518" y1="187.88" x2="-8.87419" y2="206.541" gradientUnits="userSpaceOnUse">
<stop stop-color="#09005D"/>
<stop offset="1" stop-color="#1A0F91"/>
</linearGradient>
<linearGradient id="paint5_linear_36_699" x1="57.6304" y1="118.912" x2="74.8921" y2="139.439" gradientUnits="userSpaceOnUse">
<stop stop-color="#FEBBBA"/>
<stop offset="1" stop-color="#FF928E"/>
</linearGradient>
<linearGradient id="paint6_linear_36_699" x1="143.22" y1="68.387" x2="91.2781" y2="122.493" gradientUnits="userSpaceOnUse">
<stop stop-color="#FF928E"/>
<stop offset="1" stop-color="#FE7062"/>
</linearGradient>
<linearGradient id="paint7_linear_36_699" x1="77.7583" y1="137.589" x2="43.2549" y2="90.3866" gradientUnits="userSpaceOnUse">
<stop stop-color="#FEBBBA"/>
<stop offset="1" stop-color="#FF928E"/>
</linearGradient>
<linearGradient id="paint8_linear_36_699" x1="98.8647" y1="98.4725" x2="97.5938" y2="87.0343" gradientUnits="userSpaceOnUse">
<stop stop-color="#FEBBBA"/>
<stop offset="1" stop-color="#FF928E"/>
</linearGradient>
<linearGradient id="paint9_linear_36_699" x1="92.0864" y1="88.4949" x2="97.6882" y2="70.019" gradientUnits="userSpaceOnUse">
<stop stop-color="#FEBBBA"/>
<stop offset="1" stop-color="#FF928E"/>
</linearGradient>
<linearGradient id="paint10_linear_36_699" x1="97.1412" y1="54.5701" x2="91.9331" y2="84.2757" gradientUnits="userSpaceOnUse">
<stop stop-color="#09005D"/>
<stop offset="1" stop-color="#1A0F91"/>
</linearGradient>
<linearGradient id="paint11_linear_36_699" x1="97.8883" y1="90.2542" x2="103.49" y2="71.7783" gradientUnits="userSpaceOnUse">
<stop stop-color="#FEBBBA"/>
<stop offset="1" stop-color="#FF928E"/>
</linearGradient>
<linearGradient id="paint12_linear_36_699" x1="52.1015" y1="126.91" x2="25.8462" y2="126.91" gradientUnits="userSpaceOnUse">
<stop stop-color="#09005D"/>
<stop offset="1" stop-color="#1A0F91"/>
</linearGradient>
<linearGradient id="paint13_linear_36_699" x1="48.9148" y1="138.387" x2="69.9087" y2="144.14" gradientUnits="userSpaceOnUse">
<stop stop-color="#09005D"/>
<stop offset="1" stop-color="#1A0F91"/>
</linearGradient>
<linearGradient id="paint14_linear_36_699" x1="87.7772" y1="39.3036" x2="79.6616" y2="164.282" gradientUnits="userSpaceOnUse">
<stop stop-color="#E1473D"/>
<stop offset="1" stop-color="#E9605A"/>
</linearGradient>
<linearGradient id="paint15_linear_36_699" x1="102.552" y1="40.2629" x2="94.4366" y2="165.242" gradientUnits="userSpaceOnUse">
<stop stop-color="#E1473D"/>
<stop offset="1" stop-color="#E9605A"/>
</linearGradient>
<linearGradient id="paint16_linear_36_699" x1="113.545" y1="40.9767" x2="105.43" y2="165.955" gradientUnits="userSpaceOnUse">
<stop stop-color="#E1473D"/>
<stop offset="1" stop-color="#E9605A"/>
</linearGradient>
</defs>
</svg>
