<svg width="18" height="18" viewBox="0 0 18 18" fill="none" xmlns="http://www.w3.org/2000/svg">
<g id="Group">
<path id="Vector" d="M4.36681 8.70784C4.89945 9.66888 5.51348 10.5914 6.31315 11.4339C7.11282 12.2807 8.1067 13.0518 9.39617 13.7086C9.49184 13.7558 9.58181 13.7558 9.6632 13.7229C9.78743 13.6758 9.91024 13.5758 10.0345 13.4516C10.1302 13.3559 10.2487 13.2046 10.3729 13.0375C10.8684 12.3863 11.481 11.5767 12.3478 11.9808C12.3664 11.9908 12.3807 11.9993 12.4006 12.0093L15.288 13.6701C15.298 13.6744 15.3066 13.6844 15.3166 13.6887C15.6979 13.95 15.8549 14.3541 15.8592 14.811C15.8592 15.278 15.6879 15.8006 15.4351 16.2433C15.1024 16.8288 14.6126 17.2143 14.0457 17.4714C13.5073 17.7184 12.909 17.8526 12.3321 17.9383C11.4282 18.0711 10.5814 17.9855 9.71461 17.7198C8.86781 17.4585 8.01531 17.0258 7.08283 16.4489L7.01572 16.4061C6.58732 16.1391 6.12609 15.8535 5.67341 15.5165C4.01553 14.2656 2.32622 12.4577 1.22667 10.4685C0.304196 8.79781 -0.20131 6.99569 0.0757188 5.27783C0.228513 4.33536 0.632632 3.48 1.33663 2.91309C1.95066 2.41758 2.77889 2.14769 3.84845 2.24193C3.97269 2.25193 4.08121 2.32333 4.13833 2.42757L5.989 5.55771C6.26032 5.91042 6.29316 6.25742 6.14608 6.60442C6.02184 6.89002 5.7748 7.15134 5.4378 7.39838C5.33784 7.48406 5.21932 7.56974 5.09508 7.6597C4.68097 7.95958 4.20973 8.30658 4.37252 8.71641L4.36681 8.70784ZM10.7042 0C10.1887 0 9.74745 0.181354 9.38046 0.544062C9.01347 0.90677 8.8364 1.34802 8.8364 1.8678V5.14645C8.8364 5.66624 9.01775 6.10749 9.38046 6.47019C9.74317 6.8329 10.1844 7.01425 10.7042 7.01425H12.2393C12.1322 7.42694 11.9994 7.81821 11.8352 8.1852C11.6738 8.55648 11.3982 8.91062 11.0184 9.24905C11.7481 9.05913 12.3964 8.77496 12.969 8.3994C13.5387 8.02812 14.0328 7.5626 14.4412 7.01283H15.6793C16.1948 7.01283 16.636 6.82719 17.003 6.46877C17.37 6.10606 17.5471 5.66481 17.5471 5.14502V1.8678C17.5471 1.3523 17.3657 0.911053 17.003 0.544062C16.6403 0.17707 16.1977 0 15.6793 0C14.02 0 12.3621 0 10.7042 0ZM13.0161 4.94796H10.5486C10.5771 4.68521 10.6628 4.43817 10.8056 4.20684C10.9484 3.97551 11.2168 3.70133 11.611 3.38575C11.8523 3.19297 12.0065 3.04589 12.0751 2.94593C12.1422 2.84597 12.1765 2.7503 12.1765 2.66033C12.1765 2.56323 12.1436 2.47898 12.0765 2.41044C12.0094 2.34189 11.9251 2.30762 11.8237 2.30762C11.7195 2.30762 11.6324 2.34332 11.5667 2.41472C11.4996 2.48755 11.4553 2.61321 11.4325 2.79456L10.61 2.72174C10.6428 2.47184 10.7013 2.27621 10.787 2.13626C10.8727 1.99632 10.9941 1.88922 11.1512 1.81354C11.3082 1.73786 11.5253 1.70073 11.8023 1.70073C12.0922 1.70073 12.3164 1.73643 12.4778 1.80783C12.6377 1.8778 12.7648 1.98775 12.8562 2.13484C12.949 2.28335 12.9947 2.44756 12.9947 2.63035C12.9947 2.82455 12.9419 3.01019 12.8362 3.18869C12.7305 3.36576 12.5392 3.55996 12.2593 3.77273C12.0936 3.89554 11.9837 3.98265 11.928 4.03263C11.8723 4.0826 11.8066 4.14686 11.7309 4.22683H13.0147V4.94796H13.0161ZM14.7797 4.34964H13.2846V3.61994L14.7797 1.6993H15.4951V3.66278H15.8664V4.34964H15.4951V4.94796H14.7797V4.34964ZM14.7797 3.66278V2.65462L13.99 3.66278H14.7797Z" fill="white"/>
</g>
</svg>
