<svg width="76" height="76" viewBox="0 0 76 76" fill="none" xmlns="http://www.w3.org/2000/svg">
<g id="Group 110">
<g id="Rectangle 14" filter="url(#filter0_d_173_255)">
<rect x="10" y="6" width="56" height="56" rx="28" fill="white" fill-opacity="0.1" shape-rendering="crispEdges"/>
<rect x="10.5" y="6.5" width="55" height="55" rx="27.5" stroke="url(#paint0_linear_173_255)" shape-rendering="crispEdges"/>
</g>
<path id="Vector" d="M49.3032 32.6567C49.3032 34.0347 49.0894 35.2988 48.6665 36.4429C48.2384 37.5921 47.6317 38.4825 46.8557 39.1145C46.0792 39.7461 45.1837 40.0598 44.1737 40.0598C43.3382 40.0598 42.6367 39.8061 42.0595 39.3035C41.4875 38.7962 41.149 38.1491 41.0397 37.3633H40.9253C40.5371 38.2091 39.9801 38.8707 39.2533 39.3485C38.5322 39.8207 37.6718 40.0598 36.6815 40.0598C35.2238 40.0598 34.0844 39.5618 33.2634 38.5673C32.4429 37.5719 32.0345 36.2192 32.0345 34.5073C32.0345 32.5273 32.607 30.9153 33.751 29.6765C34.9002 28.4377 36.4077 27.8207 38.2734 27.8207C38.9303 27.8207 39.6814 27.8807 40.5174 28.0049C41.3529 28.1245 42.1046 28.2938 42.776 28.5076L42.4126 35.3532V35.6716C42.4126 37.4026 43.0597 38.2687 44.3481 38.2687C45.2339 38.2687 45.955 37.7463 46.5073 36.7012C47.0597 35.6565 47.3382 34.2987 47.3382 32.6271C47.3382 30.8655 46.98 29.3286 46.2584 28.0049C45.5419 26.6817 44.5174 25.6666 43.1886 24.9502C41.8654 24.2389 40.343 23.8807 38.6217 23.8807C36.4527 23.8807 34.5669 24.3284 32.9652 25.2287C31.363 26.1294 30.1393 27.4132 29.2934 29.0796C28.4475 30.746 28.0251 32.6717 28.0251 34.8604C28.0251 37.826 28.8058 40.1043 30.3732 41.7013C31.9355 43.2936 34.189 44.0893 37.134 44.0893C39.1741 44.0893 41.2934 43.6716 43.4873 42.8355V44.7758C41.6216 45.5921 39.507 46 37.134 46C33.6066 46 30.8707 45.0294 28.9202 43.0892C26.9701 41.1541 26 38.4426 26 34.9603C26 32.433 26.5176 30.1843 27.5571 28.2089C28.5971 26.2391 30.0797 24.7115 32.0049 23.627C33.9254 22.5425 36.1343 22 38.6217 22C40.7111 22 42.5669 22.4379 44.199 23.3185C45.8256 24.199 47.084 25.4477 47.9698 27.0648C48.8606 28.6815 49.3032 30.5472 49.3032 32.6567ZM34.2335 34.5673C34.2335 37.0346 35.1792 38.2687 37.0744 38.2687C39.0892 38.2687 40.1789 36.7462 40.3533 33.7065L40.562 29.9053C39.8605 29.7112 39.0995 29.6118 38.2734 29.6118C37.0097 29.6118 36.0199 30.0497 35.3035 30.9256C34.5917 31.7958 34.2335 33.0149 34.2335 34.5673Z" fill="white"/>
</g>
<defs>
<filter id="filter0_d_173_255" x="0" y="0" width="76" height="76" filterUnits="userSpaceOnUse" color-interpolation-filters="sRGB">
<feFlood flood-opacity="0" result="BackgroundImageFix"/>
<feColorMatrix in="SourceAlpha" type="matrix" values="0 0 0 0 0 0 0 0 0 0 0 0 0 0 0 0 0 0 127 0" result="hardAlpha"/>
<feOffset dy="4"/>
<feGaussianBlur stdDeviation="5"/>
<feComposite in2="hardAlpha" operator="out"/>
<feColorMatrix type="matrix" values="0 0 0 0 0 0 0 0 0 0 0 0 0 0 0 0 0 0 0.25 0"/>
<feBlend mode="normal" in2="BackgroundImageFix" result="effect1_dropShadow_173_255"/>
<feBlend mode="normal" in="SourceGraphic" in2="effect1_dropShadow_173_255" result="shape"/>
</filter>
<linearGradient id="paint0_linear_173_255" x1="38" y1="6" x2="38" y2="62" gradientUnits="userSpaceOnUse">
<stop stop-color="white" stop-opacity="0.2"/>
<stop offset="1" stop-color="white" stop-opacity="0.1"/>
</linearGradient>
</defs>
</svg>
