<svg width="28" height="28" viewBox="0 0 28 28" fill="none" xmlns="http://www.w3.org/2000/svg">
<path d="M28 14.0515C28 6.29105 21.732 0 14 0C6.26801 0 0 6.29105 0 14.0515C0 20.6413 4.52003 26.1707 10.618 27.6891V18.3453H7.73101V14.0515H10.618V12.2012C10.618 7.41857 12.7744 5.20178 17.4526 5.20178C18.3396 5.20178 19.8699 5.37633 20.4961 5.55087V9.44335C20.1656 9.40849 19.5917 9.39098 18.8787 9.39098C16.5831 9.39098 15.6961 10.2638 15.6961 12.5329V14.0515H20.269L19.4834 18.3453H15.6961V28C22.6281 27.1597 28 21.2355 28 14.0515Z" fill="white"/>
</svg>
