<svg width="21" height="18" viewBox="0 0 21 18" fill="none" xmlns="http://www.w3.org/2000/svg">
<g id="Group">
<path id="Vector" fill-rule="evenodd" clip-rule="evenodd" d="M0.659093 7.31323H5.14486C5.5072 7.31323 5.80396 7.60999 5.80396 7.97397V16.7471C5.80396 17.1095 5.5072 17.4079 5.14486 17.4079H0.659093C0.296756 17.4079 0 17.1111 0 16.7471V7.97397C0 7.60999 0.296756 7.31323 0.659093 7.31323ZM10.3389 0.732138C10.6865 -1.03036 13.5721 0.592777 13.7623 3.43409C13.8196 4.30305 13.7295 5.31464 13.5163 6.44428H17.6398C19.3547 6.5115 20.8516 7.73951 19.7941 9.75614C20.0351 10.6349 20.0712 11.6662 19.417 12.0728C19.499 13.4599 19.1153 14.319 18.3972 14.9977C18.3497 15.6913 18.2021 16.3077 17.8677 16.7816C17.3135 17.5636 16.8643 17.3767 15.992 17.3767H9.02892C7.92552 17.3767 7.32381 17.0734 6.60241 16.1684V8.41336C8.67806 7.85264 9.78147 5.01297 10.3389 3.14881V0.732138Z" fill="white"/>
</g>
</svg>
