<svg width="21" height="20" viewBox="0 0 21 20" fill="none" xmlns="http://www.w3.org/2000/svg">
<g id="Group 39563">
<path id="Vector" fill-rule="evenodd" clip-rule="evenodd" d="M10.4678 1.23705L13.181 0.063783C13.5346 -0.0884509 13.9409 0.0502783 14.1304 0.374389L15.6188 2.90466L18.5026 3.55043C18.8787 3.63309 19.1263 3.9838 19.0907 4.35784L18.8075 7.27975L20.764 9.50023C21.0317 9.80429 21.0112 10.2634 20.7231 10.5425L18.8136 12.6976L19.0911 15.642C19.1279 16.0352 18.8566 16.3868 18.4748 16.4555L15.6376 17.0825L14.1308 19.6287C13.9282 19.9712 13.4969 20.0956 13.1458 19.9221L10.485 18.7628L7.77178 19.936C7.4182 20.0887 7.01184 19.9495 6.82237 19.6254L5.33399 17.0951L2.45014 16.4498C2.07406 16.3667 1.82648 16.016 1.86208 15.642L2.14527 12.7201L0.188736 10.5C-0.0793102 10.1955 -0.0584394 9.73636 0.229659 9.45726L2.13913 7.30226L1.86167 4.35784C1.82484 3.96457 2.09616 3.61304 2.47756 3.54429L5.31517 2.91776L6.82196 0.371524C7.02452 0.0285891 7.45585 -0.0954078 7.80697 0.0776968L10.4678 1.23705ZM12.2508 9.2727H8.82187V8.08225H9.82939V5.84212L8.70196 5.9301V4.75479L10.2415 4.37257H11.4021V8.08225H12.2508V9.2727ZM6.84897 12.8551H5.88564V14.0881H4.88261V10.7664H7.06176L6.92876 11.557H5.88564V12.0632H6.84897V12.8551ZM10.3569 14.0881H9.18731L8.75189 13.0998H8.40322V14.0881H7.46036V10.7664H9.13452C9.8961 10.7664 10.2771 11.1548 10.2771 11.9307C10.2771 12.4618 10.1122 12.813 9.78274 12.9828L10.3569 14.0881ZM8.40322 11.557V12.3415H8.76785C8.89512 12.3415 8.98801 12.328 9.04653 12.3014C9.10505 12.2748 9.13452 12.2138 9.13452 12.1181V11.7801C9.13452 11.6847 9.10383 11.6221 9.04653 11.5967C8.98965 11.5713 8.89307 11.557 8.76785 11.557H8.40322ZM12.9342 12.8342H11.8113V13.2979H13.1736V14.0881H10.8083V10.7664H13.147L13.014 11.557H11.8113V12.0632H12.9342V12.8342ZM15.8308 12.8342H14.7078V13.2979H16.0702V14.0881H13.7048V10.7664H16.0431L15.9106 11.557H14.7078V12.0632H15.8308V12.8342Z" fill="white"/>
<rect id="Rectangle 3505" x="4.33789" y="4.05132" width="12.0723" height="11.6631" fill="white"/>
</g>
</svg>
