<svg width="24" height="24" viewBox="0 0 24 24" fill="none" xmlns="http://www.w3.org/2000/svg">
<path fill-rule="evenodd" clip-rule="evenodd" d="M1.28728 17.3782C0.469079 15.7637 0 13.9418 0 12C0 10.0582 0.469079 8.23638 1.28728 6.62181C3.2618 2.69457 7.30909 0 12 0C15.24 0 17.9455 1.18908 20.0291 3.13093L16.5927 6.56729C15.3382 5.38909 13.7673 4.77817 12 4.77817C8.88002 4.77817 6.22909 6.88365 5.28001 9.72002C5.04001 10.44 4.89817 11.2036 4.89817 12C4.89817 12.7964 5.04001 13.56 5.28001 14.28L5.26581 14.2909H5.28001C6.22909 17.1273 8.88002 19.2328 12 19.2328C13.6145 19.2328 14.9782 18.7963 16.0473 18.0763C17.3237 17.2255 18.1746 15.96 18.4582 14.4655H12V9.81818H23.3018C23.4436 10.6037 23.52 11.4218 23.52 12.2727C23.52 15.9273 22.2109 19.0036 19.9418 21.0982C17.9564 22.9309 15.24 24 12 24C7.30909 24 3.2618 21.3055 1.28728 17.3891V17.3782Z" fill="white"/>
</svg>
