<svg width="23" height="28" viewBox="0 0 23 28" fill="none" xmlns="http://www.w3.org/2000/svg">
<path d="M22.5131 6.20619C22.3639 4.32989 20.8731 2.8866 18.9349 2.59794C18.1894 2.59794 17.4439 2.45361 16.6984 2.45361L15.953 1.15464C15.5058 0.432992 14.6112 0 13.7166 0H9.39292C8.49832 0 7.75285 0.432992 7.15647 1.15464L6.26191 2.45361C5.51645 2.45361 4.77098 2.59794 4.02552 2.59794C2.08731 2.74226 0.596376 4.32989 0.447279 6.20619C0.149098 8.94845 0 12.9896 0 15.8763C0 18.7629 0.298181 21.9381 0.447279 24.1031C0.596376 25.9794 2.08731 27.4226 4.02552 27.567C6.11283 27.7113 9.24385 28 11.4802 28C13.7166 28 16.8475 27.7113 18.9349 27.567C20.8731 27.4226 22.3639 25.9794 22.5131 24.1031C22.6622 21.9381 22.9603 18.6186 22.9603 15.8763C23.1094 12.9896 22.8113 8.94845 22.5131 6.20619ZM7.90194 3.8969C8.05104 3.8969 8.05104 3.8969 7.90194 3.8969L8.94557 2.16495C8.94557 2.02062 9.09464 2.02062 9.24385 2.02062H13.5674C13.7166 2.02062 13.7166 2.02062 13.8657 2.16495L14.9093 3.8969V4.04124C15.0584 4.18557 14.9093 4.47423 14.9093 4.61856C14.9093 4.76288 14.7603 4.76288 14.6112 4.76288H8.34922C8.20013 4.76288 8.20013 4.76288 8.05104 4.61856C7.90195 4.32989 7.90194 4.18557 7.90194 3.8969ZM16.6984 13.2783L10.7347 19.0515C10.4365 19.1958 10.2875 19.3402 9.9892 19.3402C9.69106 19.3402 9.39292 19.1958 9.24385 19.0515L6.26191 16.165C5.81464 15.7319 5.81464 15.0102 6.26191 14.5774C6.70919 14.1443 7.45467 14.1443 7.90194 14.5774L10.1384 16.7423L15.3565 11.6907C15.8039 11.2577 16.5494 11.2577 16.9966 11.6907C17.1458 12.2681 17.1458 12.8454 16.6984 13.2783Z" fill="white"/>
</svg>
