<svg width="28" height="28" viewBox="0 0 28 28" fill="none" xmlns="http://www.w3.org/2000/svg">
<path fill-rule="evenodd" clip-rule="evenodd" d="M0.72688 8.15184C8.34465e-08 9.47979 0 11.0817 0 14.2855V16.415C0 21.8761 1.66893e-07 24.6068 1.6402 26.3033C3.28041 28 5.92026 28 11.2 28H16.8C22.0797 28 24.7197 28 26.3598 26.3033C28 24.6068 28 21.8761 28 16.415V14.2855C28 11.0817 28 9.47979 27.2731 8.15184C26.5462 6.82389 25.2183 5.99971 22.5624 4.35137L19.7624 2.61362C16.9548 0.871206 15.5511 0 14 0C12.4489 0 11.0451 0.871206 8.23764 2.61362L5.43764 4.35138C2.78173 5.99971 1.45376 6.82389 0.72688 8.15184ZM9.8 21.35C9.22011 21.35 8.75 21.8201 8.75 22.4C8.75 22.9799 9.22011 23.45 9.8 23.45H18.2C18.7799 23.45 19.25 22.9799 19.25 22.4C19.25 21.8201 18.7799 21.35 18.2 21.35H9.8Z" fill="white"/>
</svg>
