<svg width="295" height="300" viewBox="0 0 295 300" fill="none" xmlns="http://www.w3.org/2000/svg">
<path d="M124.997 0.0266451C85.0416 0.732395 23.2226 15.9242 5.42874 54.9645C-0.785976 68.5998 -0.365226 88.6452 0.476167 128.736C0.72356 140.52 1.1336 157.695 4.0137 179.005C9.99656 223.274 14.0694 253.41 29.4839 270.958C68.1079 314.927 207.627 313.657 267.206 234.497C299.706 191.315 304.706 129.887 274.989 79.1199C242.27 23.2261 178.488 -0.918247 124.997 0.0266451Z" fill="#F4F7FA" fill-opacity="0.16"/>
<path d="M207.247 187.132L209.522 191.814C207.598 193.237 205.817 194.804 204.203 196.505L199.905 193.597C198.733 192.804 197.139 193.123 196.346 194.311L191.38 201.745C190.585 202.935 190.89 204.547 192.062 205.344L196.403 208.297C195.451 210.472 194.683 212.727 194.113 215.037L188.866 214.678C187.451 214.581 186.22 215.666 186.116 217.102L185.464 226.097C185.359 227.538 186.424 228.787 187.842 228.886L193.109 229.254C193.349 231.604 193.801 233.952 194.455 236.278L189.677 238.649C188.394 239.286 187.857 240.86 188.478 242.166L192.368 250.348C192.991 251.659 194.54 252.205 195.827 251.567L200.619 249.189C202.02 251.163 203.565 252.992 205.247 254.653L202.27 259.15C201.467 260.362 201.779 262.012 202.968 262.834L210.418 267.983C211.611 268.808 213.231 268.491 214.034 267.273L217.008 262.766C219.183 263.761 221.44 264.56 223.751 265.159L223.397 270.587C223.301 272.056 224.391 273.335 225.832 273.442L234.85 274.112C236.294 274.219 237.539 273.112 237.631 271.64L237.969 266.258C240.33 266.018 242.687 265.553 245.019 264.88L247.376 269.732C248.022 271.061 249.597 271.616 250.895 270.972L259.011 266.945C260.308 266.301 260.834 264.703 260.184 263.377L257.832 258.57C259.801 257.122 261.619 255.522 263.264 253.784L267.63 256.754C268.843 257.579 270.472 257.259 271.269 256.04L276.247 248.424C277.042 247.208 276.703 245.557 275.491 244.736L271.144 241.795C272.107 239.56 272.871 237.242 273.431 234.87L278.604 235.232C280.05 235.333 281.287 234.233 281.368 232.776L281.871 223.68C281.951 222.228 280.847 220.971 279.405 220.873L274.283 220.522C274.007 218.125 273.507 215.734 272.799 213.371L277.382 211.096C278.669 210.458 279.186 208.887 278.536 207.588L274.486 199.486C273.839 198.193 272.275 197.661 270.993 198.298L266.423 200.566C264.972 198.59 263.376 196.766 261.644 195.118L264.445 190.872C265.233 189.679 264.902 188.066 263.707 187.27L256.246 182.301C255.055 181.508 253.451 181.83 252.664 183.019L249.843 187.282C247.651 186.322 245.383 185.554 243.063 184.993L243.384 179.877C243.473 178.453 242.394 177.225 240.974 177.134L232.105 176.566C230.689 176.475 229.465 177.553 229.372 178.974L229.038 184.106C226.708 184.369 224.383 184.848 222.085 185.534L219.814 180.895C219.19 179.619 217.652 179.096 216.38 179.727L208.426 183.675C207.154 184.306 206.626 185.854 207.247 187.132ZM210.079 236.499C203.756 223.354 209.119 207.566 222.023 201.163C234.926 194.76 250.598 200.111 257.061 213.185C263.564 226.338 258.289 242.307 245.244 248.78C232.199 255.253 216.439 249.722 210.079 236.499Z" fill="#D8DEE8"/>
<path d="M146.813 46.9541C103.053 46.6755 68.426 96.2702 68.426 157.72C68.426 219.17 103.053 271.612 146.813 274.931C191.772 278.34 229.133 228.86 229.133 164.326C229.133 99.7929 191.772 47.2403 146.813 46.9541ZM151.19 269.168C151.189 269.168 151.188 269.168 151.187 269.168C149.886 269.168 148.566 269.117 147.261 269.019C128.008 267.558 109.854 255.419 96.1434 234.837C82.0926 213.745 74.3546 186.358 74.3546 157.72C74.3546 129.222 82.0214 102.601 95.943 82.7614C109.464 63.4931 127.399 52.8815 146.446 52.8815L146.775 52.8826C156.682 52.9457 166.368 55.813 175.562 61.4046C184.653 66.934 192.871 74.8595 199.985 84.9614C207.222 95.2364 212.918 107.196 216.915 120.507C221.088 134.408 223.204 149.151 223.204 164.326C223.204 193.152 215.476 219.918 201.444 239.692C187.956 258.7 170.109 269.168 151.19 269.168Z" fill="url(#paint0_linear_36_882)"/>
<path d="M71.1788 157.72C71.1788 100.591 101.108 53.7078 140.48 47.6216C137.714 47.1982 89.9818 46.9721 87.1479 46.954C43.388 46.6754 8.76099 96.2701 8.76099 157.72C8.76099 219.17 43.3879 271.611 87.1479 274.93C91.5934 275.268 140.893 275.086 145.161 274.425C103.505 268.054 71.1788 217.093 71.1788 157.72Z" fill="url(#paint1_linear_36_882)"/>
<path d="M85.7475 46.8165C96.4187 49.7039 117.803 57.1001 136.154 76.4861C162.56 104.381 161.662 136.905 162.542 151.258C163.258 162.935 170.026 224.224 126.965 255.828C110.167 268.157 92.5405 271.777 82.2021 273.023C90.5841 273.659 138.431 274.295 146.813 274.93C156.72 273.446 170.959 269.862 184.808 260.275C232.486 227.268 226.387 157.131 225.42 147.63C223.95 133.195 220.063 95.012 188.662 68.1859C173.262 55.0298 156.949 49.4776 146.813 46.9541C139.613 46.9082 92.9477 46.8624 85.7475 46.8165Z" fill="url(#paint2_linear_36_882)"/>
<path d="M84.4214 46.7328C41.1008 46.4582 6.81836 95.8635 6.81836 157.076C6.81836 218.289 41.1007 270.516 84.4214 273.807C128.924 277.188 165.902 227.895 165.902 163.623C165.902 99.3517 128.924 47.0149 84.4214 46.7328ZM88.7394 268.042C88.7361 268.042 88.7358 268.042 88.7324 268.042C87.4513 268.042 86.1518 267.993 84.8705 267.895C65.8354 266.449 47.882 254.372 34.3178 233.889C20.4077 212.883 12.7471 185.604 12.7471 157.076C12.7471 128.687 20.3379 102.168 34.1211 82.4036C47.4974 63.2233 65.2334 52.6602 84.0619 52.6602L84.3837 52.6612C94.1736 52.7233 103.745 55.5742 112.833 61.1348C121.825 66.637 129.954 74.5258 136.993 84.5817C144.155 94.8133 149.792 106.723 153.748 119.979C157.879 133.825 159.973 148.509 159.973 163.623C159.973 192.34 152.323 219.004 138.431 238.703C125.09 257.622 107.441 268.042 88.7394 268.042Z" fill="url(#paint3_linear_36_882)"/>
<path d="M220.807 82.5613L145.529 81.8933C138.166 81.828 132.125 87.8659 132.125 95.3801V217.397C132.125 224.912 135.064 228.964 145.529 230.945L153.792 231.497C160.103 230.697 232.178 215.072 232.178 208.231V95.0494C232.178 88.2081 227.118 82.6172 220.807 82.5613Z" fill="url(#paint4_linear_36_882)"/>
<path d="M230.561 82.5603L155.491 81.8932C148.149 81.828 142.124 87.8573 142.124 95.361V219.5C142.124 227.004 148.149 232.323 155.491 231.391L230.561 221.87C236.856 221.072 241.902 214.893 241.902 208.061V95.0317C241.902 88.1996 236.856 82.6162 230.561 82.5603Z" fill="url(#paint5_linear_36_882)"/>
<path d="M230.561 88.8147L155.491 88.6051C151.838 88.5949 148.848 91.6155 148.848 95.3388V218.73C148.848 222.453 151.838 225.121 155.491 224.68L230.561 215.616C233.713 215.235 236.263 212.137 236.263 208.708V95.0503C236.263 91.6206 233.713 88.8236 230.561 88.8147Z" fill="#D8DEE8"/>
<g opacity="0.5">
<path d="M183.883 161.785C174.844 135.369 190.261 119.117 182.02 93.272C180.736 89.2462 179.05 85.5275 177.073 82.0851L155.491 81.8932C148.148 81.8281 142.124 87.8573 142.124 95.361V219.5C142.124 227.004 148.148 232.323 155.491 231.391L226.942 222.329C224.502 214.113 221.236 207.634 217.81 202.45C205.146 183.287 191.213 183.208 183.883 161.785Z" fill="white"/>
</g>
<path d="M229.133 94.2929V156.666L154.196 160.401V94.2929H229.133Z" fill="white"/>
<path d="M172.298 218.982C173.28 218.982 230.552 212.916 230.552 212.916V168.255L172.298 173.164V218.982Z" fill="white"/>
<path d="M287.873 48.0981V96.6513C287.873 101.544 285.864 105.925 282.632 109.104C279.468 112.216 275.127 114.092 270.339 114.092H211.288C201.607 114.092 193.939 106.332 193.939 96.6513V48.0981C193.939 42.2455 196.718 37.0149 201.123 33.8319C204.006 31.7472 207.46 30.4724 211.288 30.4724H270.339C280.02 30.4724 287.873 38.4175 287.873 48.0981Z" fill="url(#paint6_linear_36_882)"/>
<path d="M247.197 103.4L217.462 133.177C216.814 133.825 215.776 134.02 214.925 133.668C214.077 133.319 213.463 132.491 213.463 131.572V100.682L247.197 103.4Z" fill="url(#paint7_linear_36_882)"/>
<path d="M257.764 72.4242L247.578 43.3652H233.983L226.807 63.9733L215.472 96.4102H227.451L231.257 83.149H250.374L254.176 96.4102H266.159L257.764 72.4242ZM234.054 74.3082C235.081 70.9929 235.996 67.9763 236.802 65.333C238.917 58.3818 240.263 53.7856 240.832 51.5697C241.024 52.4283 241.342 53.5963 241.785 55.0773C242.126 56.2171 243.367 60.2668 245.515 67.1915C246.168 69.2912 246.903 71.7296 247.72 74.3082H234.054Z" fill="white"/>
<path opacity="0.3" d="M282.63 109.104C279.465 112.216 275.127 114.092 270.339 114.092H236.502L217.505 133.133C216.856 133.782 215.797 133.999 214.946 133.646C214.098 133.297 213.463 132.491 213.463 131.572V114.092H211.288C201.608 114.092 193.939 106.332 193.939 96.6514V48.0982C193.939 42.2456 196.718 37.0639 201.123 33.881C200.659 44.1389 202.871 60.9506 222.101 63.2416C223.736 63.4366 225.295 63.6315 226.829 63.8302C230.424 64.2913 233.739 64.7749 236.813 65.3112C239.981 65.8622 242.878 66.4696 245.521 67.167C250.47 68.4718 254.524 70.0991 257.767 72.2811C262.69 75.5953 265.748 80.1703 267.248 86.8814C269.883 98.6766 274.186 105.861 282.63 109.104Z" fill="url(#paint8_linear_36_882)"/>
<path d="M208.674 116.335V164.888C208.674 169.402 207.01 173.615 204.205 176.723C200.999 180.278 196.396 182.609 191.229 182.609H132.178C122.498 182.609 114.372 174.569 114.372 164.888V116.335C114.372 110.164 117.701 104.826 122.523 101.702C125.264 99.929 128.669 98.9888 132.178 98.9888H191.229C200.91 98.9888 208.674 106.654 208.674 116.335Z" fill="url(#paint9_linear_36_882)"/>
<path d="M188.782 168.754V199.644C188.782 200.562 188.283 201.387 187.436 201.74C186.584 202.092 185.636 201.897 184.987 201.249L155.171 171.472L188.782 168.754Z" fill="url(#paint10_linear_36_882)"/>
<path d="M187.309 121.091H136.105V129.195H187.309V121.091Z" fill="white"/>
<path d="M184.118 168.238C166.016 164.043 156.227 152.638 151.203 143.809C145.803 134.319 144.652 125.807 144.605 125.449L152.617 124.411L148.611 124.93L152.615 124.401C152.625 124.475 153.671 131.929 158.371 140.069C164.522 150.724 173.798 157.554 185.942 160.367L184.118 168.238Z" fill="white"/>
<path d="M139.424 168.238L137.601 160.367C149.745 157.554 159.021 150.724 165.172 140.069C169.872 131.929 170.917 124.475 170.928 124.401L178.938 125.449C178.891 125.807 177.74 134.319 172.34 143.809C167.316 152.638 157.527 164.043 139.424 168.238Z" fill="white"/>
<path d="M165.575 112.987H157.839V124.775H165.575V112.987Z" fill="white"/>
<path opacity="0.3" d="M204.247 176.723C201.041 180.278 196.396 182.609 191.229 182.609H188.782V199.644C188.782 200.562 188.283 201.387 187.436 201.74C186.584 202.092 185.636 201.993 184.987 201.345L166.18 182.609H132.178C122.498 182.609 114.372 174.569 114.372 164.888V116.335C114.372 110.164 117.701 104.735 122.523 101.612C122.171 110.306 123.883 123.504 135.952 128.738C136.308 128.891 136.703 129.038 137.078 129.176C139.012 129.904 141.215 130.436 143.678 130.729C144.402 130.815 145.123 130.901 145.824 130.987C148.974 131.373 151.936 131.767 154.711 132.191C159.641 132.944 163.985 133.784 167.787 134.823C170.629 135.599 173.164 136.491 175.414 137.541C182.721 140.941 187.015 146.07 188.886 154.438C191.518 166.222 195.815 173.476 204.247 176.723Z" fill="url(#paint11_linear_36_882)"/>
<path d="M121.931 159.261L167.134 122.172L167.371 122.287L122.523 160.278L121.931 159.261Z" fill="url(#paint12_linear_36_882)"/>
<path d="M119.17 161.727L120.94 159.794L121.861 157.663C122.02 157.295 122.273 156.975 122.596 156.736L123.124 156.344C123.428 156.119 123.795 155.998 124.173 155.998H125.908C125.908 155.998 125.606 156.563 125.114 156.65C124.621 156.736 123.592 157.898 123.592 157.898L123.452 159.261L125.421 157.824L127.519 155.412V156.751C127.519 157.209 127.354 157.651 127.055 157.998L125.352 159.968C124.932 160.454 124.354 160.777 123.719 160.879L123.299 160.947C122.426 161.087 121.649 161.58 121.149 162.311L119.952 164.062L119.17 161.727Z" fill="url(#paint13_linear_36_882)"/>
<path d="M23.6387 225.948C23.6387 225.948 23.1481 228.255 22.721 230.198C22.2939 232.141 20.5854 233.631 19.838 235.182C19.0906 236.732 18.7548 234.917 18.5491 233.796C18.3431 232.675 18.5491 230.36 19.474 229.568C20.3991 228.775 21.1022 228.083 21.0574 227.923C21.0126 227.763 21.6514 225.094 21.6514 225.094L23.6387 225.948Z" fill="url(#paint14_linear_36_882)"/>
<path d="M44.1442 295.3C44.0276 294.82 44.1058 294.177 44.5248 293.746C45.0897 293.165 46.0352 293.214 46.6289 293.483C46.9749 293.639 47.2439 293.89 48.1943 295.872C49.1988 297.966 49.1944 298.304 49.0328 298.495C48.7042 298.884 47.7824 298.597 47.5839 298.535C46.9234 298.33 46.7622 298.017 45.4017 296.743C44.4794 295.879 44.2505 295.739 44.1442 295.3Z" fill="url(#paint15_linear_36_882)"/>
<path d="M44.7866 292.026L45.0169 294.454C45.5698 294.742 45.9131 294.719 46.0939 294.454L46.558 292.026H44.7866Z" fill="url(#paint16_linear_36_882)"/>
<path d="M68.0026 294.997C67.6776 294.624 67.4508 294.018 67.6239 293.442C67.8573 292.666 68.7189 292.274 69.3697 292.239C69.7489 292.218 70.1031 292.317 71.8602 293.637C73.7169 295.033 73.8689 295.335 73.8135 295.579C73.701 296.075 72.7508 296.246 72.546 296.282C71.8654 296.405 71.5777 296.201 69.7833 295.698C68.5669 295.356 68.2992 295.337 68.0026 294.997Z" fill="url(#paint17_linear_36_882)"/>
<path d="M68.1641 290.942L68.3943 293.37C68.9472 293.658 69.2906 293.635 69.4713 293.37L69.9355 290.942H68.1641Z" fill="url(#paint18_linear_36_882)"/>
<path d="M44.1653 292.501C45.0388 292.554 45.9124 292.607 46.7859 292.66C48.6356 283.637 50.6664 274.403 52.8968 264.973C55.3414 254.637 57.8955 244.617 60.5278 234.922C61.3622 238.612 62.1879 242.929 62.8384 247.781C63.8038 254.983 63.9993 260.501 64.0459 262.029C64.2841 269.841 63.6032 270.764 63.9251 275.641C64.1782 279.476 65.0088 285.11 67.7891 291.953C68.6218 291.902 69.4546 291.852 70.2873 291.802C72.1099 282.986 73.6717 272.271 74.1131 260.034C74.6543 245.027 73.3554 232.023 71.6531 221.768C64.0862 222.003 56.5193 222.239 48.9524 222.473C46.5904 227.747 45.5142 232.257 44.9688 235.428C43.8726 241.801 44.5448 244.945 43.7199 255.803C43.2936 261.414 42.9824 262.304 42.6734 266.031C42.1614 272.202 42.0725 281.115 44.1653 292.501Z" fill="url(#paint19_linear_36_882)"/>
<path opacity="0.3" d="M49.1938 270.964C49.8842 263.628 47.237 263.779 48.4694 257.44C49.6033 251.609 52.0083 250.637 53.7823 243.192C55.2062 237.217 54.1185 235.906 55.2313 233.291C56.6061 230.06 60.6215 226.533 72.1638 225.034C71.9984 223.919 71.8286 222.826 71.6531 221.768C64.0862 222.003 56.5193 222.238 48.9524 222.473C46.5904 227.747 45.5142 232.257 44.9688 235.428C43.8727 241.801 44.5448 244.945 43.7199 255.803C43.2936 261.414 42.9827 262.304 42.6734 266.03C42.1614 272.202 42.0725 281.115 44.1653 292.501C45.0388 292.554 45.9125 292.606 46.7859 292.659C46.8397 292.397 46.8971 292.131 46.9513 291.868C46.5103 291.153 46.1093 290.35 45.8128 289.439C43.8969 283.552 48.3312 280.134 49.1938 270.964Z" fill="url(#paint20_linear_36_882)"/>
<path d="M20.5766 226.408C21.7035 226.61 22.8305 226.81 23.9575 227.012C24.6536 224.904 25.6637 221.725 26.7521 217.811C27.9964 213.336 28.6354 210.443 28.908 209.383C29.9927 205.162 33.1646 199.24 42.513 192.032C42.4201 196.618 42.3482 200.391 42.2997 202.983C41.9109 223.781 41.9333 227.557 44.696 229.631C47.0982 231.434 48.425 229.588 59.337 229.796C69.2887 229.985 71.3834 231.58 73.9105 229.753C78.0117 226.788 76.4187 219.748 76.4829 210.952C76.536 203.694 77.7307 193.424 83.0033 180.886C86.8854 181.263 93.3772 181.366 100.753 178.833C112.209 174.9 118.718 167.043 121.16 163.74C120.355 162.653 119.55 161.566 118.745 160.48C114.626 162.278 108.259 164.651 100.222 165.965C86.2884 168.241 79.8827 165.282 66.9438 165.792C59.4918 166.087 44.2717 166.688 33.9794 174.486C15.052 188.828 19.8975 222.124 20.5766 226.408Z" fill="url(#paint21_linear_36_882)"/>
<path opacity="0.3" d="M56.6803 223.993C56.1042 220.781 57.8344 219.428 56.9218 215.782C55.6339 210.638 51.5039 210.598 50.5221 206.243C49.5858 202.09 53.0528 200.843 53.9031 194.289C54.528 189.47 53.6453 182.505 50.4014 181.369C46.3657 179.956 40.4345 188.183 39.7754 189.097C37.4952 192.259 36.1702 195.525 35.3948 198.443C37.2411 196.442 39.57 194.301 42.513 192.031C42.4201 196.618 42.3482 200.39 42.2997 202.983C41.911 223.781 41.9334 227.557 44.6961 229.63C47.0982 231.434 48.4251 229.588 59.337 229.796C59.649 229.802 59.931 229.813 60.2278 229.821C57.8704 227.663 56.976 225.643 56.6803 223.993Z" fill="url(#paint22_linear_36_882)"/>
<path d="M60.0194 159.84C60.0194 159.84 59.6825 162.52 58.6863 164.467C57.786 166.227 53.7263 167.053 52.8896 167.395C52.0527 167.737 54.2688 169.109 56.5711 169.529C58.8734 169.948 65.544 169.952 66.8092 169.168C68.0746 168.384 65.9143 168.277 64.3064 167.537C62.6984 166.796 62.0002 163.479 62.4105 162.032C62.8206 160.585 60.0194 159.84 60.0194 159.84Z" fill="url(#paint23_linear_36_882)"/>
<path d="M64.3028 158.846C64.8491 157.922 64.5007 156.247 63.4306 155.527C62.6367 154.992 61.7265 155.172 61.0633 155.304C60.7563 155.365 58.6004 155.819 58.1067 157.418C57.9498 157.926 58.0147 158.598 58.2444 159.118C58.3628 159.386 58.5833 159.715 59.0681 160.34C59.4984 160.895 59.4703 160.877 59.6018 161.038C59.9173 161.425 60.5212 162.072 61.6036 162.802C61.6461 162.505 61.7186 162.136 61.8512 161.731C61.9022 161.575 62.1089 160.965 62.4597 160.442C63.1721 159.38 63.8757 159.568 64.3028 158.846Z" fill="url(#paint24_linear_36_882)"/>
<path d="M60.2318 162.101C60.2318 162.101 61.3957 163.653 63.3842 163.33C65.1647 163.041 65.0403 158.997 63.8139 158.255C63.4048 158.007 62.6287 157.963 62.0237 158.197C61.6662 158.335 61.5567 158.5 60.9685 158.714C60.4259 158.912 60.2627 158.866 60.1084 159.023C59.9153 159.22 59.8032 159.669 60.2671 160.81C59.892 160.496 59.4689 160.403 59.1914 160.568C59.1473 160.594 59.0322 160.69 58.9752 160.823C58.7688 161.307 59.2443 161.852 60.2318 162.101Z" fill="url(#paint25_linear_36_882)"/>
<path d="M59.8276 159.815C59.8276 159.815 60.5865 161.221 61.0088 161.553C61.4312 161.884 62.3829 162.087 63.3067 161.583C64.2306 161.078 64.7431 160.606 64.7431 160.606C64.7431 160.606 65.1212 162.554 64.8912 162.795C64.6612 163.036 62.9577 164.079 62.4683 164.005C61.9787 163.931 60.7835 162.967 60.5068 162.37C60.2302 161.773 59.8971 160.222 59.8971 160.222L59.8276 159.815Z" fill="url(#paint26_linear_36_882)"/>
<path d="M191.836 6.18855L185.347 16.7099L184.361 18.3063C184.361 18.3063 183.943 18.1669 183.159 17.9093C182.769 17.769 182.277 17.6303 181.702 17.461C181.128 17.2793 180.459 17.1153 179.706 16.9222C178.203 16.5573 176.356 16.1533 174.201 15.8667C172.05 15.5799 169.594 15.3768 166.899 15.3988C164.206 15.417 161.279 15.6512 158.211 16.1725C156.681 16.4615 155.108 16.7715 153.529 17.2164C153.331 17.2679 153.13 17.3211 152.932 17.3725C152.733 17.4312 152.535 17.4932 152.337 17.5517C151.94 17.6724 151.54 17.7931 151.138 17.9121C150.348 18.1906 149.533 18.4396 148.739 18.7554C145.528 19.9489 142.326 21.5307 139.241 23.4504C137.702 24.4156 136.203 25.4804 134.736 26.6044L133.657 27.4803C133.479 27.6268 133.289 27.772 133.12 27.9165L132.613 28.3585L132.103 28.799C131.935 28.9469 131.77 29.0841 131.583 29.2665L130.493 30.2937L130.356 30.4227L130.191 30.3958L130.075 30.3226L130.06 30.3391L129.925 30.659L129.478 31.2023C129.15 31.5334 128.838 31.8835 128.527 32.2318L127.586 33.2706C127.281 33.6275 126.982 33.9863 126.678 34.3396C125.473 35.7665 124.327 37.242 123.288 38.7781L122.893 39.3526L122.519 39.9362C122.27 40.3247 122.017 40.712 121.775 41.1038C121.307 41.8976 120.826 42.6797 120.401 43.4897C119.95 44.2827 119.557 45.1024 119.148 45.91C118.953 46.3179 118.769 46.729 118.582 47.1366C118.488 47.3404 118.394 47.5443 118.3 47.7481C118.213 47.9552 118.129 48.1605 118.044 48.3657C117.331 50.0037 116.751 51.6637 116.219 53.3059C115.97 54.1326 115.716 54.9472 115.511 55.767C115.283 56.5822 115.108 57.3993 114.92 58.2044C114.218 61.4316 113.853 64.5579 113.706 67.4568C113.562 70.3607 113.661 73.0395 113.882 75.407C114.103 77.7744 114.455 79.825 114.79 81.5073C114.969 82.3452 115.124 83.0991 115.292 83.7353C115.455 84.3769 115.583 84.9241 115.722 85.375C115.79 85.6102 115.849 85.8158 115.9 85.9932C116.007 86.3672 115.84 86.7599 115.51 86.9455C115.465 86.972 115.418 86.9932 115.367 87.011L115.302 87.0328C114.881 87.1756 114.421 86.9632 114.259 86.5486C114.191 86.3788 114.113 86.1795 114.023 85.952C113.846 85.5237 113.654 84.961 113.425 84.3058C113.18 83.6494 112.95 82.8912 112.682 82.0421C112.171 80.3396 111.606 78.2452 111.139 75.796C110.677 73.3485 110.306 70.5464 110.167 67.4611C110.032 64.3791 110.103 61.013 110.53 57.4745C110.647 56.5904 110.754 55.6925 110.918 54.7908C111.056 53.8846 111.245 52.9748 111.434 52.0546C111.839 50.2217 112.302 48.3512 112.91 46.4845C112.983 46.2513 113.054 46.0163 113.129 45.7811C113.21 45.5477 113.29 45.3141 113.372 45.0825C113.536 44.6153 113.695 44.143 113.866 43.6757C114.231 42.7473 114.58 41.8018 114.996 40.8768C115.382 39.9386 115.829 39.0214 116.267 38.0904C116.494 37.6299 116.735 37.176 116.97 36.7134L117.329 36.0265L117.707 35.3477C118.705 33.5222 119.833 31.7503 121.036 30.0166C121.342 29.5852 121.649 29.1556 121.955 28.7242L122.917 27.4622C123.236 27.0358 123.576 26.6296 123.913 26.2202L124.419 25.6025L124.671 25.2954L124.968 24.962L125.956 23.8373C126.109 23.6544 126.306 23.4504 126.494 23.2522L127.062 22.6535L127.631 22.0566C127.821 21.8566 128.011 21.6811 128.201 21.4917C128.582 21.1197 128.962 20.7441 129.343 20.3722C130.902 18.922 132.514 17.5321 134.194 16.2427C137.555 13.6743 141.134 11.4637 144.792 9.69008C145.698 9.2283 146.63 8.83841 147.541 8.42259C148.002 8.2322 148.462 8.04373 148.922 7.85516C149.151 7.76355 149.382 7.67012 149.609 7.57691C149.84 7.49055 150.072 7.40784 150.303 7.32148C152.137 6.61369 153.979 6.05816 155.785 5.53948C159.409 4.56009 162.93 3.9392 166.21 3.60191C169.493 3.2627 172.535 3.22134 175.23 3.32184C177.925 3.42234 180.269 3.70038 182.195 3.97927C183.157 4.12755 184.017 4.25998 184.757 4.41437C185.5 4.55816 186.136 4.6773 186.644 4.80105C187.663 5.03387 191.836 6.18855 191.836 6.18855Z" fill="url(#paint27_linear_36_882)"/>
<path opacity="0.3" d="M184.968 16.3261C185.107 16.4452 185.234 16.5738 185.347 16.7099L184.361 18.3063C184.361 18.3063 183.943 18.1669 183.159 17.9093C182.769 17.769 182.278 17.6303 181.702 17.4611C181.128 17.2793 180.459 17.1153 179.707 16.9222C178.203 16.5573 176.356 16.1533 174.201 15.8667C172.05 15.58 169.595 15.3768 166.899 15.3988C164.206 15.417 161.279 15.6512 158.211 16.1726C156.681 16.4615 155.108 16.7715 153.529 17.2165C153.331 17.2679 153.13 17.3211 152.932 17.3726C152.733 17.4312 152.535 17.4932 152.337 17.5517C151.94 17.6724 151.54 17.7931 151.138 17.9121C150.348 18.1906 149.534 18.4396 148.739 18.7555C145.529 19.9489 142.326 21.5307 139.241 23.4504C137.702 24.4156 136.203 25.4804 134.736 26.6044L133.657 27.4803C133.479 27.6268 133.289 27.7721 133.12 27.9165L132.613 28.3586L132.104 28.799C131.935 28.9469 131.77 29.0841 131.583 29.2665L130.493 30.2937L130.356 30.4227L130.191 30.3958L130.075 30.3226L130.06 30.3391L129.925 30.659L129.478 31.2023C129.15 31.5334 128.838 31.8836 128.527 32.2318L127.586 33.2706C127.281 33.6275 126.983 33.9863 126.678 34.3396C125.473 35.7665 124.327 37.242 123.288 38.7781L122.893 39.3526L122.519 39.9362C122.27 40.3247 122.017 40.712 121.775 41.1038C121.307 41.8977 120.826 42.6797 120.401 43.4897C119.95 44.2828 119.557 45.1024 119.148 45.91C118.953 46.3179 118.769 46.729 118.582 47.1366C118.488 47.3404 118.394 47.5443 118.3 47.7481C118.214 47.9552 118.129 48.1605 118.044 48.3658C117.331 50.0038 116.751 51.6637 116.219 53.3059C115.97 54.1326 115.716 54.9472 115.511 55.767C115.283 56.5822 115.108 57.3993 114.92 58.2044C114.218 61.4316 113.853 64.5579 113.706 67.4568C113.562 70.3607 113.661 73.0395 113.882 75.407C114.104 77.7744 114.455 79.825 114.791 81.5073C114.969 82.3453 115.124 83.0991 115.292 83.7353C115.455 84.3769 115.583 84.9241 115.722 85.375C115.791 85.6102 115.849 85.8158 115.9 85.9933C116.007 86.3672 115.84 86.76 115.51 86.9455C113.873 81.0026 107.81 54.5384 123.565 35.0017C141.413 12.8707 173.203 6.15792 184.968 16.3261Z" fill="url(#paint28_linear_36_882)"/>
<path d="M195.264 2.48184L208.144 26.9395L174.122 21.8439L195.264 2.48184Z" fill="url(#paint29_linear_36_882)"/>
<path opacity="0.3" d="M195.264 2.48184L208.144 26.9395L174.122 21.8439L195.264 2.48184Z" fill="url(#paint30_linear_36_882)"/>
<path d="M196.459 1.1972L208.272 26.8019L175.421 20.6548L196.459 1.1972Z" fill="url(#paint31_linear_36_882)"/>
<path d="M221.958 197.402L226.148 188.056L226.785 186.638C226.785 186.638 227.143 186.707 227.816 186.834C228.151 186.907 228.57 186.967 229.061 187.044C229.552 187.131 230.12 187.193 230.758 187.27C232.033 187.407 233.593 187.539 235.395 187.541C237.193 187.543 239.232 187.444 241.443 187.133C243.653 186.827 246.032 186.317 248.496 185.556C249.721 185.153 250.979 184.728 252.228 184.191C252.385 184.127 252.544 184.062 252.702 183.998C252.858 183.929 253.014 183.856 253.171 183.787C253.484 183.644 253.799 183.502 254.117 183.361C254.736 183.046 255.377 182.753 255.995 182.408C258.503 181.08 260.962 179.433 263.288 177.522C264.448 176.562 265.563 175.525 266.647 174.443L267.438 173.607C267.568 173.467 267.708 173.327 267.831 173.19L268.2 172.772L268.571 172.355C268.693 172.215 268.814 172.085 268.948 171.915L269.732 170.953L269.831 170.832L270 170.858L270.134 170.928L270.145 170.913L270.19 170.613L270.482 170.108C270.716 169.8 270.927 169.473 271.144 169.153L271.801 168.195C272.012 167.869 272.217 167.541 272.429 167.217C273.264 165.915 274.044 164.578 274.731 163.204L274.993 162.689L275.237 162.168C275.399 161.822 275.565 161.477 275.721 161.129C276.02 160.426 276.33 159.731 276.591 159.02C276.875 158.32 277.109 157.604 277.358 156.896C277.473 156.54 277.58 156.182 277.69 155.827C277.745 155.65 277.8 155.472 277.855 155.295C277.904 155.115 277.951 154.937 277.998 154.759C278.407 153.337 278.703 151.91 278.961 150.504C279.076 149.798 279.197 149.101 279.277 148.406C279.376 147.711 279.43 147.021 279.497 146.34C279.724 143.613 279.686 141.005 279.492 138.608C279.296 136.207 278.924 134.018 278.485 132.097C278.047 130.177 277.536 128.531 277.078 127.185C276.84 126.516 276.631 125.914 276.424 125.41C276.221 124.9 276.056 124.465 275.894 124.109C275.812 123.923 275.741 123.761 275.68 123.621C275.552 123.325 275.646 122.985 275.897 122.796C275.932 122.77 275.968 122.747 276.008 122.727L276.059 122.702C276.389 122.539 276.79 122.664 276.968 122.987C277.042 123.119 277.128 123.274 277.226 123.451C277.418 123.784 277.637 124.225 277.896 124.738C278.169 125.251 278.439 125.849 278.751 126.517C279.356 127.86 280.047 129.519 280.696 131.48C281.341 133.441 281.95 135.702 282.398 138.221C282.843 140.738 283.15 143.51 283.182 146.463C283.182 147.202 283.192 147.951 283.155 148.71C283.139 149.469 283.083 150.237 283.027 151.013C282.894 152.562 282.716 154.149 282.419 155.748C282.384 155.948 282.351 156.148 282.315 156.349C282.274 156.55 282.233 156.751 282.191 156.95C282.107 157.351 282.028 157.756 281.938 158.159C281.739 158.961 281.555 159.775 281.313 160.58C281.097 161.393 280.83 162.194 280.571 163.007C280.435 163.409 280.286 163.808 280.143 164.214L279.923 164.817L279.686 165.416C279.064 167.023 278.329 168.601 277.529 170.155C277.325 170.543 277.119 170.929 276.915 171.316L276.261 172.457C276.046 172.842 275.81 173.212 275.578 173.585L275.229 174.147L275.056 174.427L274.848 174.733L274.158 175.764C274.052 175.931 273.912 176.119 273.78 176.303L273.378 176.856L272.975 177.408C272.841 177.593 272.704 177.758 272.568 177.934C272.296 178.281 272.024 178.63 271.752 178.977C270.628 180.337 269.455 181.654 268.215 182.895C265.733 185.369 263.033 187.573 260.22 189.426C259.526 189.903 258.803 190.325 258.1 190.765C257.741 190.971 257.384 191.176 257.027 191.381C256.848 191.481 256.669 191.582 256.492 191.684C256.312 191.78 256.131 191.873 255.951 191.969C254.521 192.749 253.068 193.405 251.641 194.027C248.77 195.224 245.946 196.116 243.288 196.748C240.629 197.383 238.134 197.746 235.91 197.956C233.685 198.166 231.729 198.191 230.117 198.171C229.311 198.154 228.591 198.138 227.966 198.091C227.34 198.054 226.805 198.025 226.374 197.978C225.511 197.898 221.958 197.402 221.958 197.402Z" fill="url(#paint32_linear_36_882)"/>
<path opacity="0.3" d="M226.501 188.33C226.374 188.248 226.256 188.156 226.148 188.056L226.785 186.638C226.785 186.638 227.144 186.707 227.816 186.834C228.151 186.907 228.57 186.968 229.061 187.044C229.552 187.131 230.12 187.193 230.758 187.271C232.033 187.407 233.593 187.539 235.395 187.541C237.193 187.543 239.232 187.444 241.443 187.133C243.653 186.827 246.032 186.317 248.496 185.556C249.721 185.153 250.979 184.728 252.228 184.191C252.385 184.127 252.544 184.062 252.702 183.998C252.858 183.929 253.014 183.856 253.171 183.787C253.484 183.644 253.799 183.502 254.117 183.361C254.736 183.046 255.377 182.753 255.995 182.408C258.503 181.08 260.962 179.433 263.288 177.522C264.448 176.562 265.563 175.525 266.647 174.443L267.438 173.607C267.568 173.467 267.708 173.327 267.831 173.19L268.2 172.772L268.571 172.355C268.693 172.215 268.814 172.085 268.948 171.915L269.732 170.953L269.831 170.832L270 170.858L270.134 170.928L270.145 170.913L270.19 170.613L270.482 170.108C270.716 169.8 270.927 169.473 271.144 169.153L271.801 168.195C272.012 167.869 272.217 167.541 272.429 167.217C273.264 165.915 274.044 164.578 274.731 163.204L274.993 162.689L275.237 162.168C275.399 161.822 275.565 161.477 275.721 161.129C276.02 160.426 276.33 159.731 276.591 159.02C276.875 158.32 277.109 157.604 277.358 156.896C277.474 156.54 277.58 156.182 277.69 155.827C277.745 155.65 277.8 155.472 277.855 155.295C277.904 155.115 277.951 154.937 277.999 154.759C278.407 153.337 278.703 151.91 278.962 150.504C279.076 149.798 279.197 149.101 279.277 148.406C279.376 147.711 279.43 147.021 279.497 146.34C279.724 143.613 279.686 141.005 279.492 138.608C279.296 136.207 278.924 134.018 278.485 132.097C278.047 130.177 277.536 128.531 277.078 127.185C276.84 126.516 276.631 125.914 276.424 125.41C276.221 124.9 276.056 124.465 275.894 124.109C275.812 123.924 275.741 123.761 275.68 123.621C275.552 123.325 275.646 122.985 275.897 122.796C277.886 127.5 285.735 148.58 274.912 166.335C262.651 186.447 237.267 195.407 226.501 188.33Z" fill="url(#paint33_linear_36_882)"/>
<path d="M219.546 200.818L206.315 182.125L234.811 182.623L219.546 200.818Z" fill="url(#paint34_linear_36_882)"/>
<path opacity="0.3" d="M219.546 200.818L206.315 182.125L234.811 182.623L219.546 200.818Z" fill="url(#paint35_linear_36_882)"/>
<path d="M218.702 202.003L206.224 182.252L233.874 183.74L218.702 202.003Z" fill="url(#paint36_linear_36_882)"/>
<defs>
<linearGradient id="paint0_linear_36_882" x1="68.426" y1="161.025" x2="229.133" y2="161.025" gradientUnits="userSpaceOnUse">
<stop stop-color="#AA80F9"/>
<stop offset="0.9964" stop-color="#6165D7"/>
</linearGradient>
<linearGradient id="paint1_linear_36_882" x1="8.76103" y1="161.024" x2="145.161" y2="161.024" gradientUnits="userSpaceOnUse">
<stop stop-color="#AA80F9"/>
<stop offset="0.9964" stop-color="#6165D7"/>
</linearGradient>
<linearGradient id="paint2_linear_36_882" x1="82.2021" y1="160.873" x2="226.189" y2="160.873" gradientUnits="userSpaceOnUse">
<stop stop-color="#AA80F9"/>
<stop offset="0.9964" stop-color="#6165D7"/>
</linearGradient>
<linearGradient id="paint3_linear_36_882" x1="123.402" y1="102.47" x2="-12.3266" y2="314.881" gradientUnits="userSpaceOnUse">
<stop stop-color="#FF9085"/>
<stop offset="1" stop-color="#FB6FBB"/>
</linearGradient>
<linearGradient id="paint4_linear_36_882" x1="291.715" y1="127.708" x2="180.434" y2="150.342" gradientUnits="userSpaceOnUse">
<stop stop-color="#FF9085"/>
<stop offset="1" stop-color="#FB6FBB"/>
</linearGradient>
<linearGradient id="paint5_linear_36_882" x1="102.428" y1="233.648" x2="236.727" y2="111.069" gradientUnits="userSpaceOnUse">
<stop stop-color="#AA80F9"/>
<stop offset="0.9964" stop-color="#6165D7"/>
</linearGradient>
<linearGradient id="paint6_linear_36_882" x1="237.328" y1="-68.0617" x2="243.328" y2="167.422" gradientUnits="userSpaceOnUse">
<stop stop-color="#FFC444"/>
<stop offset="0.9964" stop-color="#F36F56"/>
</linearGradient>
<linearGradient id="paint7_linear_36_882" x1="225.612" y1="-67.666" x2="231.611" y2="167.801" gradientUnits="userSpaceOnUse">
<stop stop-color="#FFC444"/>
<stop offset="0.9964" stop-color="#F36F56"/>
</linearGradient>
<linearGradient id="paint8_linear_36_882" x1="193.94" y1="83.8475" x2="282.63" y2="83.8475" gradientUnits="userSpaceOnUse">
<stop stop-color="#FFC444"/>
<stop offset="0.9964" stop-color="#F36F56"/>
</linearGradient>
<linearGradient id="paint9_linear_36_882" x1="163.803" y1="117.227" x2="146.93" y2="290.456" gradientUnits="userSpaceOnUse">
<stop offset="0.0036" stop-color="#E38DDD"/>
<stop offset="1" stop-color="#9571F6"/>
</linearGradient>
<linearGradient id="paint10_linear_36_882" x1="178.953" y1="113.995" x2="162.145" y2="286.563" gradientUnits="userSpaceOnUse">
<stop offset="0.0036" stop-color="#E38DDD"/>
<stop offset="1" stop-color="#9571F6"/>
</linearGradient>
<linearGradient id="paint11_linear_36_882" x1="114.372" y1="151.776" x2="204.247" y2="151.776" gradientUnits="userSpaceOnUse">
<stop offset="0.0036" stop-color="#E38DDD"/>
<stop offset="1" stop-color="#9571F6"/>
</linearGradient>
<linearGradient id="paint12_linear_36_882" x1="165.436" y1="115.831" x2="120.759" y2="169.444" gradientUnits="userSpaceOnUse">
<stop stop-color="#311944"/>
<stop offset="1" stop-color="#A03976"/>
</linearGradient>
<linearGradient id="paint13_linear_36_882" x1="128.323" y1="154.382" x2="105.864" y2="174.909" gradientUnits="userSpaceOnUse">
<stop stop-color="#FFC444"/>
<stop offset="0.9964" stop-color="#F36F56"/>
</linearGradient>
<linearGradient id="paint14_linear_36_882" x1="19.0317" y1="242.655" x2="24.3447" y2="207.154" gradientUnits="userSpaceOnUse">
<stop stop-color="#FFC444"/>
<stop offset="0.9964" stop-color="#F36F56"/>
</linearGradient>
<linearGradient id="paint15_linear_36_882" x1="47.9781" y1="304.703" x2="43.6312" y2="279.104" gradientUnits="userSpaceOnUse">
<stop stop-color="#AA80F9"/>
<stop offset="0.9964" stop-color="#6165D7"/>
</linearGradient>
<linearGradient id="paint16_linear_36_882" x1="45.41" y1="294.766" x2="46.859" y2="279.632" gradientUnits="userSpaceOnUse">
<stop stop-color="#FFC444"/>
<stop offset="0.9964" stop-color="#F36F56"/>
</linearGradient>
<linearGradient id="paint17_linear_36_882" x1="71.7023" y1="300.674" x2="67.3555" y2="275.076" gradientUnits="userSpaceOnUse">
<stop stop-color="#AA80F9"/>
<stop offset="0.9964" stop-color="#6165D7"/>
</linearGradient>
<linearGradient id="paint18_linear_36_882" x1="68.4722" y1="296.974" x2="69.9212" y2="281.841" gradientUnits="userSpaceOnUse">
<stop stop-color="#FFC444"/>
<stop offset="0.9964" stop-color="#F36F56"/>
</linearGradient>
<linearGradient id="paint19_linear_36_882" x1="49.7543" y1="292.791" x2="72.294" y2="208.106" gradientUnits="userSpaceOnUse">
<stop stop-color="#444B8C"/>
<stop offset="0.9964" stop-color="#26264F"/>
</linearGradient>
<linearGradient id="paint20_linear_36_882" x1="42.3328" y1="290.816" x2="64.8725" y2="206.131" gradientUnits="userSpaceOnUse">
<stop stop-color="#444B8C"/>
<stop offset="0.9964" stop-color="#26264F"/>
</linearGradient>
<linearGradient id="paint21_linear_36_882" x1="19.5264" y1="195.55" x2="121.16" y2="195.55" gradientUnits="userSpaceOnUse">
<stop stop-color="#FFC444"/>
<stop offset="0.9964" stop-color="#F36F56"/>
</linearGradient>
<linearGradient id="paint22_linear_36_882" x1="35.3948" y1="205.817" x2="60.2278" y2="205.817" gradientUnits="userSpaceOnUse">
<stop stop-color="#FFC444"/>
<stop offset="0.9964" stop-color="#F36F56"/>
</linearGradient>
<linearGradient id="paint23_linear_36_882" x1="63.4273" y1="173.165" x2="55.5866" y2="161.632" gradientUnits="userSpaceOnUse">
<stop stop-color="#FFC444"/>
<stop offset="0.9964" stop-color="#F36F56"/>
</linearGradient>
<linearGradient id="paint24_linear_36_882" x1="58.4694" y1="167.914" x2="61.8884" y2="155.811" gradientUnits="userSpaceOnUse">
<stop stop-color="#444B8C"/>
<stop offset="0.9964" stop-color="#3E4177"/>
</linearGradient>
<linearGradient id="paint25_linear_36_882" x1="69.3203" y1="164.299" x2="56.7999" y2="157.48" gradientUnits="userSpaceOnUse">
<stop stop-color="#FFC444"/>
<stop offset="0.9964" stop-color="#F36F56"/>
</linearGradient>
<linearGradient id="paint26_linear_36_882" x1="68.3605" y1="165.614" x2="60.3447" y2="160.146" gradientUnits="userSpaceOnUse">
<stop stop-color="#444B8C"/>
<stop offset="0.9964" stop-color="#3E4177"/>
</linearGradient>
<linearGradient id="paint27_linear_36_882" x1="123.649" y1="14.9519" x2="197.05" y2="93.4991" gradientUnits="userSpaceOnUse">
<stop stop-color="#FFC444"/>
<stop offset="0.9964" stop-color="#F36F56"/>
</linearGradient>
<linearGradient id="paint28_linear_36_882" x1="124.591" y1="24.174" x2="186.481" y2="90.4042" gradientUnits="userSpaceOnUse">
<stop stop-color="#FFC444"/>
<stop offset="0.9964" stop-color="#F36F56"/>
</linearGradient>
<linearGradient id="paint29_linear_36_882" x1="157.579" y1="-16.8517" x2="231.471" y2="62.2208" gradientUnits="userSpaceOnUse">
<stop stop-color="#FFC444"/>
<stop offset="0.9964" stop-color="#F36F56"/>
</linearGradient>
<linearGradient id="paint30_linear_36_882" x1="157.579" y1="-16.8517" x2="231.471" y2="62.2208" gradientUnits="userSpaceOnUse">
<stop stop-color="#FFC444"/>
<stop offset="0.9964" stop-color="#F36F56"/>
</linearGradient>
<linearGradient id="paint31_linear_36_882" x1="158.905" y1="-18.0045" x2="232.712" y2="60.9778" gradientUnits="userSpaceOnUse">
<stop stop-color="#FFC444"/>
<stop offset="0.9964" stop-color="#F36F56"/>
</linearGradient>
<linearGradient id="paint32_linear_36_882" x1="277.016" y1="182.812" x2="208.212" y2="126.253" gradientUnits="userSpaceOnUse">
<stop offset="0.0036" stop-color="#E38DDD"/>
<stop offset="1" stop-color="#9571F6"/>
</linearGradient>
<linearGradient id="paint33_linear_36_882" x1="275.243" y1="175.339" x2="217.229" y2="127.649" gradientUnits="userSpaceOnUse">
<stop offset="0.0036" stop-color="#E38DDD"/>
<stop offset="1" stop-color="#9571F6"/>
</linearGradient>
<linearGradient id="paint34_linear_36_882" x1="252.594" y1="212.613" x2="183.329" y2="155.675" gradientUnits="userSpaceOnUse">
<stop offset="0.0036" stop-color="#E38DDD"/>
<stop offset="1" stop-color="#9571F6"/>
</linearGradient>
<linearGradient id="paint35_linear_36_882" x1="252.594" y1="212.613" x2="183.329" y2="155.675" gradientUnits="userSpaceOnUse">
<stop offset="0.0036" stop-color="#E38DDD"/>
<stop offset="1" stop-color="#9571F6"/>
</linearGradient>
<linearGradient id="paint36_linear_36_882" x1="251.63" y1="213.704" x2="182.445" y2="156.83" gradientUnits="userSpaceOnUse">
<stop offset="0.0036" stop-color="#E38DDD"/>
<stop offset="1" stop-color="#9571F6"/>
</linearGradient>
</defs>
</svg>
