<svg width="302" height="300" viewBox="0 0 302 300" fill="none" xmlns="http://www.w3.org/2000/svg">
<path d="M266.438 258.439C260.399 264.797 254.685 268.897 250.17 272.136C197.103 310.212 134.31 299.113 120.965 296.403C101.258 292.4 63.1656 284.663 35.6253 252.276C-6.0407 203.278 0.44734 126.082 32.7664 75.124C38.6782 65.8029 69.9053 14.0686 133.374 5.77201C171.785 0.751083 216.56 10.8778 248.984 38.0431C317.046 95.0656 312.201 210.261 266.438 258.439Z" fill="url(#paint0_linear_36_414)" fill-opacity="0.16"/>
<path d="M19.0583 2.11901C18.5723 0.619115 20.3212 -0.613458 21.585 0.329292C34.419 9.90079 65.9879 39.3436 65.5223 97.1212C64.9381 169.612 82.798 194.009 103.147 207.815C103.147 207.815 76.8349 203.226 57.8067 178.573C11.0881 118.045 27.6987 28.7875 19.0583 2.11901Z" fill="#91B3FA"/>
<path d="M30.4216 23.4482C32.7772 31.2431 34.9777 39.0803 36.8886 46.9867C38.8406 54.8816 40.5524 62.8322 42.014 70.8247C43.4448 78.8221 44.7252 86.8451 45.663 94.9106C46.6371 102.971 47.2637 111.065 47.8645 119.194C48.5104 127.314 49.1148 135.498 50.5588 143.645C51.9925 151.777 54.4198 159.867 58.2535 167.275C59.2111 169.121 60.2063 170.957 61.2996 172.715C62.3607 174.495 63.5009 176.228 64.6718 177.94C67.031 181.353 69.6208 184.616 72.4408 187.671C78.0973 193.769 84.6781 199 91.7563 203.256C92.5013 203.704 93.4683 203.463 93.9163 202.718C94.3561 201.987 94.1319 201.041 93.4182 200.583L93.4132 200.58C91.7208 199.496 90.0431 198.394 88.4202 197.221C87.5992 196.647 86.8054 196.039 86.0005 195.445C85.219 194.822 84.4131 194.228 83.6517 193.582C80.5634 191.046 77.6567 188.297 74.9678 185.347C69.5667 179.479 65.0147 172.774 61.34 165.704C59.5419 162.147 58.009 158.464 56.765 154.675C55.5236 150.886 54.5715 146.995 53.8408 143.047C52.378 135.146 51.7129 127.05 51.0087 118.935C50.2939 110.819 49.5198 102.668 48.4115 94.5615C47.8684 90.5073 47.2524 86.4633 46.5643 82.4325C46.232 80.4152 45.8605 78.4047 45.4928 76.3938C45.1058 74.3865 44.7076 72.3816 44.2934 70.3802C42.6212 62.3777 40.7058 54.4302 38.5418 46.5542C36.3401 38.6888 33.9305 30.8843 31.2243 23.1859C31.1468 22.9658 30.9058 22.8502 30.6859 22.9275C30.4722 23.0029 30.3573 23.2335 30.4216 23.4482Z" fill="#BDD0FB"/>
<path d="M79.6494 256.201C79.1455 259.062 75.8834 260.478 73.4283 258.925C59.8816 250.357 23.7712 222.666 17.2337 167.717C11.7132 121.316 4.31028 96.6803 0.174568 85.7293C-0.699931 83.4136 1.89003 81.3275 3.96892 82.6712C26.9045 97.4962 97.9083 152.53 79.6494 256.201Z" fill="#7D97F4"/>
<path d="M75.7787 256.901C75.7264 256.951 75.6689 256.996 75.6057 257.036C75.077 257.372 74.3761 257.216 74.0401 256.687C73.6592 256.088 35.8322 196.021 25.2418 131.85C25.1401 131.233 25.5582 130.649 26.1763 130.546C26.7945 130.444 27.378 130.863 27.4803 131.481C37.9935 195.185 75.5762 254.875 75.9545 255.47C76.2507 255.936 76.1648 256.535 75.7787 256.901Z" fill="#91B3FA"/>
<path d="M72.8718 5.99607C65.5475 6.63304 59.932 12.7671 59.9111 20.1191C59.7836 65.0794 59.5731 220.159 62.5036 275.049C62.8141 280.864 67.5814 285.432 73.4044 285.495C102.205 285.805 185.05 286.374 232.081 283.366C241.877 282.739 249.499 274.626 249.487 264.81C249.43 217.623 248.676 84.9159 242.213 24.2571C241.438 16.9892 235.596 11.3162 228.309 10.7485C196.897 8.30103 113.483 2.46411 72.8718 5.99607Z" fill="url(#paint1_linear_36_414)"/>
<path d="M71.4721 31.9017C70.9065 70.3612 69.2961 198.3 72.1073 245.52C72.5182 252.422 77.8795 257.871 84.4993 258.101C111.755 259.051 181.648 260.889 221.475 256.507C228.646 255.718 234.127 249.502 234.318 241.975C235.314 202.727 238.005 83.5672 235.273 36.8753C234.837 29.4266 229.146 23.4832 222.013 23.0024C192.501 21.0139 116.719 16.4279 82.8521 19.2483C76.4944 19.7778 71.57 25.2434 71.4721 31.9017Z" fill="url(#paint2_linear_36_414)"/>
<path d="M137.325 12.6831C137.349 13.7456 138.196 14.6037 139.258 14.6361C144.503 14.7954 159.277 15.2477 165.88 15.4856C167.182 15.5325 168.177 14.3412 167.902 13.0677C167.88 13.0276 167.711 11.3947 166.043 11.2788C161.576 10.9682 148.1 10.1307 139.194 10.6446C137.366 10.75 137.266 12.8298 137.325 12.6831Z" fill="url(#paint3_linear_36_414)"/>
<path opacity="0.8" d="M115.948 117.995C135.69 117.995 151.695 101.991 151.695 82.2482C151.695 62.5056 135.69 46.5011 115.948 46.5011C96.205 46.5011 80.2004 62.5056 80.2004 82.2482C80.2004 101.991 96.205 117.995 115.948 117.995Z" fill="white"/>
<mask id="mask0_36_414" style="mask-type:luminance" maskUnits="userSpaceOnUse" x="84" y="50" width="64" height="65">
<path d="M115.948 114.084C133.53 114.084 147.783 99.8306 147.783 82.2483C147.783 64.6659 133.53 50.4126 115.948 50.4126C98.3654 50.4126 84.1121 64.6659 84.1121 82.2483C84.1121 99.8306 98.3654 114.084 115.948 114.084Z" fill="white"/>
</mask>
<g mask="url(#mask0_36_414)">
<path d="M116.086 88.0686C123.791 88.0686 130.037 81.8222 130.037 74.117C130.037 66.4117 123.791 60.1653 116.086 60.1653C108.381 60.1653 102.134 66.4117 102.134 74.117C102.134 81.8222 108.381 88.0686 116.086 88.0686Z" fill="url(#paint4_linear_36_414)"/>
</g>
<mask id="mask1_36_414" style="mask-type:luminance" maskUnits="userSpaceOnUse" x="84" y="50" width="64" height="65">
<path d="M115.948 114.084C133.53 114.084 147.783 99.8306 147.783 82.2483C147.783 64.6659 133.53 50.4126 115.948 50.4126C98.3654 50.4126 84.1121 64.6659 84.1121 82.2483C84.1121 99.8306 98.3654 114.084 115.948 114.084Z" fill="white"/>
</mask>
<g mask="url(#mask1_36_414)">
<path d="M94.8943 116.012H139.342C142.067 116.012 143.7 112.491 142.233 109.804C138.457 102.89 130.558 92.7339 116.878 93.1922C103.693 93.6339 95.8782 102.808 91.9496 109.388C90.2818 112.181 91.9827 116.012 94.8943 116.012Z" fill="url(#paint5_linear_36_414)"/>
</g>
<path d="M170.015 240.509H125.551C124.098 240.509 122.909 239.32 122.909 237.867V225.22C122.909 223.767 124.098 222.578 125.551 222.578H170.015C171.468 222.578 172.657 223.767 172.657 225.22V237.867C172.657 239.32 171.468 240.509 170.015 240.509Z" fill="url(#paint6_linear_36_414)"/>
<g opacity="0.8">
<g opacity="0.8">
<path d="M203.298 157.652H102.988C102.191 157.652 101.539 157 101.539 156.203V149.228C101.539 148.431 102.191 147.779 102.988 147.779H203.298C204.095 147.779 204.747 148.431 204.747 149.228V156.203C204.747 157 204.095 157.652 203.298 157.652Z" fill="white"/>
<path d="M88.3009 158.671C91.6064 158.671 94.2861 155.991 94.2861 152.685C94.2861 149.38 91.6064 146.7 88.3009 146.7C84.9954 146.7 82.3157 149.38 82.3157 152.685C82.3157 155.991 84.9954 158.671 88.3009 158.671Z" fill="white"/>
</g>
<g opacity="0.8">
<path d="M203.298 176.178H102.988C102.191 176.178 101.539 175.526 101.539 174.729V167.754C101.539 166.957 102.191 166.305 102.988 166.305H203.298C204.095 166.305 204.747 166.957 204.747 167.754V174.729C204.747 175.526 204.095 176.178 203.298 176.178Z" fill="white"/>
<path d="M94.214 172.172C94.7436 168.909 92.5278 165.835 89.2649 165.305C86.002 164.776 82.9276 166.992 82.398 170.255C81.8685 173.517 84.0843 176.592 87.3472 177.121C90.6101 177.651 93.6845 175.435 94.214 172.172Z" fill="white"/>
</g>
<g opacity="0.8">
<path d="M203.298 194.703H102.988C102.191 194.703 101.539 194.051 101.539 193.254V186.28C101.539 185.483 102.191 184.831 102.988 184.831H203.298C204.095 184.831 204.747 185.483 204.747 186.28V193.254C204.747 194.051 204.095 194.703 203.298 194.703Z" fill="white"/>
<path d="M88.3009 195.722C91.6064 195.722 94.2861 193.043 94.2861 189.737C94.2861 186.431 91.6064 183.752 88.3009 183.752C84.9954 183.752 82.3157 186.431 82.3157 189.737C82.3157 193.043 84.9954 195.722 88.3009 195.722Z" fill="white"/>
</g>
<path opacity="0.8" d="M203.298 213.229H102.988C102.191 213.229 101.539 212.577 101.539 211.78V204.806C101.539 204.009 102.191 203.357 102.988 203.357H203.298C204.095 203.357 204.747 204.009 204.747 204.806V211.78C204.747 212.577 204.095 213.229 203.298 213.229Z" fill="white"/>
<path opacity="0.8" d="M88.3009 214.248C91.6064 214.248 94.2861 211.568 94.2861 208.263C94.2861 204.957 91.6064 202.278 88.3009 202.278C84.9954 202.278 82.3157 204.957 82.3157 208.263C82.3157 211.568 84.9954 214.248 88.3009 214.248Z" fill="white"/>
</g>
<path opacity="0.8" d="M162.516 138.357H83.836C83.1289 138.357 82.5503 137.778 82.5503 137.071V129.77C82.5503 129.063 83.1289 128.484 83.836 128.484H162.516C163.223 128.484 163.802 129.063 163.802 129.77V137.071C163.802 137.778 163.223 138.357 162.516 138.357Z" fill="white"/>
<path d="M253.358 38.8168C253.147 35.5507 251.175 32.6574 248.218 31.2532L209.914 13.0611C207.461 11.896 204.614 11.896 202.161 13.0611L163.856 31.2532C160.9 32.6573 158.927 35.5507 158.716 38.8168C155.123 94.3549 190.733 114.591 202.407 119.702C204.722 120.716 207.352 120.716 209.667 119.702C221.341 114.591 256.951 94.3548 253.358 38.8168Z" fill="url(#paint7_linear_36_414)"/>
<path d="M194.451 20.7271C194.247 20.7271 194.051 20.6124 193.958 20.4157C193.829 20.1437 193.944 19.8181 194.216 19.6892L203.267 15.3907C203.54 15.2611 203.865 15.3769 203.994 15.6492C204.123 15.9213 204.007 16.2468 203.735 16.3757L194.684 20.6741C194.609 20.71 194.529 20.7271 194.451 20.7271Z" fill="#91B3FA"/>
<path d="M161.645 50.7036C161.353 50.7036 161.111 50.4714 161.101 50.1766C160.98 46.5641 161.043 42.7982 161.29 38.9834C161.44 36.657 162.848 34.5877 164.963 33.5828L190.73 21.3449C191.003 21.2157 191.328 21.3311 191.457 21.6035C191.586 21.8754 191.47 22.201 191.198 22.3299L165.431 34.5677C163.673 35.4028 162.503 37.1218 162.378 39.0537C162.134 42.8331 162.071 46.5631 162.191 50.1398C162.201 50.4409 161.965 50.6934 161.664 50.7032C161.658 50.7036 161.651 50.7036 161.645 50.7036Z" fill="#91B3FA"/>
<path d="M244.096 40.9844C244.053 40.1564 243.561 39.4174 242.812 39.0617L207.004 22.055C206.392 21.7646 205.683 21.7646 205.071 22.055L169.263 39.0617C168.514 39.4174 168.022 40.1564 167.979 40.9844C166.92 61.7018 171.706 78.9878 182.212 92.3856C190.223 102.6 199.593 108.074 205.084 110.628C205.689 110.909 206.386 110.909 206.991 110.628C212.481 108.074 221.852 102.6 229.863 92.3856C240.369 78.9879 245.155 61.7017 244.096 40.9844Z" fill="url(#paint8_linear_36_414)"/>
<path d="M183.298 63.6921C186.259 61.8579 190.149 62.8158 191.918 65.8159L200.242 79.9255C201.075 81.338 203.162 81.197 203.798 79.6855L222.524 35.1516C223.459 32.9298 226.749 33.5942 226.771 36.0037C226.894 49.485 223.936 75.1868 202.921 97.1478C202.921 97.1478 190.944 92.8216 180.882 72.0686C179.429 69.0708 180.466 65.4472 183.298 63.6921Z" fill="url(#paint9_linear_36_414)"/>
<path d="M259.621 286.415C259.621 286.415 260.307 290.297 260.643 294.14C260.774 295.642 259.616 296.946 258.11 297.009C252.993 297.222 242.046 297.636 238.118 297.461C237.528 297.435 237.141 296.83 237.36 296.281C237.543 295.821 237.896 295.449 238.346 295.242L256.428 286.931L259.621 286.415Z" fill="url(#paint10_linear_36_414)"/>
<path d="M260.183 284.134L259.632 288.778C259.632 288.778 256.464 290.252 254.301 288.592L255.613 283.417L260.183 284.134Z" fill="url(#paint11_linear_36_414)"/>
<path d="M259.768 196.836C260.006 198.049 261.046 257.348 254.707 283.922C254.604 284.356 254.823 284.803 255.236 284.971C256.208 285.368 258.114 285.944 260.398 286.02C261.106 286.044 261.74 285.584 261.94 284.905C263.751 278.74 272.434 247.848 273.566 218.339C274.832 185.365 273.566 217.216 273.566 217.216L272.824 196.834L259.768 196.836Z" fill="url(#paint12_linear_36_414)"/>
<path d="M280.421 288.44C280.421 288.44 281.512 290.4 282.569 295.608C282.76 296.548 282.103 297.448 281.148 297.542C279.458 297.708 276.856 297.922 274.773 297.908C273.812 297.901 273.062 297.065 273.178 296.111C273.409 294.21 274.128 291.092 276.349 288.661L280.421 288.44Z" fill="url(#paint13_linear_36_414)"/>
<path d="M281.379 282.468L280.092 289.49C280.092 289.49 278.819 290.437 276.301 289.75L276.916 282.195L281.379 282.468Z" fill="url(#paint14_linear_36_414)"/>
<path d="M284.857 198.656C290.041 229.943 283.732 275.984 281.605 284.995C281.475 285.547 281.029 285.97 280.47 286.062C279.52 286.22 277.957 286.348 276.415 285.9C275.884 285.746 275.511 285.267 275.489 284.714C275.204 277.429 275.718 232.704 270.887 215.028C270.642 214.132 270.095 213.351 269.338 212.813L259.963 206.148L259.244 195.374L284.857 198.656Z" fill="url(#paint15_linear_36_414)"/>
<path d="M251.823 139.373C267.359 139.117 284.502 143.453 284.502 143.453C289.132 170.474 285.311 201.641 285.311 201.641C273.284 204.796 259.716 199.713 259.716 199.713C257.717 188.419 248.39 156.633 248.39 156.633C240.799 155.691 234.546 153.501 229.396 150.605C233.324 146.052 235.176 140.258 235.98 136.834C241.473 138.541 247.032 139.452 251.823 139.373Z" fill="url(#paint16_linear_36_414)"/>
<path d="M205.933 116.49C207.459 114.646 209.391 115.518 209.391 115.518C211.677 125.176 223.665 133.006 235.98 136.834C235.176 140.258 233.324 146.052 229.396 150.605C208.957 139.113 205.933 116.49 205.933 116.49Z" fill="url(#paint17_linear_36_414)"/>
<path d="M206.303 116.958C206.144 117.466 207.993 118.239 209.082 116.163C209.12 115.168 209.725 110.905 209.13 110.094C205.963 105.776 199.823 100.364 199.823 100.364C198.786 101.388 199.641 102.394 199.641 102.394L202.619 105.497C201.996 106.622 201.236 107.573 200.88 108.935C200.61 109.966 200.775 111.068 201.296 112.007C201.819 112.949 202.532 114.173 203.207 115.131C204.483 116.945 206.303 116.958 206.303 116.958Z" fill="url(#paint18_linear_36_414)"/>
<path d="M203.922 107.51L206.636 109.811L207.488 112.102L205.068 114.786C205.068 114.786 204.255 110.241 203.65 109.257C203.045 108.273 203.359 107.798 203.922 107.51Z" fill="url(#paint19_linear_36_414)"/>
<path d="M278.542 158.496L284.501 143.453C284.501 143.453 299.013 153.313 301.399 165.814C298.657 166.016 293.668 166.729 288.784 169.195C287.711 163.292 278.542 158.496 278.542 158.496Z" fill="url(#paint20_linear_36_414)"/>
<path d="M265.861 172.651C265.861 172.651 282.154 181.859 287.651 173.997C288.793 172.364 289.065 170.742 288.784 169.195C293.668 166.729 298.657 166.016 301.399 165.814C302.119 169.582 301.738 173.591 299.524 177.642C289.894 195.257 263.705 176.668 263.705 176.668L265.861 172.651Z" fill="url(#paint21_linear_36_414)"/>
<path d="M267.819 184.3L258.927 153.248C258.826 152.895 258.525 152.638 258.161 152.595C256.55 152.408 251.882 151.88 246.492 151.424C239.999 150.875 232.46 150.43 227.954 150.808C227.314 150.862 226.927 151.54 227.211 152.116C229.773 157.299 240.312 178.384 245.59 185.291C245.765 185.52 246.035 185.653 246.323 185.651L266.954 185.459C267.554 185.453 267.984 184.877 267.819 184.3Z" fill="#BDD0FB"/>
<path d="M245.569 148.732L239.123 147.658C238.779 147.6 238.498 147.928 238.607 148.259L239.245 150.193C239.301 150.361 239.448 150.483 239.623 150.506L245.827 151.335C246.148 151.378 246.413 151.086 246.339 150.771L245.944 149.083C245.901 148.901 245.754 148.762 245.569 148.732Z" fill="#7D97F4"/>
<path d="M250.396 154.189L249.865 151.423C249.812 151.146 249.583 150.936 249.302 150.907L236.281 149.586C235.843 149.542 235.492 149.943 235.594 150.372L236.422 153.819C236.489 154.095 236.729 154.294 237.012 154.308L249.736 154.949C250.15 154.969 250.475 154.597 250.396 154.189Z" fill="#7D97F4"/>
<path d="M265.671 176.798C265.671 176.798 266.909 171.704 266.41 169.898C265.91 168.091 264.942 165.767 261.715 166.283C258.488 166.8 254.682 168.159 254.682 168.159C254.682 168.159 254.874 170.513 257.327 169.753L255.806 170.93C255.806 170.93 256.023 172.815 258.095 171.808L256.68 173.369C256.68 173.369 257.57 174.916 259.094 173.924C260.618 172.931 261.348 177.411 265.671 176.798Z" fill="url(#paint22_linear_36_414)"/>
<path d="M267.56 126.761L272.503 141.056C272.585 141.293 272.488 141.555 272.268 141.676C270.921 142.422 266.066 144.575 260.216 140.866C259.606 140.479 259.191 139.849 259.099 139.133L257.498 126.76L267.56 126.761Z" fill="url(#paint23_linear_36_414)"/>
<path d="M256.804 113.522C256.804 113.522 251.376 123.74 252.072 127.868C252.767 131.996 259.495 131.699 265.37 128.347L269.475 117.314L256.804 113.522Z" fill="url(#paint24_linear_36_414)"/>
<path d="M265.11 122.929C264.871 122.823 264.783 122.531 264.926 122.312C265.361 121.648 266.176 120.292 266.436 119.106C266.436 119.106 267.412 118.481 263.953 117.653C260.493 116.824 255.334 115.539 254.25 112.594C253.192 109.723 255.97 102.503 260.402 108.256C260.571 108.475 260.901 108.48 261.069 108.261C261.796 107.315 263.706 105.353 266.358 106.542C268.839 107.656 269.119 109.474 269.085 110.391C269.075 110.661 269.316 110.87 269.581 110.82C270.836 110.58 273.847 110.375 275.252 113.464C276.409 116.008 275.657 117.448 274.972 118.152C274.75 118.38 274.847 118.756 275.152 118.849C275.976 119.102 277.041 119.801 276.934 121.733C276.787 124.404 273.801 124.168 272.951 124.047C272.811 124.027 272.671 124.075 272.577 124.179C271.848 124.986 268.563 128.411 265.009 128.824C264.701 128.86 264.462 128.556 264.563 128.263L266.101 123.791C266.173 123.583 266.074 123.355 265.873 123.266L265.11 122.929Z" fill="url(#paint25_linear_36_414)"/>
<path d="M264.491 123.563C264.491 123.563 268.356 120.912 268.639 123.145C268.921 125.378 265.158 126.379 263.295 125.547L264.491 123.563Z" fill="url(#paint26_linear_36_414)"/>
<defs>
<linearGradient id="paint0_linear_36_414" x1="338.766" y1="387.206" x2="75.8556" y2="60.6876" gradientUnits="userSpaceOnUse">
<stop stop-color="#DAE3FE"/>
<stop offset="1" stop-color="#E9EFFD"/>
</linearGradient>
<linearGradient id="paint1_linear_36_414" x1="-130.324" y1="374.726" x2="208.544" y2="99.8503" gradientUnits="userSpaceOnUse">
<stop stop-color="#09005D"/>
<stop offset="1" stop-color="#1A0F91"/>
</linearGradient>
<linearGradient id="paint2_linear_36_414" x1="21.515" y1="324.969" x2="170.588" y2="111.904" gradientUnits="userSpaceOnUse">
<stop stop-color="#FEBBBA"/>
<stop offset="1" stop-color="#FF928E"/>
</linearGradient>
<linearGradient id="paint3_linear_36_414" x1="179.681" y1="-108.608" x2="157.866" y2="-10.4378" gradientUnits="userSpaceOnUse">
<stop stop-color="#4042E2"/>
<stop offset="1" stop-color="#4F52FF"/>
</linearGradient>
<linearGradient id="paint4_linear_36_414" x1="85.024" y1="181.449" x2="158.47" y2="-72.3383" gradientUnits="userSpaceOnUse">
<stop stop-color="#FE7062"/>
<stop offset="1" stop-color="#FF928E"/>
</linearGradient>
<linearGradient id="paint5_linear_36_414" x1="95.9858" y1="184.622" x2="169.432" y2="-69.1662" gradientUnits="userSpaceOnUse">
<stop stop-color="#FE7062"/>
<stop offset="1" stop-color="#FF928E"/>
</linearGradient>
<linearGradient id="paint6_linear_36_414" x1="175.535" y1="116.8" x2="133.823" y2="289.262" gradientUnits="userSpaceOnUse">
<stop stop-color="#E1473D"/>
<stop offset="1" stop-color="#E9605A"/>
</linearGradient>
<linearGradient id="paint7_linear_36_414" x1="349.046" y1="-156.438" x2="285.78" y2="-62.631" gradientUnits="userSpaceOnUse">
<stop stop-color="#4042E2"/>
<stop offset="1" stop-color="#4F52FF"/>
</linearGradient>
<linearGradient id="paint8_linear_36_414" x1="295.339" y1="-117.502" x2="258.98" y2="-47.6919" gradientUnits="userSpaceOnUse">
<stop stop-color="#09005D"/>
<stop offset="1" stop-color="#1A0F91"/>
</linearGradient>
<linearGradient id="paint9_linear_36_414" x1="193.034" y1="104.039" x2="208.305" y2="36.4111" gradientUnits="userSpaceOnUse">
<stop stop-color="#E1473D"/>
<stop offset="1" stop-color="#E9605A"/>
</linearGradient>
<linearGradient id="paint10_linear_36_414" x1="238.69" y1="281.05" x2="304.905" y2="353.073" gradientUnits="userSpaceOnUse">
<stop stop-color="#4042E2"/>
<stop offset="1" stop-color="#4F52FF"/>
</linearGradient>
<linearGradient id="paint11_linear_36_414" x1="260.182" y1="286.399" x2="254.301" y2="286.399" gradientUnits="userSpaceOnUse">
<stop stop-color="#FF928E"/>
<stop offset="1" stop-color="#FEB3B1"/>
</linearGradient>
<linearGradient id="paint12_linear_36_414" x1="274.129" y1="241.427" x2="254.682" y2="241.427" gradientUnits="userSpaceOnUse">
<stop stop-color="#09005D"/>
<stop offset="1" stop-color="#1A0F91"/>
</linearGradient>
<linearGradient id="paint13_linear_36_414" x1="253.544" y1="267.394" x2="319.759" y2="339.416" gradientUnits="userSpaceOnUse">
<stop stop-color="#4042E2"/>
<stop offset="1" stop-color="#4F52FF"/>
</linearGradient>
<linearGradient id="paint14_linear_36_414" x1="281.379" y1="286.097" x2="276.301" y2="286.097" gradientUnits="userSpaceOnUse">
<stop stop-color="#FF928E"/>
<stop offset="1" stop-color="#FEB3B1"/>
</linearGradient>
<linearGradient id="paint15_linear_36_414" x1="286.853" y1="240.791" x2="259.244" y2="240.791" gradientUnits="userSpaceOnUse">
<stop stop-color="#09005D"/>
<stop offset="1" stop-color="#1A0F91"/>
</linearGradient>
<linearGradient id="paint16_linear_36_414" x1="268.06" y1="147.328" x2="236.424" y2="232.417" gradientUnits="userSpaceOnUse">
<stop stop-color="#4042E2"/>
<stop offset="1" stop-color="#4F52FF"/>
</linearGradient>
<linearGradient id="paint17_linear_36_414" x1="278.157" y1="132.959" x2="248.109" y2="132.959" gradientUnits="userSpaceOnUse">
<stop stop-color="#FF928E"/>
<stop offset="1" stop-color="#FEB3B1"/>
</linearGradient>
<linearGradient id="paint18_linear_36_414" x1="220.4" y1="85.5985" x2="206.584" y2="105.233" gradientUnits="userSpaceOnUse">
<stop stop-color="#FF928E"/>
<stop offset="1" stop-color="#FEB3B1"/>
</linearGradient>
<linearGradient id="paint19_linear_36_414" x1="206.077" y1="112.644" x2="197.664" y2="99.7091" gradientUnits="userSpaceOnUse">
<stop stop-color="#FF928E"/>
<stop offset="1" stop-color="#FEB3B1"/>
</linearGradient>
<linearGradient id="paint20_linear_36_414" x1="292.153" y1="156.285" x2="260.517" y2="241.375" gradientUnits="userSpaceOnUse">
<stop stop-color="#4042E2"/>
<stop offset="1" stop-color="#4F52FF"/>
</linearGradient>
<linearGradient id="paint21_linear_36_414" x1="301.73" y1="175.52" x2="263.705" y2="175.52" gradientUnits="userSpaceOnUse">
<stop stop-color="#FF928E"/>
<stop offset="1" stop-color="#FEB3B1"/>
</linearGradient>
<linearGradient id="paint22_linear_36_414" x1="266.528" y1="171.533" x2="254.682" y2="171.533" gradientUnits="userSpaceOnUse">
<stop stop-color="#FF928E"/>
<stop offset="1" stop-color="#FEB3B1"/>
</linearGradient>
<linearGradient id="paint23_linear_36_414" x1="260.819" y1="121.351" x2="267.121" y2="145.106" gradientUnits="userSpaceOnUse">
<stop stop-color="#FF928E"/>
<stop offset="1" stop-color="#FEB3B1"/>
</linearGradient>
<linearGradient id="paint24_linear_36_414" x1="272.992" y1="101.98" x2="254.57" y2="131.31" gradientUnits="userSpaceOnUse">
<stop stop-color="#FF928E"/>
<stop offset="1" stop-color="#FEB3B1"/>
</linearGradient>
<linearGradient id="paint25_linear_36_414" x1="279.202" y1="104.595" x2="257.848" y2="121.461" gradientUnits="userSpaceOnUse">
<stop stop-color="#09005D"/>
<stop offset="1" stop-color="#1A0F91"/>
</linearGradient>
<linearGradient id="paint26_linear_36_414" x1="278.182" y1="105.239" x2="259.76" y2="134.569" gradientUnits="userSpaceOnUse">
<stop stop-color="#FF928E"/>
<stop offset="1" stop-color="#FEB3B1"/>
</linearGradient>
</defs>
</svg>
