<svg width="20" height="14" viewBox="0 0 20 14" fill="none" xmlns="http://www.w3.org/2000/svg">
<g id="Group">
<path id="Vector" fill-rule="evenodd" clip-rule="evenodd" d="M19.2521 1.77438C19.6282 2.15041 19.887 2.64364 19.97 3.19384C20.0009 3.40546 19.9993 3.58777 19.9993 3.79613V7.2292C19.9993 7.41477 20.0042 7.59872 19.9879 7.78429C19.9163 8.55262 19.4865 9.26072 18.8387 9.67907C18.0183 10.2114 17.0806 10.0893 16.0991 10.0893C16.423 10.9813 17.0758 11.805 17.7806 12.4285L17.5169 12.9233L17.5088 12.9201C15.8012 12.4805 14.0008 11.4713 12.9037 10.0877C12.2249 10.0811 11.6698 10.0893 10.9926 9.99812C10.2471 10.4507 9.35989 10.7453 8.48412 10.7453C7.91602 11.4534 7.25512 12.0589 6.49981 12.5554C5.68428 13.091 4.76293 13.4979 3.73578 13.7682C3.68532 13.7812 3.63485 13.7942 3.58276 13.8007C3.40533 13.8202 3.21976 13.7568 3.09279 13.6135C2.88443 13.3791 2.90722 13.0194 3.14162 12.811C3.80577 12.2234 4.17692 11.5787 4.44225 10.7485C3.14651 10.7485 2.06238 10.8853 1.00755 9.83209C-0.309351 8.51355 0.0178403 5.44837 0.0845809 3.60894C0.105742 3.01804 0.065047 2.62899 0.301081 2.01205C0.607111 1.2079 1.24196 0.558403 2.04447 0.236095C2.7949 -0.066679 3.61044 0.00820068 4.40156 0.00820068H9.21176C9.565 0.00820068 9.85312 0.00657286 10.2145 0.0912194C10.8233 0.231212 11.3751 0.555148 11.8065 1.02559L17.3606 1.02722C18.0948 1.02722 18.7247 1.24534 19.2521 1.77438ZM16.2635 6.9655H14.8033L14.6015 7.6915H13.2927C13.7306 6.45436 14.1701 5.21559 14.608 3.97682C14.7659 3.52917 14.9449 2.78851 15.5196 2.78851C16.1153 2.78851 16.3123 3.46731 16.4783 3.93613L17.8099 7.68988H16.4686L16.2635 6.9655ZM15.9949 6.01322L15.5358 4.43098L15.08 6.01322H15.9949ZM13.532 11.665L12.583 10.8804L11.3979 12.3438L9.67732 10.8511L8.86503 11.7692L10.7289 13.2521L12.2395 13.1219L13.532 11.665ZM12.4739 1.60509C13.0306 3.77172 13.6248 7.57756 12.1304 9.50489C12.4837 9.50978 12.832 9.50978 13.1853 9.50978C13.9862 10.5744 15.0149 11.3183 16.226 11.862C16.34 11.9124 16.4556 11.9629 16.5711 12.0085C16.1593 11.5104 15.7979 10.9357 15.5684 10.3269C15.4626 10.0453 15.4056 9.7979 15.334 9.50978C15.6661 9.50978 15.9916 9.51303 16.3253 9.52443C17.0627 9.55047 17.8392 9.57163 18.4529 9.22816C18.7182 9.08003 18.9315 8.87004 19.0991 8.61773C19.2473 8.39147 19.3514 8.13264 19.397 7.85754C19.4312 7.64918 19.4198 7.41966 19.4198 7.20804V3.68381C19.4198 3.59103 19.4214 3.50638 19.4149 3.4136C19.3775 2.93665 19.1659 2.50365 18.8436 2.18134C18.531 1.86717 18.1127 1.65881 17.6504 1.61323C17.5315 1.60184 17.4143 1.60346 17.2955 1.60346L12.4739 1.60509ZM3.44928 2.19599H5.63707V1.57905H6.61376V2.19599H8.80969V3.20849H8.35878C8.32297 3.49336 8.25623 3.7766 8.16507 4.05659H8.1667C8.07391 4.34145 7.94694 4.62795 7.79556 4.91119C7.53836 5.3914 7.20629 5.85207 6.82212 6.29484C7.43744 7.03061 8.19926 7.67034 9.10921 8.2531L8.60621 9.03608C7.65231 8.42402 6.84166 7.75011 6.17588 6.97364C5.5801 7.54988 4.90455 8.08706 4.19482 8.57704L3.66578 7.81196C4.36737 7.32687 5.03315 6.7962 5.60614 6.23135C5.0771 5.45814 4.6734 4.59051 4.39342 3.59266L5.29034 3.34197C5.51987 4.16077 5.84218 4.88026 6.25564 5.52488C6.53725 5.18304 6.78143 4.83305 6.97514 4.47331C7.09722 4.24541 7.2014 4.00775 7.28117 3.76521H7.28279C7.34302 3.58452 7.3886 3.39732 7.41953 3.20849H3.44928V2.19599Z" fill="white"/>
</g>
</svg>
