<svg width="36" height="30" viewBox="0 0 36 30" fill="none" xmlns="http://www.w3.org/2000/svg">
<g id="Group 39549">
<rect id="Rectangle 8" width="36" height="30" rx="4" fill="white"/>
<path id="Vector" d="M11.2796 21.4017L13.1481 19.64C13.2338 19.5594 13.3443 19.5147 13.459 19.5143H17.9837C18.0037 19.5145 18.0234 19.5105 18.0419 19.5026C18.0604 19.4946 18.0771 19.4828 18.0912 19.4679C18.1053 19.453 18.1165 19.4352 18.124 19.4157C18.1315 19.3962 18.1353 19.3752 18.1351 19.3541V18.3485H19.0677V19.3541C19.0664 19.6588 18.9515 19.9506 18.7478 20.1661C18.5442 20.3815 18.2684 20.5031 17.9805 20.5045H13.6348L11.1413 22.8551C11.0762 22.924 10.9934 22.971 10.9032 22.9902C10.8131 23.0095 10.7195 23.0001 10.6343 22.9634C10.5491 22.9266 10.4761 22.864 10.4244 22.7835C10.3727 22.7029 10.3447 22.608 10.3438 22.5107V20.5045H9.08887C8.80063 20.5036 8.52441 20.3821 8.32044 20.1667C8.11647 19.9512 8.00129 19.6591 8 19.3541V11.9234C8.00339 11.6191 8.11925 11.3284 8.32276 11.1133C8.52628 10.8983 8.80128 10.7762 9.08887 10.7731H15.0557V11.7632H9.08887C9.04931 11.7657 9.01195 11.7833 8.98378 11.8128C8.95561 11.8422 8.93858 11.8816 8.93587 11.9234V19.3541C8.93602 19.3751 8.94013 19.3958 8.94795 19.415C8.95578 19.4342 8.96717 19.4516 8.98145 19.4661C9.01039 19.4956 9.04866 19.5128 9.08887 19.5143H10.8109C10.9352 19.5143 11.0544 19.5665 11.1423 19.6596C11.2302 19.7526 11.2796 19.8787 11.2796 20.0103V21.4017ZM11.3138 18.0471L12.8177 13.2408H14.2549L15.7588 18.0471H14.5674L14.3151 17.1723H12.7445L12.4987 18.0471H11.3138ZM13.0114 16.1683H14.0482L13.5339 14.2L13.0114 16.1683ZM20.4723 9.29897H21.8883V8.91322C21.8883 8.88171 21.9002 8.85148 21.9212 8.8292C21.9423 8.80692 21.9709 8.7944 22.0007 8.7944H22.7575C22.7722 8.7944 22.7867 8.79748 22.8002 8.80347C22.8138 8.80947 22.826 8.81825 22.8363 8.8293C22.8466 8.84036 22.8547 8.85347 22.8602 8.86788C22.8657 8.88229 22.8684 8.8977 22.8682 8.91322V9.29897H24.4567C24.4714 9.29896 24.4859 9.30205 24.4994 9.30804C24.513 9.31403 24.5252 9.32281 24.5355 9.33387C24.5458 9.34493 24.554 9.35804 24.5594 9.37245C24.5649 9.38685 24.5676 9.40227 24.5674 9.41779V10.1858C24.5674 10.2169 24.5557 10.2467 24.535 10.2686C24.5142 10.2906 24.4861 10.3029 24.4567 10.3029H24.2044C24.1711 10.5293 24.1216 10.7527 24.0563 10.9711V10.9814C23.9816 11.2278 23.8868 11.467 23.7731 11.6961C23.6688 11.9005 23.5524 12.0977 23.4248 12.2868C23.3158 12.459 23.1953 12.614 23.0667 12.7741C23.2507 13.0094 23.4509 13.2298 23.6657 13.4337C23.9259 13.6703 24.2029 13.8856 24.4941 14.0777C24.5064 14.086 24.5171 14.0967 24.5255 14.1093C24.5339 14.1219 24.5398 14.1361 24.543 14.1511C24.5462 14.1662 24.5465 14.1817 24.544 14.1969C24.5415 14.2121 24.5361 14.2266 24.5283 14.2396L24.1393 14.8819C24.1313 14.8961 24.1205 14.9083 24.1077 14.9178C24.095 14.9273 24.0804 14.9339 24.0651 14.9372C24.0498 14.9404 24.034 14.9402 24.0188 14.9366C24.0035 14.9331 23.9891 14.9262 23.9766 14.9164C23.6576 14.7067 23.354 14.4718 23.0684 14.2138C22.8362 13.9946 22.6187 13.7587 22.4173 13.5077C22.209 13.704 22.0218 13.8883 21.8346 14.0605C21.6133 14.2534 21.3805 14.4393 21.1071 14.6391C21.0948 14.6491 21.0807 14.6564 21.0657 14.6603C21.0506 14.6643 21.0349 14.6649 21.0197 14.6622C21.0044 14.6594 20.9898 14.6534 20.9768 14.6444C20.9639 14.6353 20.9528 14.6236 20.9443 14.6098L20.5326 13.9796C20.5231 13.9666 20.5162 13.9516 20.5125 13.9357C20.5087 13.9198 20.5081 13.9032 20.5107 13.887C20.5133 13.8709 20.5191 13.8554 20.5276 13.8417C20.5361 13.828 20.5472 13.8163 20.5602 13.8073C20.8304 13.611 21.0485 13.4302 21.2699 13.2425C21.4587 13.0703 21.641 12.8981 21.8379 12.6983C21.6736 12.4524 21.5231 12.1965 21.387 11.932C21.2319 11.6173 21.1092 11.2859 21.0208 10.9435C21.0169 10.9287 21.0157 10.9132 21.0174 10.8979C21.0191 10.8827 21.0236 10.8679 21.0307 10.8544C21.0378 10.841 21.0474 10.8292 21.0588 10.8196C21.0702 10.8101 21.0833 10.8031 21.0973 10.7989L21.7923 10.594C21.8063 10.5898 21.821 10.5885 21.8354 10.5903C21.8499 10.5921 21.8638 10.5969 21.8765 10.6044C21.8892 10.612 21.9004 10.622 21.9094 10.6341C21.9184 10.6462 21.9251 10.6601 21.929 10.6749C22.0408 11.1294 22.2294 11.5588 22.4857 11.9423L22.6924 11.6496C22.7816 11.5127 22.8637 11.3707 22.9382 11.2242C23.0171 11.0632 23.0835 10.8956 23.1367 10.7231C23.1795 10.5852 23.2153 10.4449 23.2441 10.3029H20.4772C20.4477 10.3029 20.4194 10.2907 20.3984 10.2687C20.3774 10.2468 20.3653 10.217 20.3649 10.1858V9.4109C20.3649 9.37939 20.3767 9.34916 20.3978 9.32688C20.4189 9.3046 20.4474 9.29208 20.4772 9.29208L20.4723 9.29897ZM24.8669 19.0838L22.3652 16.7314H18.0163C17.7283 16.7296 17.4526 16.6079 17.2488 16.3926C17.045 16.1773 16.9295 15.8858 16.9274 15.5811V8.15207C16.93 7.84622 17.047 7.55393 17.2529 7.33925L17.2855 7.30825C17.4841 7.11244 17.7448 7.00246 18.0163 7H26.9111C27.1997 7.00278 27.4754 7.12666 27.6777 7.34441L27.7087 7.37886C27.8942 7.59004 27.9982 7.86717 28 8.15551V15.5811C27.9979 15.8858 27.8824 16.1773 27.6786 16.3926C27.4748 16.6079 27.1991 16.7296 26.9111 16.7314H25.6579V18.7325C25.6565 18.8298 25.6281 18.9246 25.5762 19.0049C25.5243 19.0853 25.4512 19.1477 25.366 19.1845C25.2808 19.2212 25.1873 19.2306 25.0971 19.2114C25.0069 19.1923 24.924 19.1455 24.8587 19.0769L24.8669 19.0838ZM22.8535 15.8669L24.7204 17.6286V16.2372C24.7204 16.1057 24.7698 15.9795 24.8577 15.8865C24.9456 15.7935 25.0648 15.7412 25.1891 15.7412H26.9111C26.9309 15.741 26.9504 15.7366 26.9686 15.7283C26.9867 15.72 27.0032 15.708 27.0169 15.693C27.0315 15.6787 27.0432 15.6614 27.0513 15.6421C27.0594 15.6229 27.0638 15.6021 27.0641 15.5811V8.15207C27.0625 8.1156 27.05 8.08062 27.0283 8.05219L27.0169 8.03324C26.9886 8.00343 26.951 7.98566 26.9111 7.9833H18.0163C17.9825 7.98909 17.9516 8.00667 17.9284 8.03324H17.9105C17.8963 8.04779 17.8849 8.06518 17.8771 8.08439C17.8693 8.1036 17.8651 8.12426 17.8649 8.14518V15.5811C17.8647 15.6022 17.8685 15.6231 17.876 15.6426C17.8835 15.6622 17.8947 15.6799 17.9088 15.6948C17.9229 15.7098 17.9396 15.7215 17.9581 15.7295C17.9766 15.7375 17.9963 15.7415 18.0163 15.7412H22.5426C22.6574 15.7412 22.7681 15.7859 22.8535 15.8669Z" fill="#131368"/>
</g>
</svg>
