<svg width="30" height="28" viewBox="0 0 30 28" fill="none" xmlns="http://www.w3.org/2000/svg">
<path fill-rule="evenodd" clip-rule="evenodd" d="M29.3287 19.4937V13.8229C29.3287 9.81301 29.3287 7.80805 28.0829 6.56233C26.9129 5.39229 25.0731 5.32122 21.5312 5.31689V27.9997C25.0731 27.9955 26.9129 27.9243 28.0829 26.7543C29.3287 25.5087 29.3287 23.5036 29.3287 19.4937ZM25.0755 12.405C25.8585 12.405 26.4933 13.0397 26.4933 13.8227C26.4933 14.6057 25.8585 15.2405 25.0755 15.2405C24.2925 15.2405 23.6578 14.6057 23.6578 13.8227C23.6578 13.0397 24.2925 12.405 25.0755 12.405ZM25.0755 18.0759C25.8585 18.0759 26.4933 18.7106 26.4933 19.4936C26.4933 20.2766 25.8585 20.9113 25.0755 20.9113C24.2925 20.9113 23.6578 20.2766 23.6578 19.4936C23.6578 18.7106 24.2925 18.0759 25.0755 18.0759Z" fill="white"/>
<path d="M20.2121 1.75529L17.1597 5.31659H19.4049V28H9.4809C5.47099 28 3.46604 28 2.22033 26.7543C0.974609 25.5087 0.974609 23.5036 0.974609 19.4937V13.8229C0.974609 9.81298 0.974609 7.80802 2.22033 6.5623C3.46604 5.31659 5.47099 5.31659 9.4809 5.31659H13.1438L10.0913 1.75529C9.70912 1.30942 9.76075 0.638171 10.2066 0.255997C10.6525 -0.126162 11.3237 -0.0745283 11.7059 0.371329L15.1518 4.39147L18.5975 0.371329C18.9797 -0.0745283 19.651 -0.126176 20.0969 0.255997C20.5428 0.638171 20.5944 1.30942 20.2121 1.75529Z" fill="white"/>
</svg>
