<svg width="31" height="24" viewBox="0 0 31 24" fill="none" xmlns="http://www.w3.org/2000/svg">
<path fill-rule="evenodd" clip-rule="evenodd" d="M2.23616 0H28.4998C29.7305 0 30.736 1.00552 30.736 2.23616C30.736 3.46681 29.7305 4.47233 28.4998 4.47233H2.23616C1.00552 4.47233 0 3.46681 0 2.23616C0 1.00552 1.00552 0 2.23616 0ZM2.23616 19.5277H28.4998C29.7305 19.5277 30.736 20.5332 30.736 21.7638C30.736 22.9945 29.7305 24 28.4998 24H2.23616C1.00552 24 0 22.9945 0 21.7638C0 20.5332 1.00552 19.5277 2.23616 19.5277ZM2.23616 9.76259H28.4998C29.7305 9.76259 30.736 10.7681 30.736 11.9988C30.736 13.2294 29.7305 14.2349 28.4998 14.2349H2.23616C1.00552 14.2349 0 13.2294 0 11.9988C0 10.7706 1.00552 9.76259 2.23616 9.76259Z" fill="white"/>
</svg>
