<svg width="18" height="18" viewBox="0 0 18 18" fill="none" xmlns="http://www.w3.org/2000/svg">
<path id="Vector" d="M10.466 16.6247L9.97807 17.449C9.54319 18.1837 8.45688 18.1837 8.022 17.449L7.53411 16.6247C7.15568 15.9853 6.96647 15.6657 6.66254 15.4889C6.3586 15.3121 5.97595 15.3055 5.21064 15.2924C4.08081 15.2729 3.37221 15.2037 2.77793 14.9575C1.6753 14.5008 0.799266 13.6248 0.342541 12.5221C-2.98023e-08 11.6952 0 10.6468 0 8.55003V7.65003C0 4.70393 -5.96046e-08 3.23088 0.663122 2.14877C1.03418 1.54326 1.54326 1.03418 2.14877 0.663122C3.23088 -5.96046e-08 4.70393 0 7.65003 0H10.35C13.2961 0 14.7691 -5.96046e-08 15.8513 0.663122C16.4568 1.03418 16.9659 1.54326 17.3369 2.14877C18.0001 3.23088 18.0001 4.70393 18.0001 7.65003V8.55003C18.0001 10.6468 18.0001 11.6952 17.6575 12.5221C17.2008 13.6248 16.3248 14.5008 15.2221 14.9575C14.6278 15.2037 13.9193 15.2729 12.7894 15.2924C12.024 15.3055 11.6415 15.3121 11.3375 15.4889C11.0336 15.6656 10.8443 15.9853 10.466 16.6247Z" fill="white"/>
</svg>
