<svg width="25" height="26" viewBox="0 0 25 26" fill="none" xmlns="http://www.w3.org/2000/svg">
<path d="M13.2982 2.01286L13.3375 2.3771L13.6966 2.44946C17.138 3.14291 19.7496 6.20176 19.7496 9.8368C19.7496 10.1963 19.7467 10.5521 19.7438 10.9038C19.7287 12.7443 19.7145 14.4754 20.1235 16.065C20.5293 17.6428 21.3451 19.0759 22.9169 20.4112H22.8893H22.8416H22.7938H22.7461H22.6983H22.6506H22.6029H22.5551H22.5074H22.4597H22.4119H22.3642H22.3165H22.2688H22.221H22.1733H22.1256H22.0778H22.0301H21.9824H21.9347H21.8869H21.8392H21.7915H21.7438H21.696H21.6483H21.6006H21.5529H21.5052H21.4575H21.4097H21.362H21.3143H21.2666H21.2189H21.1712H21.1234H21.0757H21.028H20.9803H20.9326H20.8849H20.8372H20.7895H20.7418H20.694H20.6463H20.5986H20.5509H20.5032H20.4555H20.4078H20.3601H20.3124H20.2647H20.217H20.1693H20.1216H20.0739H20.0262H19.9785H19.9308H19.8831H19.8354H19.7877H19.74H19.6923H19.6446H19.5969H19.5492H19.5015H19.4538H19.4062H19.3585H19.3108H19.2631H19.2154H19.1677H19.12H19.0723H19.0246H18.9769H18.9293H18.8816H18.8339H18.7862H18.7385H18.6908H18.6431H18.5955H18.5478H18.5001H18.4524H18.4047H18.357H18.3094H18.2617H18.214H18.1663H18.1186H18.071H18.0233H17.9756H17.9279H17.8802H17.8326H17.7849H17.7372H17.6895H17.6419H17.5942H17.5465H17.4988H17.4512H17.4035H17.3558H17.3081H17.2605H17.2128H17.1651H17.1174H17.0698H17.0221H16.9744H16.9268H16.8791H16.8314H16.7838H16.7361H16.6884H16.6407H16.5931H16.5454H16.4977H16.4501H16.4024H16.3547H16.3071H16.2594H16.2117H16.1641H16.1164H16.0688H16.0211H15.9734H15.9258H15.8781H15.8304H15.7828H15.7351H15.6874H15.6398H15.5921H15.5445H15.4968H15.4491H15.4015H15.3538H15.3062H15.2585H15.2108H15.1632H15.1155H15.0678H15.0202H14.9725H14.9249H14.8772H14.8296H14.7819H14.7342H14.6866H14.6389H14.5913H14.5436H14.4959H14.4483H14.4006H14.353H14.3053H14.2577H14.21H14.1624H14.1147H14.067H14.0194H13.9717H13.9241H13.8764H13.8288H13.7811H13.7335H13.6858H13.6381H13.5905H13.5428H13.4952H13.4475H13.3999H13.3522H13.3046H13.2569H13.2093H13.1616H13.1139H13.0663H13.0186H12.971H12.9233H12.8757H12.828H12.7804H12.7327H12.6851H12.6374H12.5898H12.5421H12.4944H12.4468H12.3991H12.3515H12.3038H12.2562H12.2085H12.1609H12.1132H12.0656H12.0179H11.9703H11.9226H11.875H11.8273H11.7796H11.732H11.6843H11.6367H11.589H11.5414H11.4937H11.4461H11.3984H11.3508H11.3031H11.2555H11.2078H11.1602H11.1125H11.0648H11.0172H10.9695H10.9219H10.8742H10.8266H10.7789H10.7313H10.6836H10.636H10.5883H10.5406H10.493H10.4453H10.3977H10.35H10.3024H10.2547H10.2071H10.1594H10.1117H10.0641H10.0164H9.96877H9.92112H9.87346H9.8258H9.77815H9.73049H9.68283H9.63517H9.58752H9.53986H9.4922H9.44454H9.39688H9.34922H9.30156H9.2539H9.20625H9.15859H9.11093H9.06326H9.0156H8.96794H8.92028H8.87262H8.82496H8.7773H8.72964H8.68198H8.63431H8.58665H8.53899H8.49133H8.44366H8.396H8.34834H8.30067H8.25301H8.20534H8.15768H8.11001H8.06235H8.01468H7.96701H7.91935H7.87168H7.82401H7.77635H7.72868H7.68101H7.63334H7.58568H7.53801H7.49034H7.44267H7.395H7.34733H7.29966H7.25199H7.20432H7.15664H7.10897H7.0613H7.01363H6.96595H6.91828H6.87061H6.82293H6.77526H6.72758H6.67991H6.63223H6.58456H6.53688H6.4892H6.44153H6.39385H6.34617H6.29849H6.25081H6.20313H6.15545H6.10777H6.06009H6.01241H5.96473H5.91705H5.86937H5.82168H5.774H5.72632H5.67863H5.63095H5.58326H5.53558H5.48789H5.44021H5.39252H5.34483H5.29714H5.24946H5.20177H5.15408H5.10639H5.0587H5.01101H4.96332H4.91562H4.86793H4.82024H4.77255H4.72485H4.67716H4.62946H4.58177H4.53407H4.48637H4.43868H4.39098H4.34328H4.29558H4.24788H4.20018H4.15248H4.10478H4.05708H4.00938H3.96167H3.91397H3.86627H3.81856H3.77086H3.72315H3.67545H3.62774H3.58003H3.53232H3.48461H3.43691H3.3892H3.34149H3.29377H3.24606H3.19835H3.15064H3.10292H3.05521H3.00749H2.95978H2.91206H2.86434H2.81663H2.76891H2.72119H2.67347H2.62575H2.57803H2.53031H2.48258H2.43486H2.38714H2.33941H2.29169H2.24396H2.19624H2.14851H2.10078H2.05305H2.00532H1.95759H1.90986H1.86213H1.8144H1.76667H1.71893H1.6712H1.62346H1.57573H1.52799H1.49925C3.07886 19.0669 3.89725 17.6188 4.30423 16.0336C4.71422 14.4367 4.69982 12.7058 4.68469 10.8869C4.6818 10.54 4.67889 10.1898 4.67889 9.8368C4.67889 6.18224 7.31894 3.11045 10.7875 2.43845L11.1472 2.36877L11.1891 2.00486C11.3343 0.746329 13.1627 0.754296 13.2982 2.01286ZM9.55551 23.1647H14.8612C14.4297 24.2043 13.4042 24.9351 12.2084 24.9351C11.0126 24.9351 9.98732 24.2045 9.55551 23.1647Z" fill="url(#paint0_linear_82_422)" stroke="url(#paint1_linear_82_422)"/>
<defs>
<linearGradient id="paint0_linear_82_422" x1="0" y1="13" x2="24.4174" y2="13" gradientUnits="userSpaceOnUse">
<stop stop-color="#AAFF00"/>
<stop offset="1" stop-color="#3C00FF"/>
</linearGradient>
<linearGradient id="paint1_linear_82_422" x1="24.4174" y1="13" x2="0" y2="13" gradientUnits="userSpaceOnUse">
<stop stop-color="#AAFF00"/>
<stop offset="1" stop-color="#3C00FF"/>
</linearGradient>
</defs>
</svg>
