<svg width="16" height="20" viewBox="0 0 16 20" fill="none" xmlns="http://www.w3.org/2000/svg">
<g id="Group 39616">
<g id="Group">
<path id="Vector" d="M0.380797 10.1758L0.338487 10.2197L0 10.0846V5.09032C0 4.85924 0.0683482 4.64117 0.185517 4.45728C0.208299 4.42148 0.23271 4.38568 0.260374 4.35313C0.288039 4.31733 0.317331 4.28478 0.346623 4.25549L0.349878 4.25224C0.437754 4.16436 0.541904 4.08788 0.657445 4.03092L0.662327 4.02929L0.719284 4.00163L0.725793 3.99837C0.865745 3.93816 1.02197 3.90399 1.18308 3.90399H1.18958C1.51668 3.90399 1.81448 4.03743 2.02929 4.25224C2.11717 4.34011 2.19365 4.44426 2.25061 4.55818L2.25387 4.56469L2.2799 4.62164L2.28153 4.62653C2.34174 4.76648 2.37592 4.9227 2.37592 5.08381V5.08544V5.09194V9.15378V9.33767L2.19203 9.34906C1.69081 9.37998 1.22864 9.54109 0.83808 9.79984C0.759967 9.85191 0.68511 9.90724 0.613507 9.96583C0.546786 10.0212 0.47681 10.083 0.408462 10.153L0.380797 10.1758ZM10.6786 13.5655L10.8788 13.6404L10.965 13.7038C10.9797 13.7234 10.9976 13.7396 11.0187 13.7543L11.0448 13.7689V13.7705C11.0724 13.7836 11.1017 13.7901 11.1326 13.7901H11.1375C11.1668 13.7901 11.1928 13.7852 11.2172 13.7754L11.2368 13.7657L11.2563 13.7543L11.2628 13.751L11.2693 13.7478C11.3572 13.6973 11.4744 13.6094 11.6029 13.5037C11.7331 13.3946 11.8812 13.2612 12.0277 13.1245C12.3141 12.8544 12.6395 12.5289 12.7697 12.4003L12.7762 12.3938C13.188 11.9821 13.6078 11.7917 13.9772 11.7673C14.0521 11.7624 14.1269 11.764 14.1969 11.7722C14.2685 11.7803 14.3385 11.795 14.4052 11.8161H14.4068L14.415 11.8194H14.4166C14.5484 11.8617 14.6705 11.9284 14.7779 12.0146L14.7827 12.0195L14.8332 12.0635L14.843 12.0716L14.8902 12.1188L14.8983 12.1286L14.8999 12.1302L14.9015 12.1334C14.9927 12.2343 15.0659 12.3531 15.1196 12.4849L15.1229 12.4898L15.1473 12.5582L15.1505 12.5728L15.1701 12.6428L15.1717 12.6509L15.1733 12.6607C15.2661 13.048 15.1896 13.5183 14.8674 13.9902C14.8072 14.0797 14.7356 14.1709 14.6574 14.2587C14.5793 14.3466 14.4915 14.4361 14.3938 14.5224L14.3808 14.5338L14.3645 14.5484L14.3531 14.5598L14.3466 14.5663L10.3564 18.6021L10.2181 18.7535L10.2083 18.7437C9.98861 18.9439 9.7738 19.1164 9.55574 19.2644C9.29536 19.4402 9.03173 19.5818 8.75834 19.6892C8.48332 19.7982 8.19528 19.8763 7.89097 19.9268C7.58666 19.9756 7.26607 20 6.92433 20H4.33686C3.47437 20 2.67209 19.7461 2 19.3116C1.87144 19.2286 1.74451 19.1359 1.62246 19.0366C1.49878 18.9357 1.38324 18.8316 1.27746 18.7242L1.27421 18.7209C0.947111 18.3889 0.670464 18.0016 0.460537 17.5769C0.419854 17.4923 0.380797 17.4076 0.344996 17.323C0.123678 16.7958 0.00162734 16.2181 0 15.6127V15.6078V12.1953C0 11.8812 0.0585842 11.5785 0.162734 11.3019V11.3002C0.182262 11.2498 0.205045 11.1961 0.229455 11.1424C0.253865 11.0903 0.279902 11.0382 0.307567 10.9878L0.309194 10.9845L0.314076 10.9764L0.317331 10.9699C0.418226 10.812 0.538649 10.664 0.673718 10.5321L0.676973 10.5289L0.751831 10.4589L0.75834 10.454L0.836452 10.3873L0.842962 10.3808L0.846216 10.3775C1.01871 10.2392 1.21074 10.1221 1.41741 10.0342C1.46461 10.0146 1.51017 9.99512 1.54109 9.98535C1.79496 9.8926 2.06998 9.84215 2.35639 9.84215H2.3629H2.46705L2.51424 9.84866L2.55818 9.86005L2.59235 9.8633H5.40277H5.42067H5.43369H5.45159H8.262H8.27014H8.28153H8.28967H8.49797C8.91131 9.8633 9.30187 9.96908 9.64524 10.1546C9.71359 10.192 9.77868 10.2311 9.83889 10.2718H9.84052C9.89911 10.3108 9.96094 10.3564 10.0212 10.4052L10.0228 10.4068L10.026 10.4101C10.3222 10.6526 10.5631 10.965 10.7177 11.3214C10.7502 11.3946 10.7779 11.4662 10.799 11.5346C10.8234 11.6078 10.843 11.6827 10.8609 11.7575V11.7592L10.8625 11.7705L10.8657 11.7884C10.8674 11.8015 10.869 11.8145 10.8723 11.8242L10.8739 11.8291L10.8804 11.847L10.8836 11.8568L10.9032 11.9154L10.9129 12.0212V12.0277L10.9162 12.07V12.0765L10.9194 12.1513V12.1562V12.1969V12.1985V12.9194V13.1896L10.6623 13.105C10.262 12.9731 9.87958 12.8836 9.51831 12.8348C9.43694 12.8234 9.35883 12.8153 9.28722 12.8072C9.21399 12.8007 9.13751 12.7941 9.06102 12.7909L8.89504 12.786C8.43124 12.7795 8.00325 12.8462 7.62408 12.9764C7.54109 13.0057 7.46298 13.035 7.393 13.0659C7.31977 13.0985 7.24654 13.1326 7.17819 13.1701L7.06265 13.2368C6.69976 13.4548 6.3987 13.7478 6.16924 14.1058C6.12205 14.1806 6.07811 14.2522 6.04231 14.3222C6.00325 14.3954 5.96745 14.4752 5.93165 14.5566L5.93002 14.5614C5.81937 14.8251 5.73963 15.1147 5.69406 15.4288C5.6843 15.5004 5.67453 15.5704 5.66965 15.6371C5.66477 15.6924 5.65826 15.751 5.65663 15.8096L6.0895 15.8145C6.10252 15.5948 6.13507 15.3849 6.18226 15.1896C6.19691 15.1294 6.21155 15.0724 6.2262 15.022C6.24085 14.9731 6.25875 14.9178 6.2799 14.8625L6.33198 14.729C6.47681 14.3824 6.68674 14.0879 6.95037 13.8535C7.00244 13.808 7.05777 13.764 7.11147 13.7234C7.17168 13.6794 7.22864 13.6404 7.28397 13.6078L7.28723 13.6062L7.29211 13.6029C7.56876 13.4369 7.89097 13.3214 8.25224 13.2628C8.32547 13.2514 8.40521 13.24 8.48657 13.2335C8.56631 13.2254 8.64931 13.2221 8.72905 13.2189H8.73393H8.89341H8.89666C9.27095 13.2238 9.67616 13.2823 10.1074 13.393C10.2067 13.4174 10.2994 13.4451 10.3873 13.4727C10.4882 13.5037 10.5842 13.5362 10.6753 13.5671L10.6786 13.5655ZM7.85029 9.34256H5.86656H5.67128V9.14727V1.18959C5.67128 0.86249 5.80472 0.564687 6.01953 0.349878C6.1074 0.262002 6.21155 0.185517 6.32547 0.12856L6.33035 0.126932L6.38731 0.0992677L6.39382 0.096013C6.53377 0.0358015 6.68836 0.00162734 6.8511 0.00162734V0H6.85761V0.00162734C7.1847 0.00162734 7.48251 0.135069 7.69731 0.349878C7.78519 0.437754 7.86005 0.541904 7.91863 0.655818L7.92189 0.6607L7.94793 0.717657L7.95118 0.724166C8.01139 0.864117 8.04557 1.01871 8.04557 1.18145V1.18308V1.18959V9.14565V9.34093H7.85029V9.34256ZM8.72742 9.35069L8.69162 9.34744L8.50936 9.33279V9.15216V3.0952C8.50936 2.7681 8.6428 2.4703 8.85761 2.25549C8.94548 2.16762 9.04963 2.09276 9.16517 2.03417L9.17168 2.03092L9.22864 2.00488L9.23352 2.00163C9.37347 1.94142 9.52807 1.90724 9.69081 1.90724H9.69732C9.9284 1.90724 10.1465 1.97559 10.3303 2.09276L10.332 2.09439C10.3678 2.11554 10.402 2.14158 10.4345 2.16762L10.4361 2.16924C10.4703 2.19528 10.5028 2.22457 10.5321 2.25387L10.5354 2.25712C10.6233 2.345 10.6998 2.44915 10.7567 2.56306L10.7583 2.56794L10.786 2.6249L10.7893 2.63141C10.8495 2.77136 10.8836 2.92758 10.8836 3.08869V3.0952V10.0765L10.5468 10.2132L10.5142 10.1806C10.179 9.8454 9.76078 9.59154 9.29536 9.45647C9.2026 9.4288 9.10659 9.40602 9.01383 9.38975C8.92433 9.37185 8.82669 9.35883 8.72742 9.35069ZM4.99268 9.34256H3.00895H2.81204V9.14727V5.09032V3.07567C2.81204 2.84459 2.88039 2.6249 2.99756 2.44101C3.02034 2.40358 3.04638 2.36778 3.07242 2.33523C3.10008 2.29943 3.12937 2.26688 3.15704 2.23922L3.16029 2.23596C3.24817 2.14809 3.35232 2.07323 3.46786 2.01465L3.47274 2.01302L3.5297 1.98698L3.53621 1.98373C3.67616 1.92352 3.83076 1.88934 3.99349 1.88934H4C4.3271 1.88934 4.6249 2.02278 4.83971 2.23759C4.92758 2.32547 5.00244 2.42962 5.06103 2.54353L5.06265 2.54841L5.09032 2.60537L5.09357 2.61188C5.15378 2.75183 5.18796 2.90806 5.18796 3.06916V3.07567V9.14565V9.34093H4.99268V9.34256Z" fill="white"/>
</g>
</g>
</svg>
