<svg width="20" height="19" viewBox="0 0 20 19" fill="none" xmlns="http://www.w3.org/2000/svg">
<g id="Group 103">
<path id="Vector" fill-rule="evenodd" clip-rule="evenodd" d="M7.52096 11.4407C7.01026 10.9867 6.60657 10.6592 6.52065 9.71568H6.46553C6.33879 9.71545 6.21426 9.6825 6.10399 9.62002C5.9215 9.5058 5.78142 9.33498 5.70516 9.13365C5.52034 8.71213 5.38091 7.59995 5.8381 7.28219L5.75218 7.22382L5.74083 7.10223C5.723 6.8785 5.71975 6.61586 5.71489 6.32403C5.69868 5.27833 5.6776 4.01214 4.83617 3.7576L4.47626 3.64898L4.71296 3.35553C5.33481 2.56795 6.04162 1.85135 6.82058 1.21873C7.61985 0.584825 8.44993 0.163301 9.25407 0.0384655C9.6736 -0.0303339 10.1031 -0.00663626 10.5125 0.1079C10.9219 0.222437 11.3014 0.425047 11.6243 0.701555C11.8571 0.891935 12.0701 1.10541 12.2599 1.3387C12.6362 1.38001 12.9996 1.50011 13.3264 1.69117C13.6532 1.88224 13.9361 2.13998 14.1567 2.44764C14.4366 2.82228 14.6459 3.24475 14.7744 3.69437C14.9068 4.15329 14.9616 4.63112 14.9365 5.1081C14.9114 5.96899 14.5596 6.78804 13.9524 7.39892C14.0593 7.40138 14.1642 7.42857 14.2589 7.47836C14.609 7.6648 14.6204 8.07173 14.5296 8.41382C14.4372 8.69916 14.3221 9.02989 14.2054 9.30874C14.0724 9.68325 13.8811 9.75297 13.5034 9.71243C13.4855 10.6414 13.0559 10.8959 12.4787 11.4407C12.503 12.8398 7.4788 12.6744 7.50961 11.4407H7.52096ZM7.25994 12.5934L8.75472 16.5184L9.50698 14.3784L9.13896 13.9763C8.86173 13.571 8.95738 13.1122 9.46321 13.0295C9.64852 13.011 9.83501 13.0072 10.0209 13.0182C10.2244 13.005 10.4287 13.0131 10.6305 13.0425C11.1072 13.1462 11.1574 13.6083 10.9191 13.9763L10.5511 14.3784L11.3033 16.5184L12.6538 12.5934C13.6266 13.4721 17.0668 13.6488 18.1417 14.2471C19.63 15.0804 19.5895 16.6903 19.9154 18.1818H0C0.324249 16.7 0.290203 15.0674 1.77364 14.2471C3.09496 13.5126 6.17857 13.5678 7.25994 12.5934Z" fill="white"/>
</g>
</svg>
