<svg width="76" height="76" viewBox="0 0 76 76" fill="none" xmlns="http://www.w3.org/2000/svg">
<g id="Group 109">
<g id="Rectangle 14" filter="url(#filter0_d_173_251)">
<rect x="10" y="6" width="56" height="56" rx="28" fill="white" fill-opacity="0.1" shape-rendering="crispEdges"/>
<rect x="10.5" y="6.5" width="55" height="55" rx="27.5" stroke="url(#paint0_linear_173_251)" shape-rendering="crispEdges"/>
</g>
<g id="Group">
<path id="Vector" d="M31.9067 33.4303C32.6283 34.73 33.4571 35.9772 34.5385 37.1173C35.6179 38.2634 36.9642 39.3044 38.7066 40.1938C38.836 40.2564 38.9593 40.2564 39.0664 40.214C39.2321 40.1513 39.4019 40.0139 39.5677 39.8481C39.6971 39.7188 39.8567 39.5126 40.0245 39.2882C40.6936 38.4069 41.5244 37.3133 42.6947 37.8591C42.721 37.8712 42.7412 37.8854 42.7655 37.8975L46.6728 40.1432C46.6849 40.1493 46.6991 40.1635 46.7112 40.1695C47.2266 40.5233 47.4389 41.0711 47.4449 41.6896C47.4449 42.3203 47.2125 43.0298 46.8729 43.6261C46.4241 44.4164 45.7591 44.9399 44.995 45.2856C44.2674 45.6211 43.4568 45.801 42.6786 45.9163C41.4556 46.0962 40.3115 45.9809 39.1412 45.6211C37.9951 45.2674 36.8429 44.6812 35.5836 43.903L35.4906 43.8444C34.9125 43.4846 34.2879 43.0965 33.6754 42.6417C31.4317 40.9478 29.1476 38.5039 27.6598 35.8135C26.4106 33.5536 25.7294 31.1158 26.1014 28.7913C26.3075 27.5178 26.8533 26.3596 27.8074 25.5935C28.6382 24.9244 29.756 24.5565 31.2053 24.6859C31.3711 24.698 31.5206 24.795 31.5975 24.9365L34.1019 29.1693C34.4678 29.6443 34.5143 30.1153 34.3142 30.5862C34.1484 30.9723 33.8129 31.3281 33.356 31.6596C33.2206 31.7748 33.0609 31.892 32.8931 32.0133C32.3332 32.4196 31.6965 32.8886 31.9148 33.4424L31.9067 33.4303ZM40.827 23.5276C40.7239 23.5196 40.6269 23.4913 40.54 23.4468C40.449 23.4003 40.3702 23.3376 40.3055 23.2628C40.2408 23.186 40.1903 23.0991 40.1579 23.0021C40.1296 22.9091 40.1175 22.8101 40.1256 22.707L40.1276 22.6928C40.1357 22.5938 40.164 22.5008 40.2064 22.4179L40.2145 22.4038C40.259 22.3189 40.3196 22.2441 40.3904 22.1855C40.4652 22.1208 40.5541 22.0702 40.6511 22.0379C40.7421 22.0076 40.8391 21.9955 40.9382 22.0015L40.9584 22.0035C41.6517 22.0581 42.3208 22.1632 42.9636 22.3168C43.6124 22.4725 44.231 22.6807 44.8151 22.9334C45.4034 23.1901 45.9572 23.4953 46.4727 23.847C46.9861 24.1987 47.4651 24.5969 47.8997 25.0396C48.3303 25.4783 48.7204 25.9614 49.0661 26.4849C49.4077 27.0044 49.7048 27.5643 49.9555 28.1586C50.198 28.7407 50.3961 29.3593 50.5457 30.0142C50.6912 30.655 50.7903 31.3281 50.8388 32.0315L50.8408 32.0659V32.1023C50.8408 32.1952 50.8247 32.2862 50.7943 32.3711C50.762 32.4621 50.7135 32.5429 50.6508 32.6137C50.5882 32.6844 50.5134 32.743 50.4285 32.7875C50.3496 32.83 50.2587 32.8562 50.1637 32.8684L50.1232 32.8724H50.0848C49.9898 32.8744 49.8989 32.8583 49.814 32.8259C49.725 32.7936 49.6422 32.7451 49.5714 32.6824C49.4966 32.6177 49.434 32.5369 49.3895 32.4459C49.347 32.359 49.3187 32.2599 49.3127 32.1589C49.2702 31.5343 49.1853 30.94 49.058 30.3801C48.9306 29.808 48.7588 29.2683 48.5486 28.761C48.3384 28.2516 48.0857 27.7745 47.7967 27.3339C47.5036 26.8871 47.1741 26.4788 46.8102 26.1069C46.4423 25.733 46.0401 25.3974 45.6035 25.1003C45.1648 24.8011 44.6918 24.5424 44.1865 24.3241L44.1784 24.32C43.6771 24.1037 43.1455 23.9259 42.5856 23.7924C42.0277 23.6651 41.4415 23.5741 40.827 23.5276ZM39.1452 30.7358C39.0421 30.7257 38.9451 30.6934 38.8602 30.6489C38.7713 30.6004 38.6924 30.5357 38.6318 30.4589C38.5732 30.3861 38.5267 30.3012 38.4964 30.2103C38.4681 30.1254 38.4559 30.0344 38.46 29.9414C38.462 29.9152 38.462 29.8949 38.466 29.8707C38.4802 29.7737 38.5125 29.6827 38.557 29.6039C38.6035 29.521 38.6662 29.4482 38.7389 29.3896C38.8117 29.331 38.8966 29.2845 38.9876 29.2542C39.0725 29.2279 39.1634 29.2137 39.2584 29.2178L39.3292 29.2238C39.6303 29.2562 39.9194 29.3087 40.1983 29.3795C40.4813 29.4523 40.7502 29.5452 41.0029 29.6544L41.0109 29.6584C41.2677 29.7716 41.5082 29.903 41.7326 30.0546C41.959 30.2082 42.1692 30.3801 42.3632 30.5741C42.5553 30.7661 42.7291 30.9743 42.8827 31.2007C43.0363 31.4251 43.1698 31.6657 43.285 31.9244C43.3961 32.1771 43.4891 32.4459 43.5619 32.7289C43.6326 33.0058 43.6832 33.3009 43.7155 33.6122C43.7256 33.7153 43.7155 33.8164 43.6892 33.9094L43.6872 33.9175C43.6589 34.0104 43.6104 34.0974 43.5518 34.1721L43.5498 34.1762C43.4871 34.253 43.4103 34.3157 43.3214 34.3642C43.2365 34.4107 43.1394 34.441 43.0363 34.4511H43.0262C42.9272 34.4592 42.8302 34.4491 42.7392 34.4228C42.6422 34.3945 42.5532 34.346 42.4764 34.2833H42.4744C42.3976 34.2207 42.3329 34.1438 42.2844 34.0529C42.2379 33.968 42.2076 33.871 42.1975 33.7699V33.7618C42.1752 33.5415 42.1389 33.3313 42.0883 33.1311C42.0378 32.927 41.9731 32.737 41.8963 32.5611C41.8195 32.3853 41.7305 32.2215 41.6295 32.0719C41.5264 31.9203 41.4132 31.7829 41.2879 31.6576C41.1625 31.5322 41.0231 31.419 40.8715 31.318C40.7199 31.2169 40.5541 31.128 40.3742 31.0491L40.3641 31.0451C40.1882 30.9683 39.9982 30.9056 39.7981 30.8551C39.5879 30.7965 39.3716 30.7601 39.1452 30.7358ZM39.9538 27.255H39.9336L39.9073 27.251C39.8123 27.2409 39.7233 27.2126 39.6445 27.1722C39.5596 27.1277 39.4848 27.0691 39.4221 27.0003C39.3575 26.9276 39.3069 26.8447 39.2746 26.7517C39.2443 26.6648 39.2281 26.5718 39.2301 26.4728V26.4384L39.2342 26.4061C39.2443 26.3131 39.2726 26.2241 39.313 26.1453C39.3575 26.0604 39.4161 25.9836 39.4848 25.923C39.5596 25.8563 39.6465 25.8057 39.7435 25.7714C39.8365 25.739 39.9356 25.7249 40.0387 25.7309C40.5763 25.7633 41.0877 25.832 41.5709 25.9351C42.056 26.0382 42.5148 26.1777 42.9413 26.3515C43.3719 26.5273 43.7741 26.7396 44.1461 26.9862C44.514 27.2308 44.8535 27.5118 45.1588 27.8291C45.462 28.1424 45.7328 28.4901 45.9673 28.8701C46.1998 29.2461 46.3999 29.6544 46.5616 30.093C46.7193 30.5216 46.8446 30.9824 46.9335 31.4756C47.0204 31.9608 47.073 32.4722 47.0892 33.0159L47.0912 33.0442C47.0912 33.1412 47.073 33.2363 47.0366 33.3232C47.0002 33.4141 46.9477 33.495 46.883 33.5657C46.8163 33.6385 46.7334 33.6971 46.6404 33.7375C46.5535 33.778 46.4545 33.8002 46.3514 33.8043H46.317C46.22 33.8022 46.129 33.784 46.0441 33.7497C45.9532 33.7133 45.8723 33.6607 45.8036 33.5961C45.7308 33.5273 45.6722 33.4465 45.6298 33.3535C45.5893 33.2646 45.5671 33.1675 45.563 33.0624C45.5509 32.6096 45.5064 32.1831 45.4357 31.7809C45.365 31.3746 45.2639 30.9966 45.1386 30.6489C45.0132 30.3012 44.8596 29.9819 44.6817 29.6888C44.5018 29.3936 44.2957 29.1288 44.0652 28.8883C43.8307 28.6478 43.572 28.4315 43.287 28.2435C43 28.0535 42.6826 27.8897 42.343 27.7523L42.3349 27.7483C41.9913 27.6128 41.6234 27.5016 41.2292 27.4188C40.8331 27.3359 40.4106 27.2793 39.9659 27.253L39.9538 27.255Z" fill="white"/>
</g>
</g>
<defs>
<filter id="filter0_d_173_251" x="0" y="0" width="76" height="76" filterUnits="userSpaceOnUse" color-interpolation-filters="sRGB">
<feFlood flood-opacity="0" result="BackgroundImageFix"/>
<feColorMatrix in="SourceAlpha" type="matrix" values="0 0 0 0 0 0 0 0 0 0 0 0 0 0 0 0 0 0 127 0" result="hardAlpha"/>
<feOffset dy="4"/>
<feGaussianBlur stdDeviation="5"/>
<feComposite in2="hardAlpha" operator="out"/>
<feColorMatrix type="matrix" values="0 0 0 0 0 0 0 0 0 0 0 0 0 0 0 0 0 0 0.25 0"/>
<feBlend mode="normal" in2="BackgroundImageFix" result="effect1_dropShadow_173_251"/>
<feBlend mode="normal" in="SourceGraphic" in2="effect1_dropShadow_173_251" result="shape"/>
</filter>
<linearGradient id="paint0_linear_173_251" x1="38" y1="6" x2="38" y2="62" gradientUnits="userSpaceOnUse">
<stop stop-color="white" stop-opacity="0.2"/>
<stop offset="1" stop-color="white" stop-opacity="0.1"/>
</linearGradient>
</defs>
</svg>
