<svg width="15" height="18" viewBox="0 0 15 18" fill="none" xmlns="http://www.w3.org/2000/svg">
    <g id="Group">
        <path id="Vector" d="M4.64941 2.3584H4.81787V2.15332H5.05371V1.90576H5.22217V0.127441C5.22217 0.0571289 5.2793 0 5.34961 0C5.41992 0 5.47705 0.0571289 5.47705 0.127441V0.322266C6.83936 1.05762 6.9624 -0.689941 8.34082 0.569824C7.84424 0.556641 7.4707 0.789551 7.03564 1.04004C6.61084 1.28467 6.19775 1.51465 5.69531 1.51904C5.60742 1.52051 5.53271 1.51465 5.47559 1.50879V1.9043H5.63818V2.15186H5.87402V2.35693H6.04248V2.91797H6.25781C7.49854 4.8252 8.18701 6.30908 8.44922 8.55908C8.45361 8.5957 8.45801 8.63232 8.46094 8.66895C8.76709 7.77246 9.25049 6.96973 9.85693 6.03809H10.1133V5.58984H10.248V5.42578H10.437V5.22803H10.5469V3.80566C10.5469 3.73535 10.604 3.67822 10.6743 3.67822C10.7446 3.67822 10.8018 3.73535 10.8018 3.80566V3.97559C11.8667 4.52783 11.9736 3.15967 13.0679 4.16016C12.6709 4.1499 12.3721 4.33594 12.0249 4.53662C11.6851 4.73291 11.354 4.91602 10.9526 4.92041C10.8955 4.92041 10.8442 4.91895 10.8032 4.91455V5.22803H10.9087V5.42578H11.0977V5.58984H11.2324V6.03809H11.4038C12.3955 7.56445 12.9478 8.74951 13.1558 10.5513C13.2041 10.9731 13.2305 11.4082 13.2261 11.8594L13.8252 12.1948H14.0142V12.3179H14.2207V12.4409H14.3613L14.3555 12.5625H13.6582L13.4062 12.8188C13.3784 12.9697 13.3828 13.0796 13.4062 13.1631H13.5557V13.2656C13.2715 13.415 13.1836 13.686 13.1836 13.9849L13.2583 14.0347C13.2188 14.1431 13.1646 14.231 13.0913 14.2896V14.748H13.2407V14.9824H13.0869C13.0869 16.0269 13.0869 15.4878 13.0869 16.437H13.4854V16.7842H13.9248V17.1621H14.3745V17.4375H14.8652V18C9.87598 18 4.97754 17.9634 0 17.9634V17.2588H0.61377V16.9131H1.17627V16.4399H1.72559V16.0049H2.22363C2.22363 14.8184 2.22363 15.4014 2.22363 14.0947H2.03174V13.8003H2.21777V13.2275C2.12549 13.1558 2.05811 13.0459 2.0083 12.9097L2.10205 12.8481C2.10205 12.4746 1.99219 12.1362 1.63623 11.9487V11.8213H1.82373C1.85303 11.7173 1.85742 11.5796 1.82373 11.3906L1.51025 11.0713H0.638672L0.626953 10.9219H0.802734V10.7681H1.06201V10.6143H1.29932L2.04785 10.1938C2.04199 9.62842 2.07568 9.08496 2.13721 8.55762C2.39795 6.30615 3.08789 4.82373 4.32861 2.9165H4.64941V2.3584ZM5.47119 11.6646L6.00879 12.6519L6.37061 11.5986C6.39844 11.5942 6.42627 11.5913 6.4541 11.5869C7.62891 12.9858 7.1499 14.3745 7.1499 16.2671H3.46436C3.46436 14.6323 3.03955 12.936 4.11914 11.5503C4.12207 11.5518 4.125 11.5518 4.12793 11.5532C4.20703 11.5693 4.2876 11.5854 4.37109 11.5972L4.80029 12.5581L5.24707 11.6646C5.27637 11.6646 5.30713 11.6646 5.33643 11.6646C5.38037 11.666 5.42578 11.666 5.47119 11.6646ZM6.34277 11.4639C6.03223 11.5049 5.68506 11.5283 5.33496 11.5283C4.94824 11.5283 4.56006 11.4976 4.21729 11.4302C4.48389 11.1284 4.83252 10.8823 5.28662 10.7183C5.729 10.9277 6.07324 11.1782 6.34277 11.4639ZM10.6157 12.189C12.5874 13.1235 12.0425 14.3364 12.0425 16.2671H9.21973C9.21973 14.6792 8.70703 12.8848 10.6157 12.189Z" fill="white"/>
    </g>
</svg>
