<svg width="18" height="18" viewBox="0 0 18 18" fill="none" xmlns="http://www.w3.org/2000/svg">
<g id="Group">
<path id="Vector" fill-rule="evenodd" clip-rule="evenodd" d="M17.9048 1.80908V3.35303C17.9048 3.54199 17.7275 3.69727 17.5107 3.69727H11.4038C10.9878 4.56445 10.1016 5.16357 9.07471 5.16357C8.04932 5.16357 7.16309 4.56445 6.74707 3.69727H0.394043C0.178711 3.69727 0 3.54199 0 3.35303V1.80908C0 1.62012 0.177246 1.46484 0.394043 1.46484H6.74707C7.16309 0.597656 8.04932 0 9.07471 0C10.1001 0 10.9863 0.599121 11.4023 1.46484H17.5093C17.7275 1.46484 17.9048 1.62012 17.9048 1.80908ZM7.26123 16.5352C6.84522 17.4023 5.95898 18 4.93213 18C3.90674 18 3.02051 17.4023 2.60449 16.5352H0.394043C0.177246 16.5352 0 16.3799 0 16.1909V14.647C0 14.458 0.177246 14.3027 0.394043 14.3027H2.60449C3.02051 13.4355 3.90674 12.8364 4.93213 12.8364C5.95752 12.8364 6.84375 13.4355 7.25977 14.3027H17.5093C17.7261 14.3027 17.9033 14.458 17.9033 14.647V16.1909C17.9033 16.3799 17.7246 16.5352 17.5093 16.5352H7.26123ZM15.252 10.2144C14.8359 11.0815 13.9497 11.6807 12.9243 11.6807C11.8989 11.6807 11.0127 11.0815 10.5952 10.2144H0.394043C0.178711 10.2144 0 10.0591 0 9.87012V8.32764C0 8.13867 0.177246 7.9834 0.394043 7.9834H10.5952C11.0112 7.11621 11.8975 6.51855 12.9229 6.51855C13.9482 6.51855 14.8345 7.11768 15.2505 7.9834H17.5093C17.7261 7.9834 17.9033 8.13867 17.9033 8.32764V9.87012C17.9033 10.0591 17.7261 10.2144 17.5093 10.2144H15.252Z" fill="white"/>
</g>
</svg>
