<svg width="23" height="28" viewBox="0 0 23 28" fill="none" xmlns="http://www.w3.org/2000/svg">
<g id="Group 39560">
<path id="Vector" d="M0.729743 22.4452C0.838015 22.337 0.980122 22.2829 1.12229 22.2829C1.26447 22.2829 1.40664 22.337 1.51485 22.4452C1.73133 22.6617 1.73133 23.0139 1.51485 23.2304C1.29837 23.4468 0.946222 23.4468 0.729743 23.2304C0.513263 23.0139 0.513263 22.6616 0.729743 22.4452ZM2.20495 23.9205C2.30984 23.8157 2.44922 23.7579 2.59751 23.7579C2.74579 23.7579 2.88517 23.8156 2.99006 23.9206C3.09495 24.0254 3.15266 24.1648 3.15266 24.3131C3.15266 24.4614 3.09495 24.6008 2.99006 24.7057C2.93864 24.7574 2.87746 24.7984 2.81008 24.8263C2.7427 24.8542 2.67044 24.8685 2.59751 24.8683C2.52457 24.8685 2.45233 24.8542 2.38495 24.8263C2.31757 24.7984 2.25639 24.7574 2.20495 24.7057C1.98854 24.4892 1.98854 24.137 2.20495 23.9205ZM3.68023 25.3958C3.73175 25.3442 3.79296 25.3033 3.86034 25.2754C3.92771 25.2476 3.99993 25.2333 4.07285 25.2334C4.21502 25.2334 4.35719 25.2876 4.4654 25.3958C4.68188 25.6123 4.68188 25.9645 4.4654 26.1809C4.24892 26.3974 3.89671 26.3973 3.68023 26.1809C3.46381 25.9645 3.46381 25.6122 3.68023 25.3958ZM5.94067 27.6562C5.74222 27.8546 5.43002 27.8706 5.21257 27.7052L5.20984 27.7022C5.19271 27.6854 5.17438 27.6698 5.15498 27.6556C4.93909 27.4392 4.93922 27.0873 5.1555 26.8711C5.26378 26.7629 5.40588 26.7087 5.54806 26.7087C5.69023 26.7087 5.8324 26.7629 5.94061 26.8711C6.15715 27.0875 6.15715 27.4398 5.94067 27.6562ZM9.62057 22.6014L6.29406 25.9279C6.08155 25.8096 5.84387 25.7437 5.60076 25.7356C5.58794 25.3613 5.44063 24.9907 5.1555 24.7056C4.87083 24.421 4.50106 24.2738 4.12744 24.2605C4.11533 23.8726 3.95533 23.504 3.68023 23.2303C3.40653 22.9552 3.03796 22.7952 2.65008 22.7831C2.64435 22.6173 2.61177 22.4535 2.55358 22.2981L5.30711 20.2692C5.60065 20.0526 5.83125 19.7618 5.97522 19.4266C6.11919 19.0914 6.17134 18.7239 6.12631 18.3619L5.37602 12.3598C5.26477 11.4766 5.32849 10.5802 5.56354 9.72167L8.07534 0.512016C8.11568 0.365081 8.20309 0.235431 8.32419 0.142946C8.44528 0.0504602 8.59336 0.000245208 8.74574 0C9.12892 0 9.44059 0.311739 9.44059 0.694856V8.05555C8.82551 8.3397 8.39743 8.96207 8.39743 9.68296V12.5517C8.39743 12.6811 8.44884 12.8053 8.54036 12.8968C8.63188 12.9883 8.75601 13.0397 8.88544 13.0397C9.01486 13.0397 9.13899 12.9883 9.23051 12.8968C9.32203 12.8053 9.37344 12.6811 9.37344 12.5517V9.68296C9.37344 9.23302 9.73945 8.86701 10.1894 8.86701C10.6393 8.86701 11.0054 9.23302 11.0054 9.68296V19.2582C11.0053 20.5211 10.5136 21.7084 9.62057 22.6014ZM17.3996 27.894C17.2575 27.8942 17.1208 27.8396 17.0178 27.7417C16.7957 27.531 16.7864 27.1788 16.997 26.9568L19.2966 24.5327C19.3407 24.4862 19.3753 24.4315 19.3982 24.3717C19.4212 24.3118 19.4321 24.2481 19.4304 24.184C19.4287 24.12 19.4145 24.0568 19.3884 23.9983C19.3623 23.9398 19.325 23.8869 19.2785 23.8428C19.232 23.7987 19.1773 23.7642 19.1174 23.7412C19.0576 23.7183 18.9938 23.7073 18.9298 23.709C18.8004 23.7124 18.6776 23.7671 18.5886 23.861L16.6592 25.8946L13.366 22.6013C12.473 21.7083 11.9812 20.5211 11.9812 19.2582V9.68296C11.9812 9.23302 12.3472 8.86701 12.7972 8.86701C13.2472 8.86701 13.6132 9.23302 13.6132 9.68296V15.1596C13.6132 15.2891 13.6646 15.4132 13.7561 15.5047C13.8476 15.5962 13.9718 15.6476 14.1012 15.6476C14.2306 15.6476 14.3547 15.5962 14.4463 15.5047C14.5378 15.4132 14.5892 15.2891 14.5892 15.1596V9.68296C14.5892 8.96207 14.1611 8.3397 13.546 8.05555V0.694856C13.546 0.311673 13.8578 0 14.2409 0C14.5534 0 14.8291 0.210558 14.9113 0.512016L17.423 9.72174C17.658 10.5803 17.7217 11.4767 17.6105 12.3598L16.8602 18.362C16.8152 18.724 16.8674 19.0915 17.0113 19.4267C17.1553 19.7618 17.3859 20.0527 17.6794 20.2692L20.22 22.1412L19.9018 22.4767C19.8576 22.5232 19.8231 22.5779 19.8002 22.6377C19.7772 22.6975 19.7663 22.7613 19.7679 22.8254C19.7713 22.9548 19.826 23.0775 19.9199 23.1666C20.0138 23.2557 20.1392 23.3038 20.2686 23.3004C20.398 23.297 20.5207 23.2423 20.6098 23.1484L21.4742 22.2373C21.685 22.0152 22.0371 22.0059 22.2591 22.2164C22.4812 22.4271 22.4905 22.7794 22.28 23.0014L17.8027 27.7208C17.751 27.7758 17.6886 27.8195 17.6192 27.8493C17.5499 27.8791 17.4751 27.8943 17.3996 27.894Z" fill="#9AA0AC"/>
</g>
</svg>
