<svg width="21" height="21" viewBox="0 0 21 21" fill="none" xmlns="http://www.w3.org/2000/svg">
<path d="M8.54295 0H8.54568V0.0011963C10.9039 0.0018799 13.0393 0.958407 14.5846 2.50403C16.1273 4.04742 17.083 6.18094 17.0845 8.53731H17.0857V8.54295V8.54979H17.0845C17.0837 9.49948 16.9278 10.4134 16.6412 11.2657C16.5932 11.4088 16.5429 11.5462 16.4913 11.6774V11.6786C16.2442 12.3041 15.9248 12.8954 15.5434 13.4401L20.5135 17.9072L20.5165 17.91L20.5434 17.9349L20.5453 17.9368C20.8259 18.2039 20.9787 18.5616 20.998 18.9246C21.0168 19.2835 20.9052 19.6506 20.6598 19.9451L20.6579 19.9478L20.628 19.9825L20.622 19.9885L20.597 20.0158L20.5943 20.0194C20.3268 20.3 19.9698 20.4525 19.6065 20.4716C19.2481 20.4906 18.8807 20.3793 18.5861 20.1336L18.5835 20.1317L18.5486 20.1018L18.5437 20.0977L13.4603 15.5288C13.3099 15.6348 13.1564 15.7354 13.001 15.8305C12.7903 15.9595 12.5721 16.081 12.3494 16.1919C11.2045 16.7631 9.91083 17.0844 8.54312 17.0844V17.0856H8.54039V17.0844C6.18214 17.0837 4.0464 16.1271 2.50112 14.5815C0.957895 13.0381 0.0027344 10.9043 0.0011963 8.54859H0V8.54295V8.54021H0.0011963C0.0018799 6.18197 0.958407 4.04623 2.50403 2.50095C4.04742 0.958407 6.18094 0.0027344 8.53731 0.0011963V0H8.54295ZM8.54568 1.91579V1.91699H8.54295H8.53731V1.91579C6.71107 1.91699 5.05573 2.6592 3.85738 3.85704C2.6592 5.05488 1.9163 6.71193 1.91579 8.54039H1.91699V8.54312V8.54876H1.91579C1.91699 10.375 2.65869 12.0295 3.85704 13.2282C5.05488 14.4265 6.71193 15.1694 8.54021 15.1698V15.1686H8.54295H8.54859V15.1698C10.3748 15.1686 12.0295 14.4267 13.2282 13.2285C14.4264 12.0307 15.1693 10.3741 15.1696 8.54585H15.1686V8.54312V8.53748H15.1696C15.1686 6.71124 14.4262 5.05591 13.2285 3.85755C12.0307 2.6592 10.3741 1.9163 8.54568 1.91579Z" fill="white"/>
</svg>
