<svg width="29" height="28" viewBox="0 0 29 28" fill="none" xmlns="http://www.w3.org/2000/svg">
<path d="M11.6834 0H11.6872V0.00163607C14.9123 0.00257097 17.8327 1.31073 19.9461 3.42453C22.0559 5.5353 23.3629 8.45312 23.365 11.6757H23.3666V11.6834V11.6928H23.365C23.3638 12.9916 23.1507 14.2415 22.7587 15.4071C22.693 15.6028 22.6243 15.7907 22.5537 15.9702V15.9718C22.2158 16.8272 21.7789 17.6359 21.2572 18.3808L28.0544 24.4901L28.0586 24.4939L28.0953 24.528L28.0979 24.5306C28.4817 24.8959 28.6906 25.3851 28.717 25.8815C28.7427 26.3723 28.5901 26.8744 28.2545 27.2771L28.2519 27.2808L28.211 27.3282L28.2028 27.3364L28.1687 27.3738L28.165 27.3787C27.7992 27.7625 27.311 27.971 26.8141 27.9972C26.3239 28.0231 25.8214 27.871 25.4185 27.5349L25.415 27.5323L25.3673 27.4914L25.3605 27.4858L18.4084 21.2374C18.2027 21.3823 17.9928 21.52 17.7804 21.6499C17.4922 21.8264 17.1937 21.9926 16.8892 22.1442C15.3235 22.9253 13.5542 23.3647 11.6837 23.3647V23.3664H11.6799V23.3647C8.45475 23.3638 5.5339 22.0557 3.42056 19.9418C1.31003 17.8311 0.00373959 14.9128 0.00163607 11.6911H0V11.6834V11.6797H0.00163607C0.00257097 8.45452 1.31073 5.53366 3.42453 3.42033C5.5353 1.31073 8.45312 0.00373959 11.6757 0.00163607V0H11.6834ZM11.6872 2.62005V2.62169H11.6834H11.6757V2.62005C9.17813 2.62169 6.91427 3.63675 5.2754 5.27493C3.63675 6.91311 2.62075 9.1793 2.62005 11.6799H2.62169V11.6837V11.6914H2.62005C2.62169 14.189 3.63605 16.4516 5.27493 18.091C6.91311 19.7299 9.1793 20.7459 11.6797 20.7463V20.7447H11.6834H11.6911V20.7463C14.1887 20.7447 16.4516 19.7301 18.091 18.0915C19.7296 16.4533 20.7456 14.1878 20.7461 11.6874H20.7447V11.6837V11.6759H20.7461C20.7447 9.17837 19.7294 6.91451 18.0915 5.27563C16.4533 3.63675 14.1878 2.62075 11.6872 2.62005Z" fill="white"/>
</svg>
