<svg width="24" height="24" viewBox="0 0 24 24" fill="none" xmlns="http://www.w3.org/2000/svg">
<path id="Vector" fill-rule="evenodd" clip-rule="evenodd" d="M0.454543 8.70777L22.9131 0.0739361C23.041 0.0104059 23.1852 -0.0129715 23.3267 0.00686863C23.4682 0.0267088 23.6004 0.0888405 23.706 0.185118C23.8115 0.281396 23.8855 0.407326 23.9183 0.546398C23.951 0.685471 23.941 0.831194 23.8895 0.964465L15.2967 23.5421C15.2475 23.672 15.1613 23.7845 15.0487 23.8658C14.9361 23.9471 14.8022 23.9936 14.6634 23.9994C14.5247 24.0052 14.3873 23.9702 14.2683 23.8986C14.1493 23.827 14.054 23.7221 13.9941 23.5968L10.5316 16.4335L17.4039 6.59667L7.58658 13.4494L0.401814 10.0084C0.277056 9.94845 0.172581 9.85327 0.101281 9.73463C0.0299811 9.61598 -0.00502502 9.47906 0.000582006 9.34075C0.00618903 9.20245 0.0521639 9.06881 0.132834 8.95632C0.213504 8.84384 0.32534 8.75744 0.454543 8.70777Z" fill="#888888"/>
</svg>
