<svg width="21" height="20" viewBox="0 0 21 20" fill="none" xmlns="http://www.w3.org/2000/svg">
<path fill-rule="evenodd" clip-rule="evenodd" d="M2.00028 9.24709H5.89323C5.89323 9.25687 5.89323 9.26828 5.89323 9.27807V14.3464H0.963458V10.1959C0.963458 9.67421 1.43133 9.24709 2.00028 9.24709ZM3.31912 4.4298C2.45022 3.82173 1.90409 3.05227 1.69869 2.36758C1.55197 1.87525 1.56338 1.3976 1.73455 0.993307C1.93181 0.530325 2.31002 0.192871 2.87081 0.0575627C3.65495 -0.133173 4.87435 0.140704 6.48989 1.23947C6.6953 1.37967 7.06699 1.63887 7.43216 1.89482C7.86416 2.19641 8.28313 2.48985 8.63689 2.73438C9.01347 2.36432 9.52861 2.13446 10.0976 2.13446C10.7203 2.13446 11.2778 2.40833 11.6593 2.84034C12.0424 2.57625 12.5217 2.24042 13.0173 1.89319C13.3824 1.63724 13.7558 1.37641 13.9595 1.23784C15.5735 0.139074 16.7945 -0.134803 17.5786 0.0559325C18.1394 0.192871 18.5176 0.528695 18.7149 0.991677C18.8861 1.39597 18.8975 1.87525 18.7507 2.36595C18.5453 3.05064 17.9992 3.8201 17.1303 4.42817H19.3278C19.7142 4.42817 20.0305 4.72161 20.0305 5.08026V7.4457C20.0305 7.80435 19.7142 8.09779 19.3278 8.09779H0.702623C0.316262 8.09779 0 7.80435 0 7.4457V5.08189C0 4.72324 0.316262 4.4298 0.702623 4.4298H3.31912ZM13.9612 3.24301C13.5422 3.53644 13.1298 3.82336 12.7401 4.07931C13.1135 4.04996 13.5373 3.99617 13.9791 3.90976C14.2139 3.86412 14.4437 3.81195 14.6589 3.75163C14.8708 3.69295 15.0877 3.62285 15.3077 3.53807L15.311 3.53644C16.382 3.12563 17.0048 2.44909 17.1711 1.89482C17.2086 1.77092 17.2183 1.67963 17.2004 1.63561C17.1988 1.63398 17.1988 1.63235 17.1988 1.63235V1.63398C17.1988 1.63887 17.202 1.6568 17.1939 1.65517C16.8124 1.56225 16.069 1.797 14.892 2.59907C14.4731 2.88436 14.2155 3.06531 13.9612 3.24301ZM7.71255 4.07931C7.3213 3.82499 6.91049 3.53644 6.49152 3.24301C6.23721 3.06531 5.978 2.88436 5.5623 2.6007C4.38528 1.79863 3.6419 1.56388 3.26043 1.6568C3.25228 1.65844 3.25554 1.6405 3.25554 1.63561C3.25554 1.63561 3.25554 1.63561 3.25391 1.63887C3.23598 1.68289 3.24576 1.77255 3.28326 1.89808C3.44954 2.45235 4.07228 3.12889 5.14333 3.5397L5.14659 3.54134C5.36667 3.62611 5.58512 3.69621 5.79542 3.75489C6.01224 3.81521 6.24047 3.86738 6.47522 3.91302C6.91538 3.99454 7.33923 4.04996 7.71255 4.07931ZM7.74516 9.24709H18.0302C18.6008 9.24709 19.067 9.67421 19.067 10.1942V14.3464H7.74679V9.2797C7.74679 9.26828 7.74679 9.2585 7.74516 9.24709ZM19.0686 16.2244V19.0512C19.0686 19.5713 18.6024 19.9984 18.0318 19.9984H7.74679V16.2244H19.0686ZM5.89323 20H2.00028C1.43133 20 0.963458 19.5745 0.963458 19.0528V16.2244H5.89323V20Z" fill="#888888"/>
</svg>
