<svg width="19" height="18" viewBox="0 0 19 18" fill="none" xmlns="http://www.w3.org/2000/svg">
<g id="Group 39615">
<path id="Vector" d="M14.6161 3.04723e-07C15.2229 -0.0002463 15.8204 0.149189 16.3556 0.435066C16.8909 0.720943 17.3474 1.13443 17.6846 1.6389C18.0218 2.14336 18.2295 2.72322 18.289 3.3271C18.3486 3.93098 18.2583 4.54023 18.0261 5.10086C17.7939 5.66149 17.427 6.1562 16.9579 6.54114C16.4889 6.92608 15.9321 7.18938 15.3369 7.30769C14.7417 7.42601 14.1266 7.39569 13.5459 7.21942C12.9653 7.04316 12.4371 6.72639 12.0081 6.29719C11.9754 6.26442 11.9441 6.23166 11.9128 6.1974L7.27482 8.13362C7.38125 8.56957 7.40799 9.02117 7.35376 9.46664L12.0677 11.6635C12.7198 11.0444 13.5763 10.6861 14.4749 10.6563C15.3735 10.6265 16.2519 10.9274 16.9435 11.5019C17.6351 12.0765 18.092 12.8847 18.2275 13.7736C18.363 14.6625 18.1677 15.5701 17.6787 16.3247C17.1897 17.0792 16.441 17.6281 15.5743 17.8675C14.7076 18.1068 13.7832 18.0199 12.9763 17.6233C12.1694 17.2267 11.536 16.5478 11.1962 15.7154C10.8563 14.8829 10.8336 13.9548 11.1324 13.1067L6.75651 11.0603C6.33382 11.6927 5.72596 12.1791 5.01618 12.4527C4.3064 12.7263 3.52939 12.7738 2.79156 12.5887C2.05373 12.4036 1.39116 11.9949 0.894572 11.4187C0.397984 10.8425 0.0916615 10.1268 0.0175527 9.36972C-0.0565561 8.61265 0.105172 7.85118 0.48059 7.18958C0.856008 6.52798 1.42676 5.99861 2.11469 5.67395C2.80262 5.34928 3.57409 5.24521 4.32345 5.37598C5.07282 5.50675 5.76344 5.86596 6.30075 6.40443C6.36629 6.46996 6.43033 6.53847 6.48991 6.60848L11.0683 4.69906C10.9121 4.15021 10.8854 3.5726 10.9902 3.01165C11.095 2.45071 11.3285 1.92173 11.6724 1.4663C12.0162 1.01088 12.461 0.641424 12.9718 0.386993C13.4826 0.132563 14.0454 9.31912e-05 14.6161 3.04723e-07Z" fill="white"/>
</g>
</svg>
