<svg width="24" height="24" viewBox="0 0 24 24" fill="none" xmlns="http://www.w3.org/2000/svg">
<g id="Group 39505">
<path id="Vector" d="M3.2017 5.61532H9.58563L14.866 0.295103C15.2573 -0.0962658 15.8906 -0.0994092 16.2816 0.29196C16.4807 0.484736 16.5784 0.741598 16.5784 1.00165H16.5816V22.9941C16.5816 23.5475 16.1322 24 15.5754 24C15.2941 24 15.0404 23.8839 14.8568 23.6972L9.63766 19.4567H3.2017C2.321 19.4567 1.51969 19.0961 0.941594 18.518C0.360592 17.9399 0 17.1388 0 16.2581V8.81679C0 7.93609 0.360592 7.13501 0.938685 6.5572C1.54042 5.95522 2.34967 5.61532 3.2017 5.61532ZM21.1301 8.94205C20.966 8.45117 21.2308 7.91957 21.7216 7.75542C22.2125 7.59126 22.7441 7.856 22.9083 8.34688C23.2313 9.30607 23.3871 10.7951 23.3611 12.211C23.3359 13.5986 23.1331 14.962 22.7407 15.7673C22.5138 16.2337 21.9509 16.4278 21.4845 16.2009C21.018 15.974 20.8239 15.4111 21.0508 14.9447C21.3235 14.385 21.4666 13.3162 21.4873 12.1816C21.51 10.9571 21.3873 9.70504 21.1301 8.94205Z" fill="#888888"/>
</g>
</svg>
