<svg width="40" height="40" viewBox="0 0 40 40" fill="none" xmlns="http://www.w3.org/2000/svg">
<path id="Vector" fill-rule="evenodd" clip-rule="evenodd" d="M20 4.65234C28.4758 4.65234 35.3477 11.5242 35.3477 20C35.3477 28.4758 28.4758 35.3477 20 35.3477C11.5242 35.3477 4.65234 28.4758 4.65234 20C4.65234 11.5242 11.5242 4.65234 20 4.65234ZM20 0C25.5219 0 30.5227 2.23906 34.1414 5.85781C37.7609 9.47734 40 14.4773 40 20C40 25.5227 37.7609 30.5227 34.1414 34.1414C30.5227 37.7609 25.5227 40 20 40C14.4773 40 9.47734 37.7609 5.85781 34.1414C2.23906 30.5227 0 25.5219 0 20C0 14.4773 2.23906 9.47734 5.85781 5.85781C9.47734 2.23906 14.4773 0 20 0ZM32.7555 7.24375C29.4914 3.97969 24.9813 1.96016 20 1.96016C15.018 1.96016 10.5078 3.97969 7.24375 7.24375C3.97969 10.5078 1.96016 15.018 1.96016 20C1.96016 24.9813 3.97969 29.4914 7.24375 32.7555C10.5078 36.0203 15.018 38.0391 20 38.0391C24.982 38.0391 29.4922 36.0203 32.7555 32.7555C36.0203 29.4922 38.0391 24.982 38.0391 20C38.0391 15.018 36.0203 10.5078 32.7555 7.24375ZM14.1477 18.4352L15.1398 16.2H18.882C18.6461 15.4062 17.7188 14.9602 16.9414 14.9602H14.1477L15.1398 12.725H25.8523L24.8602 14.9602H22.2727C22.6156 15.2234 22.9836 15.7664 23.0484 16.2H25.8523L24.8602 18.4352H22.8312C22.1766 20.1023 20.1789 21.2344 18.4758 21.4797L24.1047 27.275H19.6547L14.6352 21.768V19.7156H16.857C17.0703 19.7156 17.2805 19.6812 17.4867 19.6102C18.0281 19.4273 18.6133 19 18.7945 18.4352H14.1477Z" fill="url(#paint0_linear_276_267)"/>
<defs>
<linearGradient id="paint0_linear_276_267" x1="40" y1="20" x2="0" y2="20" gradientUnits="userSpaceOnUse">
<stop stop-color="#AAFF00"/>
<stop offset="1" stop-color="#3C00FF"/>
</linearGradient>
</defs>
</svg>
