<svg width="32" height="28" viewBox="0 0 32 28" fill="none" xmlns="http://www.w3.org/2000/svg">
<path d="M22.5798 0C27.9447 0 31.1111 3.08714 31.1111 8.37169H24.5294V8.42561C21.4748 8.42561 18.9985 10.8399 18.9985 13.818C18.9985 16.7961 21.4748 19.2104 24.5294 19.2104H31.1111V19.6957C31.1111 24.9129 27.9447 28 22.5798 28H8.53136C3.16642 28 0 24.9129 0 19.6957V8.30429C0 3.08714 3.16642 0 8.53136 0H22.5798ZM29.9496 10.6904C30.5911 10.6904 31.1111 11.1974 31.1111 11.8228V15.7593C31.1036 16.3816 30.588 16.8844 29.9496 16.8917H24.6538C23.1074 16.912 21.7552 15.8797 21.4044 14.4112C21.2288 13.4996 21.4754 12.5589 22.0781 11.8412C22.6808 11.1236 23.5781 10.7023 24.5294 10.6904H29.9496ZM25.276 12.5104H24.7644C24.4503 12.5067 24.1478 12.6259 23.9244 12.8412C23.701 13.0565 23.5753 13.35 23.5753 13.6562C23.5753 14.2988 24.1055 14.8217 24.7644 14.8291H25.276C25.9328 14.8291 26.4652 14.31 26.4652 13.6697C26.4652 13.0294 25.9328 12.5104 25.276 12.5104ZM16.1501 6.05296H7.36988C6.7185 6.05292 6.18832 6.56382 6.18074 7.19884C6.18074 7.84136 6.7109 8.3643 7.36988 8.37169H16.1501C16.8069 8.37169 17.3393 7.85263 17.3393 7.21233C17.3393 6.57203 16.8069 6.05296 16.1501 6.05296Z" fill="white"/>
</svg>
