<svg width="40" height="49" viewBox="0 0 40 49" fill="none" xmlns="http://www.w3.org/2000/svg">
<path fill-rule="evenodd" clip-rule="evenodd" d="M12.5108 6.34608H12.9641V5.79424H13.5987V5.1281H14.052V0.342925C14.052 0.153725 14.2058 0 14.395 0C14.5842 0 14.7379 0.153725 14.7379 0.342925V0.867166C18.4036 2.84588 18.7347 -1.85652 22.4438 1.53331C21.1076 1.49783 20.1025 2.12456 18.9318 2.79858C17.7887 3.45684 16.6772 4.07568 15.3252 4.0875C15.0887 4.09145 14.8877 4.07568 14.7339 4.05991V5.12416H15.1715V5.7903H15.8061V6.34214H16.2594V7.85179H16.8388C20.1774 12.9838 22.03 16.9767 22.7355 23.0311C22.7473 23.1297 22.7592 23.2282 22.767 23.3268C23.5909 20.9145 24.8916 18.7544 26.5235 16.2475H27.2132V15.0414H27.5759V14.5999H28.0844V14.0678H28.38V10.2404C28.38 10.0512 28.5337 9.89752 28.7229 9.89752C28.9121 9.89752 29.0658 10.0512 29.0658 10.2404V10.6977C31.9314 12.1837 32.2192 8.50217 35.1636 11.1943C34.0954 11.1667 33.2913 11.6673 32.3571 12.2073C31.4426 12.7355 30.5518 13.2282 29.4718 13.24C29.3181 13.24 29.1801 13.2361 29.0698 13.2243V14.0678H29.3536V14.5999H29.862V15.0414H30.2247V16.2475H30.6858C33.3544 20.3547 34.8404 23.5436 35.4001 28.3918C35.5302 29.527 35.6011 30.6977 35.5893 31.9117L37.2014 32.8143H37.7099V33.1454H38.2657V33.4765H38.6441L38.6283 33.8037H36.7521L36.0741 34.4935C35.9992 34.8995 36.011 35.1951 36.0741 35.4198H36.4762V35.6957C35.7115 36.0978 35.475 36.827 35.475 37.6311L35.676 37.7651C35.5696 38.0568 35.4237 38.2933 35.2266 38.4509V39.6847H35.6287V40.3153H35.2148C35.2148 43.1257 35.2148 41.6752 35.2148 44.2294H36.2869V45.1636H37.4694V46.1805H38.6795V46.9216H40V48.4352C26.5747 48.4352 13.3938 48.3366 0 48.3366V46.4407H1.65156V45.5104H3.16516V44.2373H4.64328V43.0666H5.98344C5.98344 39.8739 5.98344 41.4426 5.98344 37.9267H5.46709V37.1344H5.96768V35.5932C5.71935 35.4001 5.53804 35.1045 5.40402 34.7379L5.65629 34.5723C5.65629 33.5672 5.36066 32.6567 4.40284 32.1521V31.8092H4.90737C4.9862 31.5294 4.99803 31.1588 4.90737 30.6504L4.06385 29.7911H1.71857L1.68703 29.389H2.16003V28.9752H2.85771V28.5613H3.49626L5.51045 27.43C5.49468 25.9086 5.58534 24.4462 5.75089 23.0272C6.4525 16.9689 8.30903 12.9799 11.6476 7.84785H12.5108V6.34608ZM14.7221 31.3875L16.1687 34.0441L17.1423 31.2101C17.2172 31.1983 17.2921 31.1904 17.367 31.1786C20.5282 34.9428 19.2393 38.6795 19.2393 43.7722H9.32203C9.32203 39.3733 8.17895 34.8088 11.084 31.08C11.0918 31.084 11.0997 31.084 11.1076 31.0879C11.3205 31.1313 11.5372 31.1746 11.7619 31.2061L12.9168 33.7919L14.119 31.3875C14.1979 31.3875 14.2806 31.3875 14.3595 31.3875C14.4777 31.3914 14.5999 31.3914 14.7221 31.3875ZM17.0674 30.8475C16.2318 30.9578 15.2976 31.0209 14.3555 31.0209C13.3149 31.0209 12.2704 30.9381 11.348 30.7568C12.0654 29.9448 13.0035 29.2826 14.2255 28.8411C15.4158 29.4048 16.3421 30.0788 17.0674 30.8475ZM28.5652 32.7986C33.8707 35.3134 32.4044 38.5771 32.4044 43.7722H24.8088C24.8088 39.4994 23.4292 34.6709 28.5652 32.7986Z" fill="white"/>
</svg>
