<svg width="40" height="40" viewBox="0 0 40 40" fill="none" xmlns="http://www.w3.org/2000/svg">
<path fill-rule="evenodd" clip-rule="evenodd" d="M38.3917 39.7911C37.2694 39.3294 36.2285 38.6908 35.3085 37.8995C30.6463 33.7452 31.6035 29.3434 31.3918 23.7664L23.2818 23.3887C23.246 25.5049 23.2004 28.3667 23.0995 30.395C23.0018 32.3485 23.1776 35.181 21.6637 36.62C18.9289 39.2246 8.89468 35.9689 3.04086 38.5735C2.25297 38.9283 1.51717 39.6381 0.683705 39.5502C0.416734 39.5209 0.0488361 39.3646 0 39.0553C0.250692 35.8517 3.18086 32.4787 7.86586 31.5378L16.3992 31.2122L16.6564 23.4408C14.4783 23.405 11.8965 23.3594 9.71187 23.2487C7.75842 23.151 5.22872 23.1185 3.78642 21.6013C2.68273 20.4422 2.34413 18.7037 2.50692 16.2423C2.69727 13.9686 2.75814 11.6859 2.68924 9.40529C2.60459 6.99605 2.53948 5.45283 1.52694 3.1966C1.17207 2.40871 0.266971 1.41897 0.358131 0.588755C0.364502 0.460737 0.418437 0.339709 0.509372 0.249377C0.600307 0.159044 0.72169 0.105915 0.849748 0.100394C3.93619 0.702706 7.93423 4.17658 8.24353 8.02161L8.5691 16.4279H16.5261C16.588 14.0284 16.614 7.63743 17.2359 5.5212C17.4237 4.8137 17.7994 4.1702 18.3233 3.65892C21.5302 0.614801 31.2616 3.71101 36.9103 1.17479C37.7015 0.823168 38.6879 -0.0819271 39.5149 0.00597787C39.6421 0.0138433 39.7619 0.0683493 39.8514 0.159059C39.9409 0.249769 39.9938 0.370308 40 0.497594C38.32 9.15786 30.236 8.20393 23.4413 8.59462V16.8186C25.6194 16.8544 28.0742 16.9 30.2588 17.0107C32.2123 17.1084 34.5564 17.1116 35.9954 18.6386C38.307 21.0706 37.2977 27.4291 37.4084 30.9225C37.4833 33.3382 37.2912 34.888 38.4438 37.0758C38.6782 37.5219 39.0526 38.0525 39.3554 38.5539C39.9316 39.5111 39.3554 40.1818 38.4079 39.8009L38.3917 39.7911ZM27.3677 25.57C27.7541 25.57 28.1318 25.6846 28.453 25.8993C28.7743 26.1139 29.0246 26.419 29.1725 26.7759C29.3203 27.1329 29.359 27.5256 29.2836 27.9046C29.2083 28.2835 29.0222 28.6316 28.749 28.9048C28.4758 29.178 28.1278 29.364 27.7488 29.4394C27.3699 29.5148 26.9771 29.4761 26.6202 29.3282C26.2632 29.1804 25.9582 28.93 25.7435 28.6088C25.5289 28.2875 25.4143 27.9098 25.4143 27.5235C25.4143 27.0054 25.6201 26.5085 25.9864 26.1422C26.3528 25.7758 26.8496 25.57 27.3677 25.57ZM12.6258 25.57C13.0121 25.57 13.3898 25.6846 13.711 25.8993C14.0323 26.1139 14.2826 26.419 14.4305 26.7759C14.5784 27.1329 14.617 27.5256 14.5417 27.9046C14.4663 28.2835 14.2802 28.6316 14.007 28.9048C13.7339 29.178 13.3858 29.364 13.0069 29.4394C12.6279 29.5148 12.2351 29.4761 11.8782 29.3282C11.5213 29.1804 11.2162 28.93 11.0015 28.6088C10.7869 28.2875 10.6723 27.9098 10.6723 27.5235C10.6723 27.0054 10.8781 26.5085 11.2445 26.1422C11.6108 25.7758 12.1077 25.57 12.6258 25.57ZM27.3677 10.4667C27.7541 10.4667 28.1318 10.5812 28.453 10.7959C28.7743 11.0105 29.0246 11.3156 29.1725 11.6726C29.3203 12.0295 29.359 12.4223 29.2836 12.8012C29.2083 13.1801 29.0222 13.5282 28.749 13.8014C28.4758 14.0746 28.1278 14.2606 27.7488 14.336C27.3699 14.4114 26.9771 14.3727 26.6202 14.2249C26.2632 14.077 25.9582 13.8266 25.7435 13.5054C25.5289 13.1841 25.4143 12.8065 25.4143 12.4201C25.4143 11.902 25.6201 11.4052 25.9864 11.0388C26.3528 10.6725 26.8496 10.4667 27.3677 10.4667ZM12.6258 10.4667C13.0121 10.4667 13.3898 10.5812 13.711 10.7959C14.0323 11.0105 14.2826 11.3156 14.4305 11.6726C14.5784 12.0295 14.617 12.4223 14.5417 12.8012C14.4663 13.1801 14.2802 13.5282 14.007 13.8014C13.7339 14.0746 13.3858 14.2606 13.0069 14.336C12.6279 14.4114 12.2351 14.3727 11.8782 14.2249C11.5213 14.077 11.2162 13.8266 11.0015 13.5054C10.7869 13.1841 10.6723 12.8065 10.6723 12.4201C10.6723 11.902 10.8781 11.4052 11.2445 11.0388C11.6108 10.6725 12.1077 10.4667 12.6258 10.4667Z" fill="white"/>
</svg>
