<svg width="40" height="48" viewBox="0 0 40 48" fill="none" xmlns="http://www.w3.org/2000/svg">
<path fill-rule="evenodd" clip-rule="evenodd" d="M6.65181 0H38.7169C39.0569 0.00102249 39.3827 0.136531 39.6231 0.376932C39.8635 0.617333 39.999 0.943093 40 1.28307V37.0695C39.9419 38.0696 38.651 38.0928 37.2555 38.0308H6.17889C4.24847 38.0308 2.6708 39.6085 2.6708 41.5389C2.6708 43.4693 4.24847 45.047 6.17889 45.047H37.2555V41.3141H40V46.0587C40 46.9231 39.2945 47.6286 38.4301 47.6286H6.31457C2.84136 47.6325 0 44.7912 0 41.318V6.65181C0 2.99254 2.99254 0 6.65181 0ZM7.88836 5.1943H8.99699C9.56294 5.1943 10.0281 5.57031 10.0281 6.02772V32.1814C10.0281 32.6388 9.56294 33.0148 8.99699 33.0148H7.88836C7.32241 33.0148 6.85725 32.6388 6.85725 32.1814V6.02772C6.86113 5.56643 7.32241 5.1943 7.88836 5.1943Z" fill="white"/>
</svg>
