<svg width="40" height="44" viewBox="0 0 40 44" fill="none" xmlns="http://www.w3.org/2000/svg">
<path fill-rule="evenodd" clip-rule="evenodd" d="M26.5912 9.49151C27.7211 10.156 28.739 10.9948 29.6073 11.9768C30.4634 12.9408 31.1504 14.0425 31.6392 15.2355C31.9132 15.9112 32.1308 16.6084 32.2895 17.3201C32.6488 18.9381 32.6775 20.6121 32.3739 22.2415C32.2065 23.1199 31.9521 23.9795 31.6146 24.8076L31.5759 24.8955C30.8728 26.6531 29.6144 28.3545 28.4121 30.0348C27.8005 30.8855 27.1923 31.7257 26.6826 32.5412C26.5222 32.795 26.2958 33.0003 26.0277 33.1353C25.7596 33.2703 25.4598 33.3298 25.1605 33.3076L15.4864 34.7453C15.0875 34.8034 14.681 34.7136 14.3437 34.4928C14.0064 34.272 13.7614 33.9355 13.6549 33.5466C13.4144 32.8439 13.117 32.1621 12.7656 31.5078C12.4738 30.9452 12.12 30.417 11.711 29.9329C11.2118 29.3634 10.7021 28.7799 10.1959 28.1225C9.63122 27.362 9.1437 26.5471 8.74058 25.69C8.31665 24.7889 7.98681 23.8465 7.7563 22.8777C7.52751 21.9079 7.4154 20.9143 7.42234 19.9179C7.43253 18.8819 7.57067 17.8511 7.83363 16.849C8.11447 15.7734 8.51662 14.7333 9.03235 13.7485L9.10265 13.622C9.76739 12.4799 10.6113 11.4521 11.602 10.5777C12.586 9.71772 13.7063 9.0275 14.9169 8.53535L15.0189 8.49668C15.9235 8.13716 16.8675 7.88583 17.8311 7.74793C18.8502 7.60487 19.8825 7.58127 20.907 7.67762C21.907 7.7686 22.8938 7.9702 23.8493 8.27874C24.8061 8.57823 25.7259 8.98508 26.5912 9.49151ZM25.2273 40.1975C24.6972 41.1115 23.939 41.8722 23.0267 42.4051C22.2554 42.8544 21.39 43.118 20.4992 43.175C19.6042 43.2321 18.7095 43.0577 17.9014 42.6688C17.3227 42.3837 16.8009 41.9954 16.3617 41.5228L25.2273 40.1975ZM26.0709 35.2375V35.8175V36.0179C26.0973 36.3982 26.0973 36.78 26.0709 37.1603L25.8952 37.997L15.1525 39.5929L14.9661 39.1641L14.5478 37.4486V36.9494L26.0428 35.2375H26.0709ZM19.7434 1.31144C19.7536 0.955874 19.9036 0.61868 20.161 0.373151C20.4184 0.127622 20.7623 -0.00639377 21.1179 0.000234677H21.2093C21.5399 0.0296784 21.8485 0.17836 22.0776 0.418554C22.3196 0.673579 22.4532 1.01259 22.4502 1.36417C22.452 1.38756 22.452 1.41107 22.4502 1.43447L22.3764 4.31349C22.3781 4.34393 22.3781 4.37445 22.3764 4.40489C22.3504 4.7452 22.1956 5.06277 21.9434 5.29274C21.6912 5.52272 21.3607 5.64774 21.0195 5.64227H20.9246C20.5951 5.61775 20.2867 5.47107 20.0598 5.23098C19.8163 4.97549 19.6825 4.63478 19.6872 4.28185C19.6853 4.25846 19.6853 4.23495 19.6872 4.21155L19.7575 1.32198L19.7434 1.31144ZM4.92298 6.3629C4.66324 6.11784 4.50937 5.7811 4.49411 5.42432C4.4861 5.24662 4.51339 5.0691 4.57439 4.902C4.63539 4.73491 4.7289 4.58156 4.84951 4.45081C4.97012 4.32007 5.11545 4.21452 5.27709 4.14027C5.43873 4.06602 5.61348 4.02453 5.79125 4.01821C6.14725 4.0032 6.49475 4.12957 6.75796 4.36974L8.91634 6.384C9.17756 6.62757 9.33191 6.96453 9.34574 7.32143C9.35957 7.67833 9.23175 8.02622 8.99016 8.28928C8.74401 8.54954 8.40599 8.70342 8.04807 8.71815C7.69314 8.73298 7.34681 8.60658 7.08488 8.36662L4.92298 6.3629ZM1.40769 21.2044C1.22947 21.211 1.0517 21.1824 0.884549 21.1202C0.717397 21.0581 0.564142 20.9635 0.433548 20.8421C0.302954 20.7206 0.197583 20.5746 0.123461 20.4124C0.0493392 20.2502 0.0079204 20.075 0.00157355 19.8968C-0.00701911 19.7203 0.0196431 19.544 0.0800013 19.378C0.140359 19.212 0.233203 19.0597 0.353102 18.9301C0.474425 18.8009 0.620165 18.6971 0.78188 18.6247C0.943595 18.5523 1.11807 18.5127 1.2952 18.5082L4.24101 18.4098C4.41928 18.4018 4.59737 18.4293 4.76491 18.4907C4.93245 18.5522 5.08611 18.6463 5.21695 18.7677C5.34779 18.889 5.4532 19.0352 5.52705 19.1976C5.6009 19.3601 5.64171 19.5356 5.64712 19.714V19.7351V19.7843C5.64347 20.116 5.51841 20.4349 5.2956 20.6807C5.17173 20.8096 5.02332 20.9124 4.85911 20.983C4.69489 21.0536 4.5182 21.0907 4.33944 21.092H4.28671L1.37605 21.1904L1.40769 21.2044ZM38.5291 17.0248H38.5748C38.9118 17.0044 39.2441 17.111 39.5064 17.3236C39.7828 17.5513 39.9594 17.878 39.9985 18.234C39.9985 18.234 39.9985 18.2692 39.9985 18.2762C40.0147 18.6207 39.8985 18.9583 39.6736 19.2198C39.4487 19.4813 39.1323 19.6468 38.7892 19.6823L35.8575 20.0374C35.5019 20.0738 35.1464 19.9676 34.869 19.7422C34.5915 19.5169 34.4148 19.1906 34.3776 18.8351C34.3412 18.479 34.4478 18.123 34.674 17.8455C34.9001 17.5679 35.2272 17.3916 35.5833 17.3552C36.5606 17.2497 37.5448 17.1373 38.5256 17.0423L38.5291 17.0248ZM32.7219 5.29074C32.8196 5.1433 32.9457 5.0167 33.0927 4.91823C33.2396 4.81977 33.4047 4.75141 33.5782 4.71709C33.7518 4.68277 33.9304 4.68318 34.1038 4.71829C34.2772 4.75339 34.4419 4.82251 34.5885 4.92164C34.735 5.01987 34.8606 5.14631 34.9577 5.29358C35.0549 5.44084 35.1218 5.60598 35.1544 5.77937C35.2228 6.13005 35.1509 6.49357 34.9541 6.79177L33.3124 9.25247C33.1111 9.54895 32.8001 9.75328 32.4481 9.82052C32.0961 9.88777 31.7317 9.81241 31.4353 9.61103C31.1388 9.40965 30.9345 9.09874 30.8672 8.74671C30.8 8.39467 30.8753 8.03034 31.0767 7.73387L32.7219 5.27317V5.29074ZM21.5362 19.3027H23.6067C23.6778 19.3027 23.7482 19.3167 23.8139 19.3439C23.8796 19.3711 23.9393 19.411 23.9895 19.4612C24.0398 19.5115 24.0797 19.5712 24.1069 19.6369C24.1341 19.7025 24.1481 19.7729 24.1481 19.844C24.1479 19.9516 24.1161 20.0567 24.0567 20.1463L19.1353 28.5584C19.0988 28.6194 19.0506 28.6725 18.9935 28.7147C18.9364 28.7569 18.8715 28.7874 18.8025 28.8044C18.7335 28.8214 18.6619 28.8246 18.5917 28.8137C18.5215 28.8029 18.4542 28.7782 18.3936 28.7412C18.2975 28.6834 18.2217 28.5973 18.1764 28.4947C18.1311 28.3922 18.1186 28.2782 18.1405 28.1682L18.8681 23.0078L16.4074 23.05C16.3365 23.0514 16.266 23.0387 16.2 23.0128C16.134 22.9868 16.0737 22.948 16.0228 22.8987C15.9718 22.8494 15.9311 22.7904 15.903 22.7253C15.8749 22.6602 15.8599 22.5901 15.859 22.5192C15.8559 22.4191 15.8816 22.3203 15.9329 22.2344L20.7804 13.8259C20.8543 13.703 20.9735 13.6142 21.1123 13.5787C21.2512 13.5432 21.3984 13.5638 21.5222 13.636C21.6174 13.6878 21.6946 13.7673 21.7436 13.864C21.7925 13.9607 21.8109 14.07 21.7964 14.1774L21.5503 19.3027H21.5362Z" fill="white"/>
</svg>
