<svg width="47" height="34" viewBox="0 0 47 34" fill="none" xmlns="http://www.w3.org/2000/svg">
<path fill-rule="evenodd" clip-rule="evenodd" d="M0 3.25605C6.52648 -0.770127 13.204 -1.38954 20.1158 3.25605V33.3353C15.338 29.7963 8.39605 30.2231 0 33.3353V3.25605ZM22.3177 3.33159H24.3119C24.7198 3.33159 25.0522 3.66395 25.0522 4.06808V33.2597C25.0522 33.6676 24.7198 34 24.3119 34H22.3177C22.1217 33.999 21.934 33.9207 21.7953 33.7821C21.6567 33.6435 21.5784 33.4558 21.5774 33.2597V4.06808C21.5812 3.66395 21.9136 3.33159 22.3177 3.33159ZM46.4105 3.25605C39.884 -0.770127 33.2027 -1.38954 26.291 3.25605V33.3353C31.0688 29.7963 38.0107 30.2231 46.4105 33.3353V3.25605Z" fill="white"/>
</svg>
