<svg width="50" height="31" viewBox="0 0 50 31" fill="none" xmlns="http://www.w3.org/2000/svg">
<path fill-rule="evenodd" clip-rule="evenodd" d="M31.6331 22.946C32.4146 22.372 32.9753 21.6583 32.8265 20.8625C32.147 20.2332 31.4728 19.3628 31.3551 18.0641L31.2734 18.0658C31.0849 18.0633 30.9028 18.0204 30.7334 17.9241C30.3585 17.7106 30.1526 17.3024 30.0539 16.8363C29.9282 16.2463 29.9697 15.5461 30.0307 15.1043L30.0539 15.0181C30.1846 14.6537 30.3463 14.4557 30.5519 14.3696L30.5578 14.3672C30.4641 12.612 30.7608 10.0287 28.9582 9.48328C32.4644 5.08562 36.1805 3.60623 39.7002 6.60583C43.1323 6.78572 44.6631 11.6478 42.5321 14.3696H42.4418C42.6473 14.4557 42.8091 14.6537 42.9398 15.0181L42.963 15.1043C43.0239 15.5461 43.0654 16.2463 42.9398 16.8363C42.8409 17.3024 42.6354 17.7106 42.2603 17.9241C42.0908 18.0204 41.9088 18.0633 41.7202 18.0658L41.6386 18.0641C41.5209 19.3628 40.845 20.2332 40.1654 20.8625C39.8396 22.6066 42.9209 23.9567 44.2718 24.3043C47.078 25.0275 49.3191 25.1348 49.9571 30.1915C49.9846 30.3024 50 30.4142 50 30.5277C50.0001 30.58 49.9898 30.6318 49.9698 30.6802C49.9499 30.7285 49.9205 30.7724 49.8836 30.8094C49.8466 30.8464 49.8027 30.8758 49.7544 30.8958C49.7061 30.9158 49.6543 30.9261 49.602 30.9261H33.7963C33.8265 30.7717 33.8423 30.6118 33.8423 30.4486C33.8423 30.0379 33.7243 29.3648 33.6523 28.9611L33.6173 28.7725C33.4892 27.9961 33.333 27.2056 33.147 26.4555L33.1108 26.2804C32.9239 25.5501 32.7057 24.8728 32.4541 24.3022C32.2286 23.7912 31.9527 23.3424 31.6331 22.946ZM0.475977 30.9258C0.413383 30.9257 0.351411 30.9133 0.293604 30.8893C0.235796 30.8653 0.183288 30.8302 0.139082 30.7858C0.0948761 30.7415 0.0598389 30.6889 0.0359741 30.6311C0.0121094 30.5732 -0.000114711 30.5112 8.11204e-07 30.4486C8.11204e-07 30.114 0.158106 29.297 0.203321 29.0243C0.444141 27.572 0.768458 26.1204 1.18213 25.1684C2.4667 22.2159 8.33828 21.9088 11.7962 20.5666V18.0382C9.49248 17.9286 6.625 17.7487 5.02471 15.8428C6.77969 15.1819 7.58848 13.1062 7.70059 10.0042C7.7833 7.69871 7.30732 6.97595 8.09297 4.69988C9.65059 0.193237 15.4094 -1.34768 18.6174 1.28923C21.1331 1.02214 23.6675 2.31912 24.2149 6.19792C24.6229 9.0948 23.7587 10.9118 24.6706 13.58C25.0624 14.7262 25.7462 15.6056 26.8143 16.12C25.1784 17.6858 21.7412 17.8851 19.5967 17.9992V20.5666C23.4885 21.9477 29.1357 21.738 30.623 25.1083C31.0558 26.0905 31.3974 27.5885 31.6479 29.1085C31.6879 29.355 31.839 30.1446 31.839 30.4486C31.839 30.5112 31.8267 30.5733 31.8028 30.6311C31.7789 30.689 31.7438 30.7416 31.6995 30.7859C31.6553 30.8302 31.6027 30.8654 31.5449 30.8894C31.487 30.9134 31.425 30.9257 31.3624 30.9258H0.475977Z" fill="white"/>
</svg>
