<svg width="40" height="37" viewBox="0 0 40 37" fill="none" xmlns="http://www.w3.org/2000/svg">
<path fill-rule="evenodd" clip-rule="evenodd" d="M23.4925 19.815L35.863 17.826C36.9601 17.6502 38.0051 18.4054 38.1809 19.5025L39.9746 30.649C40.1504 31.7461 39.3951 32.7911 38.298 32.9669L25.9275 34.9559C24.8304 35.1317 23.7854 34.3765 23.6097 33.2794L21.8159 22.1329C21.6401 21.0358 22.3954 19.9908 23.4925 19.815ZM29.8307 25.0465L27.438 25.0204C27.5096 24.2489 27.7831 23.6206 28.2681 23.1323C28.7499 22.6472 29.4954 22.3184 30.4981 22.1524C31.6538 21.9603 32.5197 22.0352 33.1089 22.3803C33.6949 22.7254 34.0432 23.2234 34.1507 23.8745C34.2158 24.2554 34.1669 24.62 34.0107 24.9651C33.8544 25.3102 33.5875 25.6324 33.2033 25.9352C33.5582 25.9612 33.8381 26.0166 34.0367 26.1012C34.3623 26.2347 34.6292 26.4333 34.8408 26.7035C35.0524 26.9737 35.1956 27.3122 35.264 27.7224C35.3487 28.2368 35.2998 28.7544 35.1077 29.2752C34.9157 29.7929 34.5901 30.2226 34.1246 30.5611C33.6591 30.8997 33.0145 31.1406 32.1876 31.2773C31.3836 31.4108 30.7325 31.4238 30.2377 31.3099C29.7396 31.1992 29.3131 30.9843 28.9518 30.6718C28.5937 30.356 28.2844 29.9361 28.0305 29.4087L30.4362 28.6697C30.6153 29.1515 30.8236 29.4706 31.058 29.6301C31.2924 29.7896 31.5659 29.8417 31.8816 29.7896C32.2104 29.7343 32.4644 29.5682 32.6434 29.2883C32.8225 29.0116 32.8778 28.6697 32.8094 28.2661C32.7411 27.8559 32.5816 27.5564 32.3341 27.3643C32.0867 27.1755 31.7807 27.1104 31.4194 27.169C31.2273 27.2015 30.9701 27.2927 30.6511 27.4457L30.4851 25.665C30.6218 25.6617 30.7292 25.6552 30.8041 25.6422C31.1231 25.5901 31.3705 25.4404 31.5496 25.2027C31.7286 24.9618 31.7937 24.7047 31.7482 24.4247C31.7026 24.1545 31.5854 23.9527 31.4031 23.8224C31.2143 23.689 30.9832 23.6434 30.7032 23.6922C30.4135 23.7411 30.1953 23.8648 30.0423 24.0698C29.8926 24.2749 29.821 24.6005 29.8307 25.0465ZM20.4324 3.71379L21.9364 12.7378L19.446 13.1545L18.4629 7.25242C18.1113 7.62679 17.7629 7.93605 17.4146 8.18672C17.0695 8.43738 16.6235 8.69782 16.0864 8.96476L15.7511 6.95617C16.5454 6.54274 17.1412 6.10977 17.5416 5.65076C17.942 5.19174 18.2285 4.66111 18.3977 4.05561L20.4324 3.71379ZM5.78304 18.5454L17.802 22.0873C18.8698 22.4031 19.4851 23.5327 19.1693 24.6005L15.979 35.428C15.6632 36.4957 14.5336 37.111 13.4658 36.7952L1.4501 33.2566C0.382322 32.9408 -0.23295 31.8112 0.0828249 30.7434L3.27312 19.916C3.58564 18.8482 4.71527 18.2329 5.78304 18.5454ZM14.4782 27.9959L12.831 27.7615C12.7398 27.8657 12.6389 27.9666 12.5282 28.061C12.1116 28.4191 11.4475 28.7544 10.5359 29.0636C9.99554 29.2394 9.63419 29.3696 9.44538 29.4478C9.25656 29.5292 9.03194 29.6366 8.76825 29.7766L12.245 30.8053L11.7079 32.6153L5.03104 30.6425C5.30124 30.0077 5.71794 29.4543 6.27787 28.992C6.8378 28.5265 7.76559 28.0545 9.06775 27.5792C9.31516 27.488 9.53327 27.4034 9.7286 27.322C10.1648 27.1397 10.4708 26.9834 10.6499 26.8467C10.9071 26.6481 11.0698 26.4365 11.1349 26.2119C11.2066 25.9677 11.1805 25.7334 11.0503 25.5055C10.9201 25.2776 10.7182 25.1246 10.4448 25.0432C10.1616 24.9586 9.90113 24.9814 9.67 25.1051C9.43561 25.232 9.22075 25.512 9.02543 25.9482L6.85407 25.1083C7.12753 24.5061 7.43353 24.0666 7.76884 23.7834C8.1074 23.5002 8.51433 23.3276 8.99287 23.2658C9.47467 23.2039 10.0867 23.282 10.8387 23.5067C11.62 23.7378 12.2027 24.008 12.5868 24.314C12.9677 24.62 13.2314 24.9944 13.3681 25.4371C13.5081 25.8831 13.5114 26.3324 13.3747 26.7914C13.2672 27.1495 13.0882 27.4717 12.8343 27.7647L14.4782 27.9959ZM11.8772 2.01447L24.2477 0.025413C25.3448 -0.150379 26.3898 0.604876 26.5656 1.70195L28.3593 12.8485C28.5351 13.9455 27.7798 14.9905 26.6828 15.1663L14.3122 17.1554C13.2151 17.3312 12.1702 16.5759 11.9944 15.4788L10.2006 4.33232C10.0248 3.23524 10.7801 2.19026 11.8772 2.01447Z" fill="white"/>
</svg>
