<svg width="43" height="40" viewBox="0 0 43 40" fill="none" xmlns="http://www.w3.org/2000/svg">
<path fill-rule="evenodd" clip-rule="evenodd" d="M1.16609 10.792H17.3028L14.5132 5.96005C14.7821 4.61591 15.5641 4.16204 16.8629 4.60194L20.4344 10.792H21.8449L28.2025 0.122632C29.428 -0.191583 30.3392 0.0423325 30.5557 1.48074L25.0115 10.792H41.7382C42.3806 10.792 42.9043 11.3157 42.9043 11.9581V38.8339C42.9043 39.4728 42.3806 40 41.7382 40H1.16609C0.523692 40 0 39.4763 0 38.8339V11.9581C0 11.3192 0.523692 10.792 1.16609 10.792ZM36.7946 35.6324C37.6325 35.6324 38.3133 36.3132 38.3133 37.1511C38.3133 37.989 37.6325 38.6698 36.7946 38.6698C35.9567 38.6698 35.2759 37.989 35.2759 37.1511C35.2794 36.3132 35.9567 35.6324 36.7946 35.6324ZM3.15262 35.9641H14.5586C14.7332 35.9641 14.8763 36.1072 14.8763 36.2853V38.0135C14.8763 38.188 14.7332 38.3347 14.5586 38.3347H3.15262C2.97806 38.3347 2.83492 38.1915 2.83492 38.0135V36.2853C2.83492 36.1107 2.97806 35.9641 3.15262 35.9641ZM3.77058 13.4628H39.1267C39.6435 13.4628 40.0659 13.8818 40.0659 14.3915V33.192C40.0659 33.7017 39.6435 34.1207 39.1267 34.1207H3.77058C3.25387 34.1207 2.83143 33.7017 2.83143 33.192V14.3915C2.83492 13.8818 3.25387 13.4628 3.77058 13.4628Z" fill="white"/>
<rect x="2" y="13" width="39" height="22" fill="white" fill-opacity="0.39"/>
</svg>
