<svg width="304" height="300" viewBox="0 0 304 300" fill="none" xmlns="http://www.w3.org/2000/svg">
<path opacity="0.3" d="M266.82 257.914C260.629 264.352 254.772 268.503 250.144 271.784C195.747 310.341 131.381 299.102 117.701 296.357C97.5003 292.304 58.4529 284.469 30.2225 251.673C-12.4879 202.055 -5.83723 123.883 27.2918 72.2802C33.3516 62.8412 65.3614 10.4527 130.421 2.0512C169.794 -3.03327 215.691 7.22149 248.929 34.7304C318.696 92.474 313.73 209.126 266.82 257.914Z" fill="url(#paint0_linear_749_55)"/>
<path opacity="0.81" d="M153.195 287.693C153.195 287.693 212.595 137.634 300.838 121.241C302.404 120.95 303.831 122.202 303.754 123.793C302.862 142.303 291.558 240.263 153.195 287.693Z" fill="url(#paint1_linear_749_55)"/>
<path opacity="0.62" d="M284.984 145.58C280.479 152.011 275.757 158.272 270.97 164.486C269.775 166.041 268.554 167.575 267.347 169.12C266.13 170.657 264.939 172.216 263.701 173.737L260.001 178.309C258.762 179.829 257.549 181.37 256.28 182.865C253.758 185.869 251.261 188.893 248.72 191.88L241.017 200.773C235.791 206.622 230.569 212.476 225.182 218.179L221.174 222.486C219.853 223.937 218.453 225.312 217.097 226.729L208.916 235.19L200.523 243.443C199.121 244.816 197.732 246.203 196.303 247.547L191.974 251.536C189.082 254.188 186.22 256.875 183.279 259.473L174.338 267.134L172.093 269.037C171.338 269.664 170.604 270.316 169.833 270.922L165.214 274.572C163.679 275.794 162.122 276.989 160.577 278.197C159.031 279.404 157.483 280.608 155.925 281.8C155.806 281.891 155.635 281.869 155.544 281.749C155.456 281.634 155.474 281.472 155.582 281.379L155.59 281.372C157.078 280.095 158.575 278.83 160.074 277.569C161.574 276.309 163.062 275.035 164.572 273.789L169.089 270.034C170.578 268.762 172.021 267.437 173.499 266.152L182.343 258.422L191.005 250.488L195.34 246.525C196.064 245.866 196.754 245.171 197.464 244.497L199.589 242.469L208.087 234.356C213.614 228.807 219.235 223.343 224.572 217.604C227.268 214.761 229.995 211.948 232.599 209.02C235.225 206.112 237.875 203.225 240.482 200.3L248.212 191.445C250.762 188.47 253.268 185.458 255.799 182.466C257.073 180.978 258.291 179.443 259.535 177.929L263.25 173.374C264.492 171.859 265.688 170.307 266.91 168.775C268.122 167.236 269.348 165.708 270.548 164.159C275.331 157.953 280.046 151.686 284.536 145.273L284.539 145.268C284.625 145.145 284.795 145.116 284.918 145.202C285.041 145.288 285.071 145.457 284.984 145.58Z" fill="white"/>
<g opacity="0.79">
<path d="M138.801 201.632C138.801 201.632 167.677 69.1219 254.85 0.431454C255.986 -0.464216 257.669 0.102238 258.016 1.50708C263.499 23.6959 292.049 165.222 138.801 201.632Z" fill="url(#paint2_linear_749_55)"/>
<path opacity="0.62" d="M245.594 38.6588C244.593 42.5026 243.428 46.2897 242.199 50.0597C240.968 53.8276 239.675 57.5763 238.3 61.2948C235.543 68.7295 232.54 76.0738 229.304 83.315C228.502 85.1282 227.655 86.9218 226.833 88.7261C226.005 90.5282 225.111 92.2993 224.254 94.0872C223.402 95.8787 222.482 97.6358 221.588 99.4061L220.237 102.056L218.838 104.682C215.112 111.685 211.186 118.587 206.956 125.302C202.712 132.005 198.302 138.611 193.544 144.965C192.955 145.763 192.377 146.57 191.779 147.361L189.954 149.712L188.129 152.063C187.517 152.844 186.923 153.639 186.282 154.396L182.491 158.986L181.539 160.13L180.553 161.245L178.582 163.475C168.119 175.412 156.408 186.249 143.746 195.788C143.642 195.867 143.494 195.846 143.415 195.742C143.338 195.64 143.356 195.496 143.454 195.416L143.459 195.412L148.056 191.662L150.358 189.794L152.586 187.837L157.037 183.921L161.34 179.843C162.052 179.158 162.785 178.496 163.487 177.801L165.57 175.694C166.953 174.282 168.364 172.899 169.722 171.465C172.391 168.552 175.124 165.698 177.665 162.671L179.603 160.431L180.572 159.31L181.506 158.161L185.254 153.572C185.89 152.816 186.478 152.022 187.084 151.243L188.893 148.896L190.701 146.549C191.293 145.76 191.866 144.954 192.449 144.158C197.162 137.816 201.528 131.222 205.728 124.533C209.951 117.854 213.897 111.002 217.632 104.038L219.036 101.427L220.392 98.7922C221.289 97.0315 222.213 95.2843 223.068 93.5027C224.822 89.9612 226.515 86.3897 228.183 82.806C231.491 75.626 234.566 68.3371 237.404 60.9563C238.844 57.2739 240.204 53.56 241.503 49.825C242.154 47.9579 242.781 46.0827 243.388 44.201C244.004 42.3233 244.592 40.4324 245.136 38.5376L245.138 38.533C245.174 38.4074 245.305 38.3347 245.43 38.3709C245.554 38.407 245.626 38.535 245.594 38.6588Z" fill="white"/>
</g>
<g opacity="0.76">
<path d="M93.4987 194.52C93.4987 194.52 82.2376 76.9721 13.9763 8.57039C13.0863 7.6785 11.5733 7.99432 11.1279 9.17295C4.09245 27.7891 -35.2268 147.193 93.4987 194.52Z" fill="url(#paint3_linear_749_55)"/>
<path opacity="0.62" d="M18.4636 42.5159C19.6289 49.2936 21.1363 56.024 22.8597 62.6868C24.5559 69.3583 26.4651 75.9753 28.5884 82.5214C29.6623 85.7905 30.7585 89.0514 31.9089 92.2935C32.4642 93.9219 33.0825 95.5275 33.6761 97.1416L34.5766 99.5593L35.5205 101.96C38.0303 108.365 40.7352 114.694 43.6948 120.903C46.6317 127.12 49.7218 133.27 53.1374 139.239C53.5592 139.988 53.9702 140.743 54.4006 141.487L55.7201 143.703L57.0396 145.918C57.4827 146.655 57.9087 147.402 58.3796 148.121L61.143 152.475L61.8308 153.566L62.5513 154.635L63.9926 156.773C65.8736 159.653 67.9377 162.404 69.9416 165.199C70.9659 166.58 72.0413 167.922 73.0888 169.286L74.6702 171.324C75.204 171.998 75.7693 172.646 76.313 173.312L79.6049 177.286L83.0415 181.136L84.7623 183.06L86.5562 184.916L90.1356 188.639L90.1401 188.644C90.2306 188.738 90.2277 188.888 90.1334 188.978C90.0416 189.066 89.8969 189.066 89.8058 188.979C79.8255 179.438 70.8087 168.862 62.9871 157.462L61.5107 155.331L60.7725 154.265L60.067 153.178L57.2616 148.817C56.785 148.096 56.3536 147.347 55.905 146.609L54.5691 144.387L53.2331 142.165C52.7973 141.419 52.3809 140.662 51.9538 139.911C48.4948 133.925 45.3625 127.756 42.3843 121.52C39.4211 115.275 36.7427 108.899 34.2463 102.457L33.3088 100.041L32.4149 97.6095C31.8257 95.9858 31.2119 94.3705 30.6615 92.7333C30.1053 91.0983 29.5159 89.4741 28.9871 87.8299C28.4638 86.1838 27.9188 84.5452 27.4138 82.8935C23.3558 69.6914 19.9841 56.261 17.9944 42.5816C17.9756 42.4521 18.0653 42.3318 18.1946 42.313C18.3218 42.2946 18.4402 42.3811 18.4619 42.507L18.4636 42.5159Z" fill="white"/>
</g>
<path d="M32.9666 15.5612C31.9892 61.6894 28.819 220.803 30.3323 277.188C30.4927 283.161 34.5859 287.955 39.692 288.151C64.946 289.118 157.526 291.568 198.833 289.541C207.437 289.118 214.279 280.966 214.457 270.894C215.315 222.477 217.209 86.2971 212.708 23.913C212.169 16.4387 207.154 10.4863 200.774 9.73957C173.271 6.52091 80.2928 -1.34677 44.6058 1.36251C38.1698 1.85103 33.1265 8.01838 32.9666 15.5612Z" fill="url(#paint4_linear_749_55)"/>
<path d="M44.2349 29.7136C42.8756 66.946 38.5879 190.809 39.9487 236.611C40.1477 243.305 44.6578 248.718 50.374 249.11C73.9096 250.721 154.207 254.274 188.728 251.04C194.944 250.458 199.822 244.577 200.157 237.292C201.907 199.307 206.929 83.9735 205.625 38.6848C205.417 31.4601 200.633 25.5598 194.478 24.9134C169.017 22.239 83.6915 15.8756 54.3568 17.748C48.8502 18.0995 44.4702 23.2679 44.2349 29.7136Z" fill="url(#paint5_linear_749_55)"/>
<path opacity="0.61" d="M107.367 10.5125C107.367 11.9279 108.31 13.0953 109.518 13.1692C115.483 13.5346 132.286 14.5686 139.796 15.0784C141.276 15.179 142.438 13.622 142.157 11.9183L142.11 11.6275C141.918 10.4651 141.094 9.59008 140.086 9.48211C135.01 8.93792 119.693 7.4291 109.545 7.85289C108.326 7.9038 107.367 9.08545 107.367 10.5125Z" fill="url(#paint6_linear_749_55)"/>
<path d="M119.104 107.804C138.558 107.804 154.329 92.0329 154.329 72.5787C154.329 53.1244 138.558 37.3536 119.104 37.3536C99.6495 37.3536 83.8787 53.1244 83.8787 72.5787C83.8787 92.0329 99.6495 107.804 119.104 107.804Z" fill="url(#paint7_linear_749_55)"/>
<path d="M129.888 59.2684C129.888 65.2328 125.053 71.6719 119.089 71.6719C113.124 71.6719 108.289 65.2328 108.289 59.2684C108.289 53.3039 113.124 49.0724 119.089 49.0724C125.053 49.0724 129.888 53.3039 129.888 59.2684Z" fill="white"/>
<path d="M105.686 94.6356H132.05C134.825 94.6356 137.282 92.842 138.128 90.1987L139.547 85.7647C140.585 82.5182 138.897 79.0032 135.695 77.8327C124.966 73.9099 113.872 74.4131 102.507 78.1947C99.3232 79.2541 97.5565 82.6596 98.435 85.898L99.5274 89.9249C100.282 92.7054 102.805 94.6356 105.686 94.6356Z" fill="white"/>
<g opacity="0.71">
<path opacity="0.65" d="M186.646 164.059H58.1251C57.7221 164.059 57.3955 163.732 57.3955 163.329V144.791C57.3955 144.388 57.7221 144.062 58.1251 144.062H186.646C187.049 144.062 187.376 144.388 187.376 144.791V163.329C187.376 163.732 187.049 164.059 186.646 164.059Z" fill="white"/>
<path opacity="0.65" d="M185.945 196.685H57.4236C57.0207 196.685 56.6941 196.359 56.6941 195.956V177.418C56.6941 177.015 57.0207 176.688 57.4236 176.688H185.945C186.348 176.688 186.674 177.015 186.674 177.418V195.956C186.674 196.359 186.348 196.685 185.945 196.685Z" fill="white"/>
<path opacity="0.65" d="M160.84 235.599H78.6729C78.1756 235.599 77.7725 235.196 77.7725 234.699V211.005C77.7725 210.508 78.1756 210.105 78.6729 210.105H160.84C161.337 210.105 161.741 210.508 161.741 211.005V234.699C161.74 235.196 161.337 235.599 160.84 235.599Z" fill="white"/>
</g>
<path opacity="0.75" d="M139.276 159.701H64.4504C63.7342 159.701 63.1536 159.12 63.1536 158.404V149.888C63.1536 149.172 63.7342 148.591 64.4504 148.591H139.276C139.992 148.591 140.572 149.172 140.572 149.888V158.404C140.572 159.12 139.992 159.701 139.276 159.701Z" fill="white"/>
<g opacity="0.75">
<path d="M67.5939 190.347C69.9212 189.383 71.0263 186.715 70.0623 184.388C69.0983 182.06 66.4302 180.955 64.103 181.919C61.7758 182.883 60.6706 185.551 61.6346 187.879C62.5986 190.206 65.2667 191.311 67.5939 190.347Z" fill="white"/>
<path d="M80.1086 190.581C82.4358 189.617 83.5409 186.949 82.5769 184.621C81.613 182.294 78.9449 181.189 76.6176 182.153C74.2904 183.117 73.1853 185.785 74.1493 188.112C75.1133 190.44 77.7813 191.545 80.1086 190.581Z" fill="white"/>
<path d="M92.153 191.165C94.4802 190.201 95.5854 187.533 94.6214 185.206C93.6574 182.879 90.9893 181.774 88.6621 182.738C86.3348 183.702 85.2297 186.37 86.1937 188.697C87.1577 191.024 89.8258 192.129 92.153 191.165Z" fill="white"/>
<path d="M106.137 190.407C107.919 188.626 107.919 185.738 106.137 183.957C104.356 182.176 101.469 182.176 99.6874 183.957C97.9063 185.738 97.9063 188.626 99.6874 190.407C101.469 192.189 104.356 192.189 106.137 190.407Z" fill="white"/>
<path d="M119.862 188.133C120.441 185.681 118.923 183.225 116.472 182.646C114.02 182.067 111.564 183.585 110.985 186.037C110.406 188.488 111.924 190.944 114.376 191.523C116.827 192.102 119.284 190.584 119.862 188.133Z" fill="white"/>
<path d="M132.45 188.032C132.853 185.546 131.165 183.203 128.678 182.799C126.192 182.396 123.849 184.084 123.446 186.571C123.042 189.057 124.731 191.4 127.217 191.804C129.704 192.207 132.046 190.519 132.45 188.032Z" fill="white"/>
</g>
<path d="M180.024 202.188L193.997 205.681L190.504 231.88C190.504 231.88 195.744 237.119 197.49 244.106C199.237 251.092 200.847 280.427 200.847 280.427L204.163 282.431L204.566 284.105L194.92 297.074L196.52 286.752C196.774 285.113 196.334 281.79 196.472 281.72C191.233 267.747 180.024 228.386 180.024 228.386V202.188Z" fill="url(#paint8_linear_749_55)"/>
<path d="M175.942 284.284C176.093 284.282 176.241 284.294 176.393 284.284C175.718 275.861 172.633 238.788 169.545 224.893C166.052 209.174 174.784 177.735 174.784 177.735L190.504 193.454L181.771 223.147C187.756 232.123 180.795 284.695 180.945 284.672L180.935 284.789L183.214 287.922L182.937 289.621L169.016 297.835L174.493 288.94C175.363 287.529 175.843 285.928 175.942 284.284Z" fill="url(#paint9_linear_749_55)"/>
<path d="M193.623 108.019C193.623 108.019 224.228 142.513 193.623 160.199L190.504 157.941C190.504 157.941 205.699 143.391 190.504 125.58L193.623 108.019Z" fill="url(#paint10_linear_749_55)"/>
<path d="M168.1 299.124H172.542C173.374 299.124 174.158 298.742 174.665 298.083C176.05 296.284 178.919 292.773 180.291 292.681C182.138 292.558 181.902 299.124 181.902 299.124H182.937L184.248 290.965C184.578 288.912 183.557 286.878 181.714 285.916C181.714 285.916 181.292 289.039 179.003 290.42C176.713 291.801 169.687 296.747 169.687 296.747C169.687 296.747 168.826 296.624 167.881 296.795C166.48 297.048 166.675 299.124 168.1 299.124Z" fill="url(#paint11_linear_749_55)"/>
<path d="M194.575 298.617L198.67 296.895C199.436 296.572 200.011 295.916 200.223 295.112C200.802 292.917 202.085 288.568 203.314 287.951C204.968 287.122 207.297 293.265 207.297 293.265L208.251 292.864L206.296 284.835C205.804 282.815 204.074 281.336 202.002 281.164C202.002 281.164 202.824 284.206 201.249 286.367C199.675 288.527 195.116 295.811 195.116 295.811C195.116 295.811 194.275 296.032 193.47 296.556C192.277 297.332 193.262 299.17 194.575 298.617Z" fill="url(#paint12_linear_749_55)"/>
<path d="M170.781 151.156C170.781 151.156 171.295 154.304 170.543 162.959C169.79 171.614 166.192 191.934 166.925 211.377C166.925 211.377 177.152 213.76 194.92 212.631C194.92 212.631 202.419 182.276 200.592 170.736C198.765 159.196 188.856 150.917 188.856 150.917L170.781 151.156Z" fill="url(#paint13_linear_749_55)"/>
<path d="M178.338 93.3207L177.088 108.019H188.964L186.011 85.5831L178.338 93.3207Z" fill="url(#paint14_linear_749_55)"/>
<path d="M192.482 105.986C188.384 105.76 179.22 105.342 172.728 105.696C169.31 105.882 166.447 108.334 165.748 111.685L164.165 119.273C163.575 122.099 163.663 125.025 164.422 127.811L170.782 151.156C170.782 151.156 176.438 154.555 188.856 150.917C188.856 150.917 199.762 124.912 195.298 108.276C194.951 106.983 193.818 106.06 192.482 105.986Z" fill="url(#paint15_linear_749_55)"/>
<path d="M166.058 110.324C164.309 114.932 162.729 119.764 161.032 124.289C160.169 126.554 159.293 128.774 158.357 130.813C157.883 131.828 157.363 132.762 156.885 133.608C156.407 134.445 155.869 135.142 155.588 135.463C155.533 135.51 155.717 135.547 155.779 135.55C155.816 135.554 154.597 135.75 154.222 135.812L152.76 135.804C150.665 135.696 148.292 135.326 145.911 134.864C141.11 133.969 136.118 132.712 130.992 131.761L130.952 131.753C129.972 131.571 129.029 132.219 128.847 133.2C128.727 133.847 128.97 134.479 129.43 134.885C131.496 136.704 133.687 138.199 135.96 139.654C137.103 140.353 138.267 141.039 139.45 141.697C140.657 142.312 141.866 142.932 143.123 143.505C145.652 144.607 148.266 145.622 151.276 146.275C152.067 146.407 152.848 146.546 153.662 146.655C154.575 146.687 155.404 146.768 156.401 146.71C156.931 146.657 157.463 146.592 157.994 146.515C158.277 146.465 158.485 146.46 158.827 146.365C159.191 146.256 159.554 146.134 159.912 146C160.659 145.731 161.143 145.407 161.75 145.069C162.254 144.736 162.714 144.389 163.16 144.032C164.806 142.63 165.828 141.239 166.729 139.903C167.627 138.569 168.339 137.232 168.978 135.921C170.26 133.303 171.261 130.71 172.073 128.098C173.719 122.864 174.835 117.721 175.305 112.257C175.531 109.64 173.592 107.336 170.975 107.11C168.809 106.924 166.857 108.22 166.121 110.156L166.058 110.324Z" fill="url(#paint16_linear_749_55)"/>
<path d="M132.605 134.109L130.486 129.079L119.332 126.299C119.332 126.299 118.44 128.233 123.125 129.079C123.125 129.079 121.451 130.928 122.344 133.103C123.236 135.278 132.717 137.457 132.605 134.109Z" fill="url(#paint17_linear_749_55)"/>
<path d="M173.31 76.3461C172.886 76.5962 169.545 88.3801 172.345 93.3206C175.144 98.2613 183.694 92.7274 186.011 85.5831C188.328 78.4389 184.606 69.6846 173.31 76.3461Z" fill="url(#paint18_linear_749_55)"/>
<path d="M195.469 85.5831C197.387 94.9788 203.741 92.4075 208.242 96.5876C215.536 103.363 225.97 96.3786 236.114 102.799C243.437 107.434 246.965 119.292 243.451 128.866C238.584 142.126 221.95 147.579 213.33 143.54C205.091 139.68 206.264 128.12 195.18 123.652C190.474 121.756 188.151 122.988 185.332 120.177C180.399 115.256 181.73 105.706 182.243 102.027C183.356 94.0436 186.032 92.5983 184.753 89.0899C182.265 82.2659 170.66 83.6739 169.692 78.8563C168.812 74.4693 177.223 66.1539 185.139 67.4644C197.387 69.4915 194.615 81.3971 195.469 85.5831Z" fill="url(#paint19_linear_749_55)"/>
<path opacity="0.6" d="M239.794 126.62C239.939 126.62 240.07 126.522 240.105 126.374C241.673 119.864 240.962 114.526 237.99 110.506C233.057 103.834 223.472 103.174 223.375 103.169C223.224 103.144 223.047 103.292 223.036 103.469C223.025 103.646 223.159 103.798 223.336 103.809C223.43 103.814 232.726 104.459 237.477 110.891C240.329 114.75 241.004 119.909 239.482 126.224C239.44 126.396 239.546 126.57 239.718 126.611C239.743 126.617 239.769 126.62 239.794 126.62Z" fill="white"/>
<path opacity="0.72" d="M208.397 132.579C208.41 132.579 208.424 132.577 208.438 132.574C208.523 132.551 208.574 132.464 208.552 132.378C207.025 126.518 204.345 122.448 200.587 120.28C197.853 118.703 195.293 118.557 193.035 118.427C190.858 118.302 188.977 118.194 187.463 116.848C184.335 114.065 184.516 107.376 188.002 96.9645C188.03 96.8805 187.985 96.7898 187.901 96.7616C187.816 96.7334 187.726 96.7792 187.698 96.8631C184.167 107.407 184.017 114.211 187.251 117.087C188.847 118.508 190.779 118.619 193.017 118.747C195.24 118.875 197.759 119.02 200.427 120.558C204.107 122.681 206.737 126.685 208.242 132.46C208.261 132.532 208.326 132.579 208.397 132.579Z" fill="white"/>
<path opacity="0.72" d="M190.932 83.2515C190.949 83.2515 190.966 83.2491 190.984 83.2434C191.068 83.2153 191.113 83.1237 191.085 83.0398C189.87 79.4275 186.372 79.9644 182.665 80.5342C180.319 80.895 177.894 81.2663 175.837 80.6576C174.302 80.2024 173.39 79.4973 173.126 78.561C172.676 76.9672 174.253 75.1898 174.268 75.1716C174.328 75.1059 174.322 75.0044 174.257 74.9455C174.191 74.8861 174.089 74.8917 174.031 74.9574C173.96 75.0351 172.32 76.8819 172.817 78.6474C173.112 79.6963 174.098 80.476 175.745 80.9645C177.873 81.5945 180.333 81.2168 182.714 80.8512C186.435 80.28 189.652 79.7846 190.78 83.1426C190.803 83.2096 190.865 83.2515 190.932 83.2515Z" fill="white"/>
<defs>
<linearGradient id="paint0_linear_749_55" x1="339.592" y1="389.516" x2="72.0638" y2="57.262" gradientUnits="userSpaceOnUse">
<stop stop-color="#B37CFF"/>
<stop offset="1" stop-color="#F895E7"/>
</linearGradient>
<linearGradient id="paint1_linear_749_55" x1="296.654" y1="210.187" x2="160.544" y2="198.92" gradientUnits="userSpaceOnUse">
<stop stop-color="#B37CFF"/>
<stop offset="1" stop-color="#F895E7"/>
</linearGradient>
<linearGradient id="paint2_linear_749_55" x1="251.161" y1="118" x2="172.538" y2="92.7753" gradientUnits="userSpaceOnUse">
<stop stop-color="#A737D5"/>
<stop offset="1" stop-color="#EF497A"/>
</linearGradient>
<linearGradient id="paint3_linear_749_55" x1="5.00816" y1="110.599" x2="75.584" y2="96.9184" gradientUnits="userSpaceOnUse">
<stop stop-color="#A737D5"/>
<stop offset="1" stop-color="#EF497A"/>
</linearGradient>
<linearGradient id="paint4_linear_749_55" x1="203.076" y1="-0.124069" x2="-115.881" y2="578.555" gradientUnits="userSpaceOnUse">
<stop stop-color="#2B3582"/>
<stop offset="1" stop-color="#150E42"/>
</linearGradient>
<linearGradient id="paint5_linear_749_55" x1="137.867" y1="34.6264" x2="77.9307" y2="412.774" gradientUnits="userSpaceOnUse">
<stop stop-color="#53D8FF"/>
<stop offset="1" stop-color="#3840F7"/>
</linearGradient>
<linearGradient id="paint6_linear_749_55" x1="107.393" y1="-165.914" x2="118.292" y2="-54.7418" gradientUnits="userSpaceOnUse">
<stop stop-color="#53D8FF"/>
<stop offset="1" stop-color="#3840F7"/>
</linearGradient>
<linearGradient id="paint7_linear_749_55" x1="131.985" y1="-5.99548" x2="105.673" y2="154.507" gradientUnits="userSpaceOnUse">
<stop stop-color="#53D8FF"/>
<stop offset="1" stop-color="#3840F7"/>
</linearGradient>
<linearGradient id="paint8_linear_749_55" x1="211.312" y1="294.765" x2="171.865" y2="193.212" gradientUnits="userSpaceOnUse">
<stop stop-color="#F9B776"/>
<stop offset="1" stop-color="#F47960"/>
</linearGradient>
<linearGradient id="paint9_linear_749_55" x1="211.912" y1="621.416" x2="81.5308" y2="-902.412" gradientUnits="userSpaceOnUse">
<stop stop-color="#F9B776"/>
<stop offset="1" stop-color="#F47960"/>
</linearGradient>
<linearGradient id="paint10_linear_749_55" x1="207.225" y1="134.109" x2="190.504" y2="134.109" gradientUnits="userSpaceOnUse">
<stop stop-color="#F9B776"/>
<stop offset="1" stop-color="#F47960"/>
</linearGradient>
<linearGradient id="paint11_linear_749_55" x1="178.294" y1="297.645" x2="138.518" y2="236.618" gradientUnits="userSpaceOnUse">
<stop stop-color="#CB236D"/>
<stop offset="1" stop-color="#4C246D"/>
</linearGradient>
<linearGradient id="paint12_linear_749_55" x1="214.133" y1="316.23" x2="169.998" y2="239.946" gradientUnits="userSpaceOnUse">
<stop stop-color="#CB236D"/>
<stop offset="1" stop-color="#4C246D"/>
</linearGradient>
<linearGradient id="paint13_linear_749_55" x1="194.728" y1="158.838" x2="139.141" y2="266.741" gradientUnits="userSpaceOnUse">
<stop stop-color="#CB236D"/>
<stop offset="1" stop-color="#4C246D"/>
</linearGradient>
<linearGradient id="paint14_linear_749_55" x1="188.964" y1="96.8009" x2="177.088" y2="96.8009" gradientUnits="userSpaceOnUse">
<stop stop-color="#F9B776"/>
<stop offset="1" stop-color="#F47960"/>
</linearGradient>
<linearGradient id="paint15_linear_749_55" x1="167.568" y1="109.668" x2="230.455" y2="190.345" gradientUnits="userSpaceOnUse">
<stop stop-color="#FDF53F"/>
<stop offset="1" stop-color="#D93C65"/>
</linearGradient>
<linearGradient id="paint16_linear_749_55" x1="119.288" y1="103.572" x2="221.998" y2="162.412" gradientUnits="userSpaceOnUse">
<stop stop-color="#F9B776"/>
<stop offset="1" stop-color="#F47960"/>
</linearGradient>
<linearGradient id="paint17_linear_749_55" x1="109.082" y1="121.386" x2="211.792" y2="180.227" gradientUnits="userSpaceOnUse">
<stop stop-color="#F9B776"/>
<stop offset="1" stop-color="#F47960"/>
</linearGradient>
<linearGradient id="paint18_linear_749_55" x1="169.184" y1="96.7961" x2="192.262" y2="63.0506" gradientUnits="userSpaceOnUse">
<stop stop-color="#F9B776"/>
<stop offset="1" stop-color="#F47960"/>
</linearGradient>
<linearGradient id="paint19_linear_749_55" x1="181.408" y1="72.686" x2="214.101" y2="115.187" gradientUnits="userSpaceOnUse">
<stop stop-color="#2B3582"/>
<stop offset="1" stop-color="#150E42"/>
</linearGradient>
</defs>
</svg>
