<svg width="302" height="302" viewBox="0 0 302 302" fill="none" xmlns="http://www.w3.org/2000/svg">
<path d="M266.438 260.439C260.399 266.797 254.685 270.897 250.17 274.136C197.103 312.212 134.31 301.113 120.965 298.403C101.258 294.4 63.1656 286.663 35.6253 254.276C-6.0407 205.278 0.44734 128.082 32.7664 77.1239C38.6782 67.8028 69.9053 16.0686 133.374 7.77195C171.785 2.75102 216.56 12.8777 248.984 40.043C317.046 97.0655 312.201 212.261 266.438 260.439Z" fill="url(#paint0_linear_750_150)" fill-opacity="0.16"/>
<path d="M19.0583 4.11901C18.5723 2.61911 20.3212 1.38654 21.585 2.32929C34.419 11.9008 65.9879 41.3436 65.5223 99.1212C64.9381 171.612 82.798 196.009 103.147 209.815C103.147 209.815 76.8349 205.226 57.8067 180.573C11.0881 120.045 27.6987 30.7875 19.0583 4.11901Z" fill="#91B3FA"/>
<path d="M30.4216 25.4483C32.7772 33.2432 34.9777 41.0803 36.8886 48.9867C38.8406 56.8817 40.5524 64.8323 42.014 72.8247C43.4448 80.8222 44.7252 88.8452 45.663 96.9107C46.6371 104.972 47.2637 113.065 47.8645 121.194C48.5104 129.314 49.1148 137.498 50.5588 145.645C51.9925 153.777 54.4198 161.867 58.2535 169.275C59.2111 171.121 60.2063 172.957 61.2996 174.715C62.3607 176.495 63.5009 178.228 64.6718 179.94C67.031 183.353 69.6208 186.616 72.4408 189.671C78.0973 195.769 84.6781 201 91.7563 205.256C92.5013 205.704 93.4683 205.463 93.9163 204.718C94.3561 203.987 94.1319 203.041 93.4182 202.583L93.4132 202.58C91.7208 201.496 90.0431 200.394 88.4202 199.221C87.5992 198.647 86.8054 198.039 86.0005 197.445C85.219 196.822 84.4131 196.229 83.6517 195.582C80.5634 193.046 77.6567 190.297 74.9678 187.347C69.5667 181.479 65.0147 174.774 61.34 167.704C59.5419 164.147 58.009 160.464 56.765 156.676C55.5236 152.886 54.5715 148.995 53.8408 145.047C52.378 137.146 51.7129 129.05 51.0087 120.935C50.2939 112.819 49.5198 104.668 48.4115 96.5616C47.8684 92.5074 47.2524 88.4634 46.5643 84.4326C46.232 82.4153 45.8605 80.4048 45.4928 78.3939C45.1058 76.3866 44.7076 74.3816 44.2934 72.3803C42.6212 64.3778 40.7058 56.4303 38.5418 48.5543C36.3401 40.6888 33.9305 32.8843 31.2243 25.1859C31.1468 24.9658 30.9058 24.8502 30.6859 24.9276C30.4722 25.0029 30.3573 25.2336 30.4216 25.4483Z" fill="#BDD0FB"/>
<path d="M79.6494 258.201C79.1455 261.062 75.8834 262.478 73.4283 260.925C59.8816 252.357 23.7712 224.666 17.2337 169.717C11.7132 123.316 4.31028 98.6803 0.174568 87.7293C-0.699931 85.4136 1.89003 83.3275 3.96892 84.6712C26.9045 99.4962 97.9083 154.53 79.6494 258.201Z" fill="#7D97F4"/>
<path d="M75.7787 258.901C75.7264 258.951 75.6689 258.996 75.6057 259.036C75.077 259.372 74.3761 259.216 74.0401 258.687C73.6592 258.088 35.8322 198.021 25.2418 133.85C25.1401 133.233 25.5582 132.649 26.1763 132.546C26.7945 132.444 27.378 132.863 27.4803 133.481C37.9935 197.185 75.5762 256.875 75.9545 257.47C76.2507 257.936 76.1648 258.535 75.7787 258.901Z" fill="#91B3FA"/>
<path d="M72.8718 7.99607C65.5475 8.63304 59.932 14.7671 59.9111 22.1191C59.7836 67.0794 59.5731 222.159 62.5036 277.049C62.8141 282.864 67.5814 287.432 73.4044 287.495C102.205 287.805 185.05 288.374 232.081 285.366C241.877 284.739 249.499 276.626 249.487 266.81C249.43 219.623 248.676 86.9159 242.213 26.2571C241.438 18.9892 235.596 13.3162 228.309 12.7485C196.897 10.301 113.483 4.46411 72.8718 7.99607Z" fill="url(#paint1_linear_750_150)"/>
<path d="M71.4721 33.9018C70.9065 72.3612 69.2961 200.3 72.1073 247.52C72.5182 254.422 77.8795 259.871 84.4993 260.101C111.755 261.051 181.648 262.889 221.475 258.507C228.646 257.718 234.127 251.502 234.318 243.975C235.314 204.727 238.005 85.5672 235.273 38.8753C234.837 31.4267 229.146 25.4832 222.013 25.0025C192.501 23.0139 116.719 18.428 82.8521 21.2483C76.4944 21.7778 71.57 27.2435 71.4721 33.9018Z" fill="url(#paint2_linear_750_150)"/>
<path d="M137.325 14.683C137.349 15.7455 138.196 16.6036 139.258 16.636C144.503 16.7953 159.277 17.2475 165.88 17.4855C167.182 17.5324 168.177 16.3411 167.902 15.0676C167.88 15.0274 167.711 13.3946 166.043 13.2786C161.576 12.968 148.1 12.1306 139.194 12.6445C137.366 12.7499 137.266 14.8296 137.325 14.683Z" fill="url(#paint3_linear_750_150)"/>
<path d="M201.109 197H107.261C104.194 197 101.685 195.807 101.685 194.348V181.652C101.685 180.193 104.194 179 107.261 179H201.109C204.176 179 206.685 180.193 206.685 181.652V194.348C206.685 195.807 204.176 197 201.109 197Z" fill="url(#paint4_linear_750_150)"/>
<g opacity="0.8">
<g opacity="0.8">
<path d="M111.342 169.385C117.054 169.385 121.685 164.754 121.685 159.042C121.685 153.331 117.054 148.7 111.342 148.7C105.63 148.7 101 153.331 101 159.042C101 164.754 105.63 169.385 111.342 169.385Z" fill="white"/>
</g>
</g>
<g opacity="0.8">
<g opacity="0.8">
<path d="M140.027 168.685C145.739 168.685 150.369 164.054 150.369 158.342C150.369 152.63 145.739 148 140.027 148C134.315 148 129.685 152.63 129.685 158.342C129.685 164.054 134.315 168.685 140.027 168.685Z" fill="white"/>
</g>
</g>
<g opacity="0.8">
<g opacity="0.8">
<path d="M169.027 168.685C174.739 168.685 179.369 164.054 179.369 158.342C179.369 152.63 174.739 148 169.027 148C163.315 148 158.685 152.63 158.685 158.342C158.685 164.054 163.315 168.685 169.027 168.685Z" fill="white"/>
</g>
</g>
<g opacity="0.8">
<g opacity="0.8">
<path d="M198.027 168.685C203.739 168.685 208.369 164.054 208.369 158.342C208.369 152.63 203.739 148 198.027 148C192.315 148 187.685 152.63 187.685 158.342C187.685 164.054 192.315 168.685 198.027 168.685Z" fill="white"/>
</g>
</g>
<path opacity="0.8" d="M205.023 140H103.346C102.432 140 101.685 139.414 101.685 138.698V131.302C101.685 130.586 102.432 130 103.346 130H205.023C205.937 130 206.685 130.586 206.685 131.302V138.698C206.685 139.414 205.937 140 205.023 140Z" fill="white"/>
<path d="M201.896 26.6295C201.684 23.3634 199.712 20.4701 196.755 19.0659L158.451 0.873803C155.998 -0.291268 153.151 -0.291268 150.698 0.873803L112.394 19.0659C109.437 20.47 107.465 23.3634 107.253 26.6295C103.66 82.1677 139.271 102.403 150.944 107.515C153.259 108.529 155.89 108.529 158.205 107.515C169.878 102.403 205.489 82.1676 201.896 26.6295Z" fill="url(#paint5_linear_750_150)"/>
<path d="M142.988 8.53987C142.784 8.53987 142.588 8.42523 142.495 8.22851C142.366 7.95648 142.482 7.63087 142.754 7.50198L151.805 3.20351C152.077 3.07387 152.402 3.18969 152.531 3.46205C152.66 3.73409 152.545 4.05958 152.273 4.18848L143.222 8.48694C143.146 8.52283 143.067 8.53987 142.988 8.53987Z" fill="#91B3FA"/>
<path d="M110.183 38.5163C109.89 38.5163 109.648 38.2841 109.638 37.9894C109.517 34.3768 109.58 30.611 109.827 26.7962C109.977 24.4698 111.385 22.4004 113.5 21.3955L139.268 9.15767C139.54 9.02846 139.865 9.14385 139.994 9.41621C140.123 9.68814 140.008 10.0137 139.736 10.1426L113.968 22.3805C112.21 23.2156 111.04 24.9346 110.916 26.8665C110.671 30.6458 110.608 34.3759 110.728 37.9525C110.738 38.2536 110.502 38.5061 110.201 38.516C110.195 38.5163 110.189 38.5163 110.183 38.5163Z" fill="#91B3FA"/>
<path d="M192.633 28.7971C192.591 27.9691 192.098 27.2301 191.349 26.8743L155.541 9.86767C154.93 9.57731 154.22 9.57731 153.609 9.86767L117.801 26.8743C117.052 27.2301 116.559 27.9691 116.517 28.7971C115.458 49.5145 120.243 66.8005 130.75 80.1983C138.76 90.4128 148.131 95.8868 153.622 98.4405C154.227 98.7219 154.923 98.7219 155.528 98.4405C161.019 95.8868 170.39 90.4127 178.4 80.1983C188.907 66.8006 193.692 49.5144 192.633 28.7971Z" fill="url(#paint6_linear_750_150)"/>
<path d="M131.835 51.5047C134.796 49.6706 138.686 50.6285 140.456 53.6286L148.779 67.7382C149.613 69.1507 151.699 69.0097 152.335 67.4982L171.062 22.9642C171.996 20.7425 175.286 21.4069 175.308 23.8163C175.431 37.2977 172.474 62.9994 151.459 84.9605C151.459 84.9605 139.481 80.6343 129.419 59.8813C127.966 56.8835 129.004 53.2598 131.835 51.5047Z" fill="url(#paint7_linear_750_150)"/>
<path d="M259.621 288.415C259.621 288.415 260.307 292.297 260.643 296.14C260.774 297.642 259.616 298.946 258.11 299.009C252.993 299.222 242.046 299.636 238.118 299.461C237.528 299.435 237.141 298.83 237.36 298.281C237.543 297.821 237.896 297.449 238.346 297.242L256.428 288.932L259.621 288.415Z" fill="url(#paint8_linear_750_150)"/>
<path d="M260.183 286.134L259.632 290.778C259.632 290.778 256.464 292.252 254.301 290.592L255.613 285.417L260.183 286.134Z" fill="url(#paint9_linear_750_150)"/>
<path d="M259.768 198.836C260.006 200.049 261.046 259.348 254.707 285.922C254.604 286.356 254.823 286.803 255.236 286.971C256.208 287.368 258.114 287.944 260.398 288.02C261.106 288.044 261.74 287.584 261.94 286.905C263.751 280.74 272.434 249.848 273.566 220.339C274.832 187.365 273.566 219.216 273.566 219.216L272.824 198.833L259.768 198.836Z" fill="url(#paint10_linear_750_150)"/>
<path d="M280.421 290.44C280.421 290.44 281.512 292.4 282.569 297.608C282.76 298.548 282.103 299.448 281.148 299.542C279.458 299.708 276.856 299.922 274.773 299.908C273.812 299.901 273.062 299.065 273.178 298.111C273.409 296.21 274.128 293.092 276.349 290.661L280.421 290.44Z" fill="url(#paint11_linear_750_150)"/>
<path d="M281.379 284.468L280.092 291.49C280.092 291.49 278.819 292.437 276.301 291.75L276.916 284.195L281.379 284.468Z" fill="url(#paint12_linear_750_150)"/>
<path d="M284.857 200.656C290.041 231.943 283.732 277.984 281.605 286.995C281.475 287.547 281.029 287.97 280.47 288.062C279.52 288.22 277.957 288.348 276.415 287.901C275.884 287.746 275.511 287.267 275.489 286.715C275.204 279.429 275.718 234.704 270.887 217.028C270.642 216.132 270.095 215.351 269.338 214.813L259.963 208.148L259.244 197.374L284.857 200.656Z" fill="url(#paint13_linear_750_150)"/>
<path d="M251.823 141.373C267.359 141.116 284.502 145.453 284.502 145.453C289.132 172.474 285.311 203.641 285.311 203.641C273.284 206.795 259.716 201.713 259.716 201.713C257.717 190.419 248.39 158.633 248.39 158.633C240.799 157.691 234.546 155.501 229.396 152.605C233.324 148.052 235.176 142.258 235.98 138.833C241.473 140.541 247.032 141.452 251.823 141.373Z" fill="url(#paint14_linear_750_150)"/>
<path d="M205.933 118.49C207.459 116.646 209.391 117.518 209.391 117.518C211.677 127.176 223.665 135.006 235.98 138.834C235.176 142.258 233.324 148.052 229.396 152.605C208.957 141.113 205.933 118.49 205.933 118.49Z" fill="url(#paint15_linear_750_150)"/>
<path d="M206.303 118.959C206.144 119.466 207.993 120.239 209.082 118.163C209.12 117.168 209.725 112.905 209.13 112.094C205.963 107.776 199.823 102.364 199.823 102.364C198.786 103.388 199.641 104.394 199.641 104.394L202.619 107.497C201.996 108.623 201.236 109.573 200.88 110.935C200.61 111.966 200.775 113.068 201.296 114.007C201.819 114.949 202.532 116.173 203.207 117.131C204.483 118.945 206.303 118.959 206.303 118.959Z" fill="url(#paint16_linear_750_150)"/>
<path d="M203.922 109.51L206.636 111.811L207.488 114.102L205.068 116.787C205.068 116.787 204.255 112.241 203.65 111.257C203.045 110.273 203.359 109.798 203.922 109.51Z" fill="url(#paint17_linear_750_150)"/>
<path d="M278.542 160.496L284.501 145.453C284.501 145.453 299.013 155.313 301.399 167.814C298.657 168.016 293.668 168.729 288.784 171.195C287.711 165.292 278.542 160.496 278.542 160.496Z" fill="url(#paint18_linear_750_150)"/>
<path d="M265.861 174.651C265.861 174.651 282.154 183.859 287.651 175.997C288.793 174.364 289.065 172.742 288.784 171.195C293.668 168.729 298.657 168.016 301.399 167.814C302.119 171.582 301.738 175.591 299.524 179.642C289.894 197.257 263.705 178.668 263.705 178.668L265.861 174.651Z" fill="url(#paint19_linear_750_150)"/>
<path d="M267.819 186.3L258.927 155.248C258.826 154.895 258.525 154.638 258.161 154.596C256.55 154.408 251.882 153.88 246.492 153.424C239.999 152.875 232.46 152.43 227.954 152.808C227.314 152.862 226.927 153.54 227.211 154.116C229.773 159.299 240.312 180.384 245.59 187.291C245.765 187.52 246.035 187.653 246.323 187.651L266.954 187.459C267.554 187.453 267.984 186.877 267.819 186.3Z" fill="#BDD0FB"/>
<path d="M245.569 150.732L239.123 149.658C238.779 149.6 238.498 149.929 238.607 150.259L239.245 152.193C239.301 152.361 239.448 152.483 239.623 152.506L245.827 153.335C246.148 153.378 246.413 153.086 246.339 152.771L245.944 151.083C245.901 150.901 245.754 150.763 245.569 150.732Z" fill="#7D97F4"/>
<path d="M250.396 156.19L249.865 153.423C249.812 153.146 249.583 152.936 249.302 152.908L236.281 151.586C235.843 151.542 235.492 151.944 235.594 152.372L236.422 155.819C236.489 156.095 236.729 156.294 237.012 156.308L249.736 156.949C250.15 156.97 250.475 156.597 250.396 156.19Z" fill="#7D97F4"/>
<path d="M265.671 178.798C265.671 178.798 266.909 173.705 266.41 171.898C265.91 170.091 264.942 167.767 261.715 168.284C258.488 168.8 254.682 170.159 254.682 170.159C254.682 170.159 254.874 172.513 257.327 171.754L255.806 172.93C255.806 172.93 256.023 174.815 258.095 173.808L256.68 175.369C256.68 175.369 257.57 176.916 259.094 175.924C260.618 174.931 261.348 179.411 265.671 178.798Z" fill="url(#paint20_linear_750_150)"/>
<path d="M267.56 128.761L272.503 143.056C272.585 143.293 272.488 143.555 272.268 143.676C270.921 144.422 266.066 146.575 260.216 142.866C259.606 142.479 259.191 141.849 259.099 141.133L257.498 128.76L267.56 128.761Z" fill="url(#paint21_linear_750_150)"/>
<path d="M256.804 115.522C256.804 115.522 251.376 125.741 252.072 129.868C252.767 133.996 259.495 133.699 265.37 130.347L269.475 119.314L256.804 115.522Z" fill="url(#paint22_linear_750_150)"/>
<path d="M265.11 124.929C264.871 124.823 264.783 124.531 264.926 124.312C265.361 123.648 266.176 122.292 266.436 121.106C266.436 121.106 267.412 120.481 263.953 119.653C260.493 118.825 255.334 117.539 254.25 114.595C253.192 111.724 255.97 104.503 260.402 110.256C260.571 110.475 260.901 110.48 261.069 110.261C261.796 109.315 263.706 107.353 266.358 108.543C268.839 109.656 269.119 111.475 269.085 112.391C269.075 112.661 269.316 112.87 269.581 112.82C270.836 112.581 273.847 112.375 275.252 115.464C276.409 118.008 275.657 119.448 274.972 120.152C274.75 120.381 274.847 120.756 275.152 120.85C275.976 121.102 277.041 121.801 276.934 123.733C276.787 126.404 273.801 126.169 272.951 126.047C272.811 126.027 272.671 126.075 272.577 126.179C271.848 126.986 268.563 130.411 265.009 130.824C264.701 130.86 264.462 130.556 264.563 130.263L266.101 125.791C266.173 125.583 266.074 125.355 265.873 125.266L265.11 124.929Z" fill="url(#paint23_linear_750_150)"/>
<path d="M264.491 125.563C264.491 125.563 268.356 122.912 268.639 125.145C268.921 127.378 265.158 128.379 263.295 127.547L264.491 125.563Z" fill="url(#paint24_linear_750_150)"/>
<defs>
<linearGradient id="paint0_linear_750_150" x1="338.766" y1="389.206" x2="75.8556" y2="62.6876" gradientUnits="userSpaceOnUse">
<stop stop-color="#DAE3FE"/>
<stop offset="1" stop-color="#E9EFFD"/>
</linearGradient>
<linearGradient id="paint1_linear_750_150" x1="-130.324" y1="376.726" x2="208.544" y2="101.85" gradientUnits="userSpaceOnUse">
<stop stop-color="#09005D"/>
<stop offset="1" stop-color="#1A0F91"/>
</linearGradient>
<linearGradient id="paint2_linear_750_150" x1="21.515" y1="326.969" x2="170.588" y2="113.904" gradientUnits="userSpaceOnUse">
<stop stop-color="#FEBBBA"/>
<stop offset="1" stop-color="#FF928E"/>
</linearGradient>
<linearGradient id="paint3_linear_750_150" x1="179.681" y1="-106.608" x2="157.866" y2="-8.43793" gradientUnits="userSpaceOnUse">
<stop stop-color="#4042E2"/>
<stop offset="1" stop-color="#4F52FF"/>
</linearGradient>
<linearGradient id="paint4_linear_750_150" x1="212.759" y1="72.8113" x2="191.954" y2="253.677" gradientUnits="userSpaceOnUse">
<stop stop-color="#E1473D"/>
<stop offset="1" stop-color="#E9605A"/>
</linearGradient>
<linearGradient id="paint5_linear_750_150" x1="297.583" y1="-168.625" x2="234.318" y2="-74.8183" gradientUnits="userSpaceOnUse">
<stop stop-color="#4042E2"/>
<stop offset="1" stop-color="#4F52FF"/>
</linearGradient>
<linearGradient id="paint6_linear_750_150" x1="243.877" y1="-129.689" x2="207.517" y2="-59.8792" gradientUnits="userSpaceOnUse">
<stop stop-color="#09005D"/>
<stop offset="1" stop-color="#1A0F91"/>
</linearGradient>
<linearGradient id="paint7_linear_750_150" x1="141.571" y1="91.8519" x2="156.842" y2="24.2238" gradientUnits="userSpaceOnUse">
<stop stop-color="#E1473D"/>
<stop offset="1" stop-color="#E9605A"/>
</linearGradient>
<linearGradient id="paint8_linear_750_150" x1="238.69" y1="283.05" x2="304.905" y2="355.073" gradientUnits="userSpaceOnUse">
<stop stop-color="#4042E2"/>
<stop offset="1" stop-color="#4F52FF"/>
</linearGradient>
<linearGradient id="paint9_linear_750_150" x1="260.182" y1="288.399" x2="254.301" y2="288.399" gradientUnits="userSpaceOnUse">
<stop stop-color="#FF928E"/>
<stop offset="1" stop-color="#FEB3B1"/>
</linearGradient>
<linearGradient id="paint10_linear_750_150" x1="274.129" y1="243.427" x2="254.682" y2="243.427" gradientUnits="userSpaceOnUse">
<stop stop-color="#09005D"/>
<stop offset="1" stop-color="#1A0F91"/>
</linearGradient>
<linearGradient id="paint11_linear_750_150" x1="253.544" y1="269.394" x2="319.759" y2="341.416" gradientUnits="userSpaceOnUse">
<stop stop-color="#4042E2"/>
<stop offset="1" stop-color="#4F52FF"/>
</linearGradient>
<linearGradient id="paint12_linear_750_150" x1="281.379" y1="288.098" x2="276.301" y2="288.098" gradientUnits="userSpaceOnUse">
<stop stop-color="#FF928E"/>
<stop offset="1" stop-color="#FEB3B1"/>
</linearGradient>
<linearGradient id="paint13_linear_750_150" x1="286.853" y1="242.791" x2="259.244" y2="242.791" gradientUnits="userSpaceOnUse">
<stop stop-color="#09005D"/>
<stop offset="1" stop-color="#1A0F91"/>
</linearGradient>
<linearGradient id="paint14_linear_750_150" x1="268.06" y1="149.328" x2="236.424" y2="234.417" gradientUnits="userSpaceOnUse">
<stop stop-color="#4042E2"/>
<stop offset="1" stop-color="#4F52FF"/>
</linearGradient>
<linearGradient id="paint15_linear_750_150" x1="278.157" y1="134.959" x2="248.109" y2="134.959" gradientUnits="userSpaceOnUse">
<stop stop-color="#FF928E"/>
<stop offset="1" stop-color="#FEB3B1"/>
</linearGradient>
<linearGradient id="paint16_linear_750_150" x1="220.4" y1="87.5985" x2="206.584" y2="107.233" gradientUnits="userSpaceOnUse">
<stop stop-color="#FF928E"/>
<stop offset="1" stop-color="#FEB3B1"/>
</linearGradient>
<linearGradient id="paint17_linear_750_150" x1="206.077" y1="114.644" x2="197.664" y2="101.709" gradientUnits="userSpaceOnUse">
<stop stop-color="#FF928E"/>
<stop offset="1" stop-color="#FEB3B1"/>
</linearGradient>
<linearGradient id="paint18_linear_750_150" x1="292.153" y1="158.285" x2="260.517" y2="243.375" gradientUnits="userSpaceOnUse">
<stop stop-color="#4042E2"/>
<stop offset="1" stop-color="#4F52FF"/>
</linearGradient>
<linearGradient id="paint19_linear_750_150" x1="301.73" y1="177.52" x2="263.705" y2="177.52" gradientUnits="userSpaceOnUse">
<stop stop-color="#FF928E"/>
<stop offset="1" stop-color="#FEB3B1"/>
</linearGradient>
<linearGradient id="paint20_linear_750_150" x1="266.528" y1="173.533" x2="254.682" y2="173.533" gradientUnits="userSpaceOnUse">
<stop stop-color="#FF928E"/>
<stop offset="1" stop-color="#FEB3B1"/>
</linearGradient>
<linearGradient id="paint21_linear_750_150" x1="260.819" y1="123.352" x2="267.121" y2="147.106" gradientUnits="userSpaceOnUse">
<stop stop-color="#FF928E"/>
<stop offset="1" stop-color="#FEB3B1"/>
</linearGradient>
<linearGradient id="paint22_linear_750_150" x1="272.992" y1="103.98" x2="254.57" y2="133.31" gradientUnits="userSpaceOnUse">
<stop stop-color="#FF928E"/>
<stop offset="1" stop-color="#FEB3B1"/>
</linearGradient>
<linearGradient id="paint23_linear_750_150" x1="279.202" y1="106.595" x2="257.848" y2="123.462" gradientUnits="userSpaceOnUse">
<stop stop-color="#09005D"/>
<stop offset="1" stop-color="#1A0F91"/>
</linearGradient>
<linearGradient id="paint24_linear_750_150" x1="278.182" y1="107.239" x2="259.76" y2="136.569" gradientUnits="userSpaceOnUse">
<stop stop-color="#FF928E"/>
<stop offset="1" stop-color="#FEB3B1"/>
</linearGradient>
</defs>
</svg>
