<svg width="41" height="44" viewBox="0 0 41 44" fill="none" xmlns="http://www.w3.org/2000/svg">
<g id="Layer_x0020_1">
<g id="_459340816">
<path id="_459341680" fill-rule="evenodd" clip-rule="evenodd" d="M29.5802 18.0341C34.215 23.9364 34.2211 35.4929 40.7129 43.7894C39.8887 43.7894 1.51279 43.8474 0 43.9999C0.318398 42.4529 2.90073 41.9905 5.41414 41.9148C12.1886 41.7424 11.1162 38.2288 21.2172 37.1223C23.5976 36.8618 23.2273 38.5016 25.5211 39.2422C31.9363 40.4486 29.3791 29.3912 26.8654 22.7364L29.5804 18.0341H29.5802Z" fill="white"/>
<path id="_459340528" d="M7.09164 12.3446C7.02702 11.8336 6.56027 11.4717 6.0492 11.5363C5.53815 11.6009 5.17624 12.0677 5.24087 12.5788C6.08469 19.2339 8.22547 22.5956 10.4556 23.9171C11.338 24.44 12.2423 24.6564 13.1031 24.6359C13.9712 24.6152 14.783 24.3532 15.4768 23.9211C16.9324 23.0144 17.8866 21.3472 17.7628 19.5785C17.7284 19.0633 17.283 18.6736 16.7679 18.7079C16.2527 18.7423 15.863 19.1877 15.8973 19.7028C15.9717 20.7655 15.3841 21.7762 14.4893 22.3336C14.0648 22.598 13.5751 22.7581 13.0593 22.7704C12.5361 22.7829 11.9732 22.6435 11.4065 22.3076C9.6048 21.2401 7.8493 18.3203 7.09164 12.3446Z" fill="white"/>
<path id="_459340936" d="M11.3174 2.04944C10.8406 2.24939 10.6163 2.79807 10.8163 3.27479C11.0162 3.75152 11.5649 3.97587 12.0416 3.77589C17.5973 1.44341 21.0037 1.50325 22.8284 2.5294C23.4014 2.85164 23.8028 3.26846 24.0529 3.72665C24.3017 4.18226 24.4086 4.68712 24.3919 5.18604C24.3566 6.23774 23.7756 7.25046 22.8189 7.71698C22.3542 7.9432 22.161 8.50331 22.3872 8.96792C22.6135 9.43247 23.1736 9.62577 23.6382 9.39953C25.2326 8.62208 26.1999 6.96053 26.2573 5.24462C26.2847 4.42687 26.1062 3.59365 25.6916 2.83413C25.2784 2.07725 24.638 1.40147 23.7428 0.898049C21.4827 -0.372908 17.501 -0.546617 11.3174 2.04944Z" fill="white"/>
<path id="_459340480" fill-rule="evenodd" clip-rule="evenodd" d="M25.8721 12.7088L32.1003 11.8354L24.1041 25.6851L21.7465 19.8547C21.2717 20.0436 20.7762 20.1957 20.307 20.3089C18.6876 20.6994 17.0093 20.7152 15.3795 20.3722C9.2779 19.0879 5.02792 13.1751 2.35295 7.9786L2.11914 7.52431L5.38004 1.87627L5.89033 1.85164C11.7281 1.56993 18.9737 2.2941 23.1368 6.93604C24.2489 8.17617 25.0741 9.63711 25.5457 11.235C25.6824 11.698 25.7984 12.2032 25.8721 12.7088Z" fill="white"/>
</g>
</g>
</svg>
