<svg width="58" height="44" viewBox="0 0 58 44" fill="none" xmlns="http://www.w3.org/2000/svg">
<g id="Layer_x0020_1">
<g id="_276986416">
<path id="_276986824" fill-rule="evenodd" clip-rule="evenodd" d="M29.3358 43.9999C35.5629 42.6614 36.3582 34.8093 36.3582 34.8093C36.3582 29.6942 40.1808 24.5792 40.1808 24.5792C41.3176 10.1277 28.7131 10.9391 28.7131 10.9391C28.7131 10.9391 16.1086 10.1277 17.2454 24.5792C17.2454 24.5792 21.068 29.6942 21.068 34.8093C21.068 34.8093 21.8632 42.6615 28.0905 43.9999V40.206C26.3383 40.2705 25.1956 38.2716 25.1956 38.2716C22.7337 35.0711 27.9036 35.3172 27.9036 35.3172L28.7132 35.3856L29.5226 35.3172C29.5226 35.3172 34.6926 35.0711 32.2307 38.2716C32.2307 38.2716 31.088 40.2705 29.3359 40.206L29.3358 43.9999ZM22.9798 18.797C22.0443 18.257 20.95 18.4011 20.5355 19.1191C20.121 19.8369 20.5433 20.8567 21.4788 21.3969C22.4143 21.937 23.5086 21.7928 23.9231 21.0749C24.3376 20.357 23.9152 19.3372 22.9798 18.797ZM34.4463 18.797C35.3818 18.257 36.4761 18.4011 36.8906 19.1191C37.3051 19.8369 36.8828 20.8567 35.9473 21.3969C35.0118 21.937 33.9175 21.7928 33.503 21.0749C33.0885 20.357 33.5108 19.3372 34.4463 18.797Z" fill="white"/>
<path id="_276985960" fill-rule="evenodd" clip-rule="evenodd" d="M28.6461 10.9361C29.356 7.11294 31.4982 2.62265 37.3735 0.671723C47.4911 -2.56593 56.3781 6.49841 57.2081 15.063C57.6954 20.0932 55.8761 24.0121 53.2118 25.4399C50.8338 26.7143 44.9071 25.338 46.0246 19.5862C47.8254 21.9138 49.8052 22.0546 50.4236 21.9462C53.9529 21.3273 52.2473 5.62221 41.743 7.57053C39.0319 8.07343 36.5025 10.1065 35.9588 12.691L35.5162 14.255L28.6436 12.0917L28.6461 10.9361Z" fill="white"/>
<path id="_276985864" fill-rule="evenodd" clip-rule="evenodd" d="M39.52 18.3672C42.5964 17.139 45.805 14.9829 46.9623 11.1969C42.6768 12.0495 39.7574 13.2878 37.6576 14.6197C35.5579 15.9515 39.52 18.3672 39.52 18.3672Z" fill="white"/>
<g id="Group">
<path id="_276986008" fill-rule="evenodd" clip-rule="evenodd" d="M28.641 10.9361C27.9311 7.11294 25.7889 2.62265 19.9137 0.671723C9.79596 -2.56593 0.908967 6.49841 0.0790499 15.063C-0.408338 20.0932 1.41105 24.0121 4.07531 25.4399C6.45332 26.7143 12.38 25.338 11.2625 19.5862C9.46175 21.9138 7.48195 22.0546 6.86354 21.9462C3.33419 21.3273 5.03979 5.62221 15.5441 7.57053C18.2552 8.07343 20.7846 10.1065 21.3283 12.691L21.7709 14.255L28.6436 12.0917L28.641 10.9361Z" fill="white"/>
<path id="_276986296" fill-rule="evenodd" clip-rule="evenodd" d="M17.7655 18.3672C14.6891 17.139 11.4805 14.9829 10.3232 11.1969C14.6087 12.0495 17.5281 13.2878 19.6279 14.6197C21.7277 15.9515 17.7655 18.3672 17.7655 18.3672Z" fill="white"/>
</g>
</g>
</g>
</svg>
