<svg width="46" height="44" viewBox="0 0 46 44" fill="none" xmlns="http://www.w3.org/2000/svg">
<g id="Layer_x0020_1">
<g id="_466581288">
<path id="_466582824" d="M14.6312 37.6447C14.9946 37.2627 14.9796 36.6583 14.5975 36.2948C14.2155 35.9313 13.6111 35.9464 13.2476 36.3284C10.8474 38.8498 8.97222 42.604 8.96677 42.6149C8.72928 43.0858 8.91846 43.6601 9.38929 43.8975C9.86015 44.135 10.4344 43.9458 10.6719 43.475C10.677 43.4648 12.4286 39.9584 14.6312 37.6447Z" fill="white"/>
<path id="_466583112" d="M10.6191 33.8015C11.1271 33.6611 11.4251 33.1354 11.2847 32.6273C11.1443 32.1193 10.6185 31.8213 10.1105 31.9617C9.07498 32.2477 7.7724 32.7109 6.3241 33.4597C4.88202 34.2053 3.28911 35.2368 1.66172 36.6633C1.26522 37.0102 1.22505 37.613 1.57197 38.0095C1.91889 38.4059 2.52165 38.4461 2.91814 38.0992C4.41302 36.7889 5.87552 35.8417 7.19914 35.1574C8.51647 34.4763 9.69027 34.058 10.6191 33.8015Z" fill="white"/>
<path id="_466582272" d="M7.94246 28.526C8.39884 28.7882 8.98149 28.6309 9.24375 28.1745C9.50602 27.7181 9.34866 27.1355 8.89225 26.8732C7.98347 26.3489 6.17221 25.248 4.59139 23.9438C3.14962 22.7544 1.91458 21.4317 1.91458 20.3904C1.91458 19.8617 1.48596 19.4331 0.957276 19.4331C0.42859 19.4331 0 19.8617 0 20.3904C0 22.1231 1.5594 23.9153 3.37984 25.4171C5.06118 26.8042 6.98015 27.9709 7.94246 28.526Z" fill="white"/>
<path id="_466582056" fill-rule="evenodd" clip-rule="evenodd" d="M7.50564 12.3573L7.74502 11.5022L3.08907 11.1285C2.23428 17.6654 6.8266 21.3882 9.13184 22.8218L11.5327 20.9771C9.90798 20.0146 6.70156 17.4332 7.50564 12.3573Z" fill="white"/>
<path id="_466582344" fill-rule="evenodd" clip-rule="evenodd" d="M8.61926 7.26394L15.4157 3.53259C17.0648 10.3551 9.13715 14.6443 3.08908 11.1285C3.08908 11.1285 -0.176096 -0.132126 13.2168 0.00117422L8.61926 7.26394Z" fill="white"/>
<path id="_466581672" d="M32.7013 36.3284C32.3378 35.9464 31.7334 35.9313 31.3514 36.2948C30.9693 36.6583 30.9543 37.2627 31.3177 37.6447C33.5203 39.9584 35.2719 43.4648 35.277 43.475C35.5145 43.9458 36.0888 44.135 36.5596 43.8975C37.0304 43.66 37.2196 43.0858 36.9821 42.6149C36.9767 42.604 35.1015 38.8498 32.7013 36.3284L32.7013 36.3284Z" fill="white"/>
<path id="_466581984" d="M35.8388 31.9617C35.3308 31.8213 34.805 32.1193 34.6646 32.6273C34.5242 33.1354 34.8222 33.6611 35.3302 33.8015C36.259 34.058 37.4328 34.4763 38.7502 35.1574C40.0738 35.8417 41.5362 36.7888 43.0311 38.0992C43.4276 38.4461 44.0304 38.4059 44.3773 38.0094C44.7242 37.6129 44.6841 37.0102 44.2875 36.6633C42.6602 35.2368 41.0673 34.2053 39.6252 33.4598C38.1769 32.7109 36.8743 32.2477 35.8388 31.9617Z" fill="white"/>
<path id="_466582320" d="M37.0575 26.8732C36.6011 27.1354 36.4437 27.7181 36.706 28.1745C36.9683 28.6308 37.5509 28.7882 38.0073 28.526C39.2018 27.837 41.8672 26.2069 43.7415 24.3706C45.0162 23.1217 45.9497 21.7446 45.9497 20.3904C45.9497 19.8617 45.5211 19.4331 44.9925 19.4331C44.4638 19.4331 44.0352 19.8617 44.0352 20.3904C44.0352 21.1506 43.345 22.0863 42.4028 23.0094C40.6774 24.6999 38.179 26.2263 37.0575 26.8732L37.0575 26.8732Z" fill="white"/>
<path id="_466581864" fill-rule="evenodd" clip-rule="evenodd" d="M37.3298 7.26394L30.5334 3.53259C28.8843 10.3551 36.8119 14.6443 42.86 11.1285C42.86 11.1285 46.1252 -0.132126 32.7323 0.00117422L37.3298 7.26394Z" fill="white"/>
<path id="_466581456" fill-rule="evenodd" clip-rule="evenodd" d="M22.9743 40.8832C22.9743 40.8832 8.23011 40.1562 7.52441 23.8884C7.52441 23.8884 12.1724 17.7866 22.9743 16.975C33.7761 17.7866 38.4241 23.8884 38.4241 23.8884C37.7184 40.1562 22.9743 40.8832 22.9743 40.8832Z" fill="white"/>
<path id="_466580832" d="M19.6238 9.84627C19.3202 9.41469 18.7242 9.31089 18.2926 9.61443C17.861 9.91804 17.7572 10.5141 18.0607 10.9457C18.0685 10.9567 20.7962 14.7658 18.9488 18.3566C18.7072 18.8254 18.8913 19.4013 19.3601 19.6429C19.8289 19.8845 20.4048 19.7004 20.6464 19.2316C23.0296 14.5993 19.6334 9.86 19.6238 9.84627Z" fill="white"/>
<path id="_466581000" d="M27.7529 10.9457C28.0565 10.5141 27.9527 9.91803 27.5211 9.61446C27.0895 9.31088 26.4935 9.41469 26.1899 9.84627C26.1803 9.86003 22.7841 14.5993 25.1673 19.2316C25.4089 19.7004 25.9848 19.8845 26.4536 19.6429C26.9224 19.4013 27.1065 18.8253 26.8649 18.3566C25.0176 14.7658 27.7452 10.9567 27.7529 10.9457Z" fill="white"/>
<path id="_466581024" fill-rule="evenodd" clip-rule="evenodd" d="M38.4431 12.3573L38.2037 11.5022L42.8597 11.1285C43.7145 17.6654 39.1222 21.3882 36.8169 22.8218L34.416 20.9771C36.0408 20.0146 39.2472 17.4332 38.4431 12.3573Z" fill="white"/>
</g>
</g>
</svg>
