<svg width="34" height="44" viewBox="0 0 34 44" fill="none" xmlns="http://www.w3.org/2000/svg">
<g id="Layer_x0020_1">
<path id="Vector" fill-rule="evenodd" clip-rule="evenodd" d="M9.85521 10.5517C9.8638 5.02709 0.438477 0.0695603 0.438477 0.0695603C0.438477 0.0695603 9.71774 -1.39106 12.8967 9.07388C12.5793 9.10122 12.2637 9.14712 11.9516 9.21135L11.754 9.25431L11.5822 9.38319C11.0409 9.81279 10.4481 10.1908 9.85521 10.5517ZM23.6968 10.5517C23.6882 5.02709 33.1049 0.0695603 33.1049 0.0695603C33.1049 0.0695603 23.8257 -1.39106 20.6467 9.07388C20.9641 9.10122 21.2797 9.14712 21.5918 9.21135L21.798 9.25431L21.9698 9.38319C22.5025 9.81279 23.1039 10.1908 23.6968 10.5517Z" fill="white"/>
<path id="Vector_2" fill-rule="evenodd" clip-rule="evenodd" d="M16.7716 43.9398C16.7267 43.9592 16.6808 43.9764 16.6342 43.9914C15.4227 43.6219 13.7988 41.2419 13.7988 41.2419V37.8481H19.753V41.2505C19.753 41.2505 18.1206 43.6219 16.9177 44C16.868 43.9824 16.8193 43.9624 16.7716 43.9398Z" fill="white"/>
<path id="Vector_3" fill-rule="evenodd" clip-rule="evenodd" d="M32.9328 15.8872C30.5958 14.9679 24.2979 12.3817 21.3939 10.1049C20.0253 9.90911 18.6434 9.82292 17.2612 9.84712V31.3613C18.4468 31.5245 19.3576 32.3064 19.3576 33.2343C19.3576 34.2911 18.2149 35.1417 16.8058 35.1417H16.7456C15.3452 35.1417 14.2024 34.2825 14.2024 33.2343C14.2024 32.2978 15.1046 31.5159 16.2989 31.3613V9.85571C14.5805 9.85571 12.9051 9.94163 12.1576 10.1135C9.26208 12.3903 2.96421 14.9765 0.618618 15.8958L7.92174 17.1159C8.03122 17.1336 8.13122 17.1886 8.2048 17.2716C8.27839 17.3546 8.32105 17.4604 8.32556 17.5712L8.61769 21.429L10.5681 30.6224C10.3962 39.5751 16.6425 39.283 16.6425 39.283H16.9261C16.9261 39.283 23.1724 39.5751 23.0005 30.6224L24.9423 21.429L25.243 17.5627C25.2476 17.4518 25.2902 17.346 25.3638 17.263C25.4374 17.18 25.5374 17.125 25.6469 17.1073L32.95 15.8958L32.9328 15.8872ZM7.63821 21.4204C6.07444 21.3564 4.55272 20.8953 3.21641 20.0806C1.88011 19.2659 0.773206 18.1244 0 16.7636L7.38045 17.9923L7.63821 21.4204ZM10.1041 18.1125C10.1041 18.1125 13.6869 17.6486 13.6611 20.1746C13.6611 20.1746 10.2244 22.5202 10.1041 18.1125ZM25.9132 21.4204C27.6574 21.3259 31.3261 20.63 33.5428 16.7636L26.171 17.9923L25.9132 21.4204ZM23.4473 18.1125C23.4473 18.1125 19.8559 17.6486 19.8903 20.1746C19.8903 20.1746 23.327 22.5202 23.4473 18.1125Z" fill="white"/>
</g>
</svg>
