<svg width="39" height="44" viewBox="0 0 39 44" fill="none" xmlns="http://www.w3.org/2000/svg">
<g id="Layer_x0020_1">
<g id="_466582944">
<path id="_466583976" fill-rule="evenodd" clip-rule="evenodd" d="M10.265 37.4606C8.17841 39.2089 8.91151 42.0286 8.91151 42.0286C6.31732 40.5623 5.86621 33.4565 5.86621 33.4565L2.93367 35.9379C-4.28487 25.4484 4.08988 13.3375 4.08988 13.3375L2.04608 13.5067C0.974615 8.09276 7.62918 5.69588 7.62918 5.69588L5.37344 4.42701C8.70074 1.60732 13.7481 4.25783 13.7481 4.25783C13.8045 2.62244 9.88504 0 9.88504 0C16.1731 0.0281588 18.6827 4.45517 19.0063 4.45517C19.3298 4.45517 21.8394 0.0281302 28.1275 0C28.1275 0 24.208 2.62241 24.2644 4.25783C24.2644 4.25783 29.3118 1.60732 32.6391 4.42701L30.3833 5.69588C30.3833 5.69588 37.0379 8.09276 35.9664 13.5067L33.9226 13.3375C33.9226 13.3375 42.2974 25.4484 35.0788 35.9379L32.1463 33.4565C32.1463 33.4565 31.6952 40.5623 29.101 42.0286C29.101 42.0286 29.8341 39.2089 27.7475 37.4606C21.0404 46.1798 16.9722 46.1798 10.2651 37.4606H10.265ZM19.0062 36.3809C24.9958 36.9043 26.7985 26.1464 26.7985 26.1464C31.9158 16.6677 24.4724 11.0852 24.4724 11.0852C21.3904 9.22436 19.8785 13.1786 19.0062 13.1786C18.134 13.1786 16.6221 9.22436 13.54 11.0852C13.54 11.0852 6.09666 16.6677 11.214 26.1464C11.214 26.1464 13.0167 36.9043 19.0062 36.3809Z" fill="white"/>
<path id="_466584264" d="M24.4726 19.0694C23.4227 19.3507 22.402 18.9461 22.1929 18.1655C21.9837 17.385 22.6653 16.5242 23.7152 16.2429C24.7651 15.9616 25.7858 16.3663 25.9949 17.1468C26.204 17.9273 25.5225 18.7881 24.4726 19.0694Z" fill="white"/>
<path id="_466583520" fill-rule="evenodd" clip-rule="evenodd" d="M19.0062 29.1087C16.2896 29.2479 15.21 26.1135 15.21 26.1135C16.22 24.0934 18.832 26.4269 19.0062 26.4269C19.1804 26.4269 21.7924 24.0934 22.8024 26.1135C22.8024 26.1135 21.7228 29.2479 19.0062 29.1087Z" fill="white"/>
<path id="_466583256" fill-rule="evenodd" clip-rule="evenodd" d="M18.0693 31.1164V29.0015C18.0693 28.5775 18.4889 28.2335 19.0059 28.2335C19.523 28.2335 19.9425 28.5775 19.9425 29.0015V31.1164C19.9425 31.5405 19.523 31.8844 19.0059 31.8844C18.4889 31.8844 18.0693 31.5405 18.0693 31.1164Z" fill="white"/>
<path id="_466583424" fill-rule="evenodd" clip-rule="evenodd" d="M22.3973 33.8787L22.3967 33.8964L22.793 33.9142C22.8923 33.9187 22.845 33.9161 22.9146 33.9088C24.1432 33.7799 25.2769 33.234 26.232 32.3317C26.5286 32.0516 26.8071 31.738 27.0541 31.399C27.1511 31.2658 27.2675 31.1017 27.3465 30.9521C27.5779 30.5135 27.4589 29.934 27.0814 29.6646C26.7038 29.395 26.2042 29.5335 25.9721 29.972C25.7686 30.3565 25.4855 30.7188 25.1914 31.0103C24.5174 31.6786 23.7148 32.0428 22.8241 32.0428C21.9335 32.0428 21.1309 31.6786 20.4569 31.0103C20.1628 30.7188 19.8796 30.3565 19.6762 29.972C19.4441 29.5335 18.9445 29.395 18.5669 29.6646C18.1893 29.9341 18.0702 30.5138 18.302 30.9524C18.5706 31.4654 19.0311 32.0172 19.4244 32.397C20.2852 33.228 21.296 33.7392 22.3973 33.8787Z" fill="white"/>
<path id="_466583832" fill-rule="evenodd" clip-rule="evenodd" d="M14.7616 33.8787L14.7609 33.8964L15.1572 33.9142C15.2566 33.9187 15.2093 33.9161 15.2789 33.9088C16.5075 33.7799 17.6412 33.234 18.5963 32.3317C18.8929 32.0516 19.1714 31.738 19.4184 31.399C19.5154 31.2658 19.6318 31.1017 19.7107 30.9521C19.9421 30.5135 19.8232 29.934 19.4457 29.6646C19.0681 29.395 18.5684 29.5335 18.3364 29.972C18.1329 30.3565 17.8498 30.7188 17.5557 31.0103C16.8817 31.6786 16.0791 32.0428 15.1884 32.0428C14.2977 32.0428 13.4952 31.6786 12.8211 31.0103C12.5271 30.7188 12.2439 30.3565 12.0405 29.972C11.8084 29.5335 11.3088 29.395 10.9311 29.6646C10.5536 29.9341 10.4345 30.5138 10.6662 30.9524C10.9349 31.4654 11.3954 32.0172 11.7887 32.397C12.6494 33.228 13.6603 33.7392 14.7616 33.8787H14.7616Z" fill="white"/>
<path id="_466583856" d="M15.4492 17.9926C15.2337 17.842 14.9367 17.8946 14.786 18.1103C14.6355 18.3259 14.6881 18.6229 14.9037 18.7735C14.9065 18.7754 15.8799 19.4481 15.7513 20.0522C15.6966 20.3101 15.8614 20.5636 16.1193 20.6182C16.3772 20.6729 16.6307 20.5082 16.6853 20.2502C16.9466 19.0231 15.4535 17.9956 15.4492 17.9926Z" fill="white"/>
<path id="_466583688" d="M23.0691 18.7735C23.2847 18.6229 23.3374 18.3259 23.1868 18.1103C23.0362 17.8947 22.7392 17.842 22.5236 17.9926C22.5194 17.9956 21.0262 19.0231 21.2875 20.2502C21.3422 20.5082 21.5956 20.6729 21.8536 20.6183C22.1115 20.5635 22.2763 20.3101 22.2216 20.0522C22.093 19.448 23.0663 18.7754 23.0691 18.7735Z" fill="white"/>
<path id="_466583808" d="M13.5392 19.0694C14.5891 19.3507 15.6097 18.9461 15.8189 18.1655C16.028 17.385 15.3464 16.5242 14.2965 16.2429C13.2466 15.9616 12.226 16.3663 12.0168 17.1468C11.8077 17.9273 12.4893 18.7881 13.5392 19.0694Z" fill="white"/>
</g>
</g>
</svg>
