<svg width="48" height="44" viewBox="0 0 48 44" fill="none" xmlns="http://www.w3.org/2000/svg">
<g id="Layer_x0020_1">
<g id="_466577232">
<path id="_466579224" d="M23.7171 5.69401C25.2895 5.69401 26.5641 4.41936 26.5641 2.847C26.5641 1.27465 25.2895 0 23.7171 0C22.1448 0 20.8701 1.27465 20.8701 2.847C20.8701 4.41936 22.1448 5.69401 23.7171 5.69401Z" fill="white"/>
<path id="_466578816" fill-rule="evenodd" clip-rule="evenodd" d="M25.2871 4.68591H25.3918V37.9632H22.043V4.68591H22.1478H25.2871Z" fill="white"/>
<path id="_466578480" fill-rule="evenodd" clip-rule="evenodd" d="M14.8672 37.469H32.5667V40.9815H14.8672V37.469Z" fill="white"/>
<path id="_466578384" fill-rule="evenodd" clip-rule="evenodd" d="M10.7617 40.4874H36.6717V44H10.7617V40.4874Z" fill="white"/>
<path id="_466578168" d="M25.8305 8.20935C25.3144 7.9713 24.703 8.19678 24.465 8.71287C24.2269 9.22901 24.4524 9.84037 24.9685 10.0784C26.7386 10.8961 29.7185 12.0686 33.224 12.6237C35.6254 13.0039 38.27 13.0943 40.9405 12.586C41.4989 12.4814 41.8669 11.9439 41.7623 11.3856C41.6578 10.8272 41.1203 10.4593 40.5619 10.5638C38.1437 11.0242 35.7373 10.9404 33.5462 10.5935C30.2846 10.077 27.4925 8.97707 25.8305 8.20935Z" fill="white"/>
<path id="_466578504" d="M22.4773 10.0732C22.9934 9.83512 23.2188 9.22376 22.9808 8.70762C22.7427 8.19153 22.1314 7.96606 21.6152 8.2041C20.2274 8.84585 18.0386 9.72379 15.428 10.2983C12.8465 10.8664 9.8636 11.1332 6.87247 10.5639C6.3141 10.4593 5.77662 10.8272 5.67205 11.3856C5.56751 11.9439 5.93545 12.4814 6.49381 12.586C9.80452 13.2162 13.0654 12.9299 15.8711 12.3124C18.6474 11.7014 20.9894 10.7612 22.4773 10.0732Z" fill="white"/>
<path id="_466577760" fill-rule="evenodd" clip-rule="evenodd" d="M40.7555 28.3792H34.0752C34.0752 32.0686 37.0661 35.0595 40.7555 35.0595C44.445 35.0595 47.4359 32.0686 47.4359 28.3792H40.7555Z" fill="white"/>
<path id="_466578240" d="M34.908 28.0933C34.7501 28.6383 35.0639 29.2083 35.609 29.3662C36.154 29.5241 36.7239 29.2103 36.8819 28.6652L40.7562 15.2724L44.6306 28.6652C44.7886 29.2103 45.3585 29.5241 45.9035 29.3662C46.4486 29.2083 46.7624 28.6383 46.6045 28.0933L41.7681 11.3751C41.6954 11.009 41.426 10.6952 41.0428 10.5843C40.4957 10.4261 39.9239 10.7413 39.7656 11.2884L39.7692 11.2894L34.908 28.0933Z" fill="white"/>
<path id="_466578000" fill-rule="evenodd" clip-rule="evenodd" d="M6.68038 28.3792H0C0 32.0686 2.99092 35.0595 6.68038 35.0595C10.3698 35.0595 13.3608 32.0686 13.3608 28.3792H6.68038Z" fill="white"/>
<path id="_466578216" d="M0.831869 28.0933C0.673964 28.6383 0.987734 29.2083 1.53279 29.3662C2.07781 29.5241 2.64775 29.2103 2.80569 28.6652L6.68007 15.2724L10.5544 28.6652C10.7124 29.2103 11.2823 29.5241 11.8273 29.3662C12.3724 29.2083 12.6862 28.6383 12.5282 28.0933L7.69186 11.3751C7.61919 11.009 7.34983 10.6952 6.96661 10.5843C6.41955 10.4261 5.84772 10.7413 5.68944 11.2884L5.69302 11.2894L0.831838 28.0933H0.831869Z" fill="white"/>
</g>
</g>
</svg>
