<svg width="36" height="48" viewBox="0 0 36 48" fill="none" xmlns="http://www.w3.org/2000/svg">
<g id="Layer_x0020_1">
<path id="Vector" fill-rule="evenodd" clip-rule="evenodd" d="M9.5613 36.1431C4.49518 33.8023 2.57945 28.9631 2.32275 26.7157C1.02486 15.354 11.26 7.005 11.26 7.005C8.40807 18.6654 11.7236 21.7476 16.0007 26.6048C15.1168 27.0599 13.9398 27.3186 12.8356 27.5612C11.2898 27.9007 9.87103 28.2125 9.2417 29.0583C8.14238 30.5358 8.89466 33.8297 9.5613 36.1431Z" fill="white"/>
<path id="Vector_2" fill-rule="evenodd" clip-rule="evenodd" d="M11.1719 7.22643C12.7461 1.70464 19.2855 3.7571 19.2855 3.7571C19.2855 3.7571 17.9751 9.16608 11.1719 7.22643Z" fill="white"/>
<path id="Vector_3" fill-rule="evenodd" clip-rule="evenodd" d="M11.1714 7.22642C12.7457 1.70463 6.10721 0 6.10721 0C6.10721 0 4.3682 5.28677 11.1714 7.22642Z" fill="white"/>
<path id="Vector_4" fill-rule="evenodd" clip-rule="evenodd" d="M7.28762 34.7912L0 31.9176L3.25967 28.8356L7.28762 34.7912Z" fill="white"/>
<path id="Vector_5" fill-rule="evenodd" clip-rule="evenodd" d="M26.4384 11.7863C31.5045 14.1271 33.4202 18.9663 33.6769 21.2137C34.9748 32.5755 24.7397 40.9244 24.7397 40.9244C27.5916 29.264 24.2761 26.1818 19.999 21.3247C20.8829 20.8695 22.0599 20.6109 23.1641 20.3683C24.7099 20.0287 26.1287 19.7169 26.758 18.8712C27.8573 17.3936 27.105 14.0997 26.4384 11.7863Z" fill="white"/>
<path id="Vector_6" fill-rule="evenodd" clip-rule="evenodd" d="M24.8285 40.7031C23.2542 46.2249 16.7148 44.1725 16.7148 44.1725C16.7148 44.1725 18.0253 38.7635 24.8285 40.7031Z" fill="white"/>
<path id="Vector_7" fill-rule="evenodd" clip-rule="evenodd" d="M24.8294 40.7031C23.2551 46.2249 29.8936 47.9295 29.8936 47.9295C29.8936 47.9295 31.6326 42.6428 24.8294 40.7031Z" fill="white"/>
<path id="Vector_8" fill-rule="evenodd" clip-rule="evenodd" d="M28.7119 13.1382L35.9995 16.0118L32.7399 19.0938L28.7119 13.1382Z" fill="white"/>
<path id="Vector_9" fill-rule="evenodd" clip-rule="evenodd" d="M18.1294 29.1435C17.6497 28.5291 17.1713 27.9548 16.7009 27.4076C15.6614 28.0061 14.3156 28.3018 13.056 28.5786C11.7083 28.8746 10.4714 29.1464 10.0768 29.6768C9.14102 30.9345 10.1518 34.5284 10.7922 36.6373C12.3937 37.1917 14.2651 37.5072 16.4442 37.4603C18.742 37.4108 20.0706 36.9431 20.6869 36.1725C20.4831 36.0326 20.0475 35.7784 19.589 35.5109C18.9124 35.116 18.1888 34.6937 17.9625 34.4673C17.8608 34.3656 17.8608 34.2007 17.9625 34.099C18.0641 33.9973 18.2291 33.9973 18.3308 34.099C18.51 34.2782 19.2034 34.6829 19.8515 35.0611C20.2803 35.3114 20.6905 35.5507 20.9508 35.7302C21.5989 34.1957 20.1986 31.7936 18.1294 29.1435ZM13.1196 33.4248C13.4401 33.1393 13.9315 33.1677 14.217 33.4883C14.5026 33.8089 14.4741 34.3002 14.1535 34.5857C13.8329 34.8713 13.3417 34.8428 13.0561 34.5222C12.7706 34.2017 12.799 33.7103 13.1196 33.4248Z" fill="white"/>
<path id="Vector_10" fill-rule="evenodd" clip-rule="evenodd" d="M17.8708 18.7859C18.3505 19.4003 18.8289 19.9746 19.2993 20.5219C20.3388 19.9233 21.6846 19.6276 22.9442 19.3509C24.2919 19.0548 25.5288 18.783 25.9234 18.2526C26.8592 16.995 25.8484 13.401 25.208 11.2922C23.6065 10.7377 21.7351 10.4223 19.556 10.4692C17.2582 10.5186 15.9296 10.9863 15.3133 11.7569C15.5171 11.8968 15.9527 12.1511 16.4112 12.4186C17.0878 12.8134 17.8114 13.2358 18.0377 13.4621C18.1394 13.5638 18.1394 13.7288 18.0377 13.8305C17.9361 13.9321 17.7711 13.9321 17.6694 13.8305C17.4902 13.6512 16.7968 13.2466 16.1487 12.8683C15.7198 12.6181 15.3097 12.3787 15.0494 12.1992C14.4013 13.7337 15.8016 16.1358 17.8708 18.7859ZM21.7832 14.4412C21.4976 14.1206 21.5261 13.6293 21.8467 13.3438C22.1673 13.0582 22.6585 13.0866 22.9441 13.4072C23.2296 13.7278 23.2012 14.2191 22.8806 14.5047C22.5601 14.7902 22.0687 14.7618 21.7832 14.4412Z" fill="white"/>
</g>
</svg>
