<svg width="44" height="44" viewBox="0 0 44 44" fill="none" xmlns="http://www.w3.org/2000/svg">
<g id="Layer_x0020_1">
<g id="_466266896">
<path id="_466267736" d="M42.2673 34.2598C43.0093 34.4506 43.7653 34.0038 43.9561 33.2619C44.1469 32.52 43.7001 31.7639 42.9582 31.5731C39.3471 30.6551 37.8881 26.9393 36.4168 23.1924C34.9782 19.5287 33.5293 15.8396 30.1315 13.8687C28.1605 10.4709 24.4714 9.02193 20.8077 7.58334C17.0609 6.11208 13.345 4.65301 12.427 1.04196C12.2362 0.300037 11.4802 -0.146724 10.7382 0.0440284C9.99633 0.23481 9.54956 0.990918 9.74032 1.73282C11.006 6.71173 15.382 8.42999 19.7944 10.1626C23.0825 11.4537 26.3939 12.7544 27.8492 15.4725C27.9778 15.7518 28.1957 15.9804 28.4687 16.122L28.4698 16.1199C31.2275 17.5589 32.5373 20.8943 33.8375 24.2057C35.5701 28.6181 37.2885 32.9941 42.2673 34.2598Z" fill="white"/>
<path id="_466267928" d="M42.6278 33.4208C42.8786 33.3749 43.0448 33.1343 42.9989 32.8835C42.953 32.6327 42.7124 32.4665 42.4616 32.5125L11.6524 38.102C11.4016 38.1479 11.2354 38.3885 11.2813 38.6393C11.3273 38.8901 11.5679 39.0562 11.8187 39.0103L42.6278 33.4208ZM4.99005 32.1816C4.94413 32.4324 5.1103 32.673 5.36107 32.7189C5.61189 32.7649 5.85246 32.5987 5.89838 32.3479L11.488 1.53871C11.5339 1.28792 11.3678 1.04732 11.1169 1.0014C10.8662 0.955482 10.6256 1.12166 10.5796 1.37242L4.99005 32.1816Z" fill="white"/>
<path id="_466267808" fill-rule="evenodd" clip-rule="evenodd" d="M38.8434 5.15637V14.5761L29.4238 5.15637H38.8434Z" fill="white"/>
<path id="_466267784" d="M35.4385 9.8664C35.7989 9.50604 35.7989 8.92178 35.4385 8.56141C35.0781 8.20105 34.4939 8.20105 34.1335 8.56141L10.4304 32.2646C10.0701 32.6249 10.0701 33.2092 10.4304 33.5695C10.7908 33.9299 11.3751 33.9299 11.7354 33.5695L35.4385 9.8664Z" fill="white"/>
<path id="_466267376" fill-rule="evenodd" clip-rule="evenodd" d="M11.7352 32.2649V38.5564L6.29146 44V37.7085H0L5.44372 32.2649H11.7352Z" fill="white"/>
</g>
</g>
</svg>
