<svg width="49" height="44" viewBox="0 0 49 44" fill="none" xmlns="http://www.w3.org/2000/svg">
<g id="Layer_x0020_1">
<g id="_466579704">
<path id="_466267280" fill-rule="evenodd" clip-rule="evenodd" d="M22.7821 21.5165C14.3454 10.607 27.7089 -6.09215 41.6271 2.25872C41.6271 2.25872 36.2564 5.33793 30.2412 5.19472L32.7476 9.13323L25.8731 10.1358C25.8731 10.1358 20.8321 14.6336 25.5045 19.7731C24.6654 20.1946 23.7397 20.7849 22.7821 21.5165Z" fill="white"/>
<path id="_465081352" d="M15.4031 32.9385C16.7595 34.2948 20.9312 32.3222 24.7209 28.5325C28.5106 24.7428 30.4832 20.5711 29.1268 19.2147C27.7705 17.8584 23.5987 19.8309 19.809 23.6206C16.0193 27.4103 14.0467 31.5821 15.4031 32.9385Z" fill="white"/>
<path id="_466583040" d="M12.3147 17.1156C11.9929 17.0742 11.6986 17.3016 11.6572 17.6233C11.6159 17.9451 11.8432 18.2395 12.165 18.2809C12.1878 18.2838 20.113 19.2652 20.1752 23.2409C20.1797 23.5654 20.4465 23.8248 20.7709 23.8203C21.0954 23.8158 21.3548 23.5491 21.3503 23.2246C21.2719 18.2191 12.3404 17.1189 12.3147 17.1156Z" fill="white"/>
<path id="_466577424" d="M9.71217 19.982C9.39039 19.9407 9.09599 20.168 9.05466 20.4898C9.01332 20.8116 9.24065 21.106 9.56244 21.1473C9.58519 21.1503 17.5104 22.1317 17.5726 26.1074C17.5771 26.4318 17.8439 26.6913 18.1683 26.6868C18.4928 26.6822 18.7522 26.4155 18.7477 26.0911C18.6694 21.0855 9.73782 19.9853 9.71217 19.982Z" fill="white"/>
<path id="_466582296" d="M7.22975 23.7706C6.90797 23.7293 6.61357 23.9566 6.57223 24.2784C6.5309 24.6002 6.75823 24.8946 7.08002 24.9359C7.10277 24.9388 15.028 25.9202 15.0902 29.896C15.0948 30.2204 15.3615 30.4798 15.6859 30.4753C16.0104 30.4708 16.2698 30.2041 16.2653 29.8797C16.187 24.8741 7.25537 23.7739 7.22975 23.7706Z" fill="white"/>
<path id="_466580376" d="M30.0542 36.1702C30.0956 36.492 30.39 36.7193 30.7117 36.678C31.0335 36.6366 31.2609 36.3423 31.2195 36.0205C31.2162 35.9948 30.116 27.0632 25.1104 26.9849C24.786 26.9804 24.5193 27.2399 24.5147 27.5643C24.5102 27.8888 24.7697 28.1555 25.0941 28.16C29.0698 28.2222 30.0513 36.1474 30.0542 36.1702Z" fill="white"/>
<path id="_466580616" d="M27.187 38.7726C27.2283 39.0944 27.5227 39.3217 27.8445 39.2804C28.1663 39.2391 28.3936 38.9447 28.3523 38.6229C28.349 38.5972 27.2488 29.6657 22.2432 29.5873C21.9188 29.5828 21.652 29.8423 21.6475 30.1667C21.643 30.4912 21.9025 30.7579 22.2269 30.7624C26.2026 30.8246 27.1841 38.7499 27.187 38.7726Z" fill="white"/>
<path id="_466580232" d="M23.3989 41.2542C23.4402 41.576 23.7346 41.8033 24.0564 41.762C24.3782 41.7207 24.6055 41.4263 24.5642 41.1045C24.5608 41.0789 23.4607 32.1473 18.4551 32.0689C18.1307 32.0644 17.864 32.3238 17.8594 32.6483C17.8549 32.9727 18.1144 33.2395 18.4388 33.244C22.4145 33.3062 23.3959 41.2315 23.3989 41.2542Z" fill="white"/>
<path id="_466580424" fill-rule="evenodd" clip-rule="evenodd" d="M26.8067 25.5832C37.7107 34.3236 54.6532 20.8841 46.254 6.88525C46.254 6.88525 43.1748 12.2559 43.318 18.2711L39.3794 15.7648L38.3769 22.6393C38.3769 22.6393 33.7763 27.7966 28.564 22.8455C28.1394 23.6893 27.5442 24.6204 26.8067 25.5832Z" fill="white"/>
<path id="_466580256" fill-rule="evenodd" clip-rule="evenodd" d="M15.1846 30.701C15.1846 30.701 16.5027 32.206 17.2545 32.3411L17.1608 36.9753C17.1608 36.9753 15.3998 38.1333 14.4863 36.3153L15.1846 30.701Z" fill="white"/>
<path id="_466579632" fill-rule="evenodd" clip-rule="evenodd" d="M14.7653 37.7039C14.7653 37.7039 16.1649 38.61 16.9271 38.3444C16.9271 38.3444 16.1203 42.06 14.5483 42.4614C14.5483 42.4614 12.2531 41.564 13.5695 40.4959L14.7653 37.7039Z" fill="white"/>
<path id="_466579368" fill-rule="evenodd" clip-rule="evenodd" d="M12.1136 41.3837C12.1136 41.3837 9.7632 42.5278 8.14524 41.4854L7.30859 43.2798C7.30859 43.2798 10.8579 44.7324 13.2138 43.5116L12.1136 41.3837Z" fill="white"/>
<path id="_466579560" fill-rule="evenodd" clip-rule="evenodd" d="M3.81711 37.6909L7.06289 40.9368L6.33469 42.552L2.34277 39.0945L3.81711 37.6909Z" fill="white"/>
<path id="_466579896" fill-rule="evenodd" clip-rule="evenodd" d="M2.57897 37.6871C2.57897 37.6871 1.8809 38.6336 1.23428 37.3291L0.132812 33.9253C0.132812 33.9253 0.33694 33.3485 1.03049 33.2403C1.03049 33.2403 1.80276 33.0976 1.87684 33.9015C1.83014 34.9027 3.44819 37.0738 2.57897 37.6871Z" fill="white"/>
<path id="_466579848" fill-rule="evenodd" clip-rule="evenodd" d="M7.2128 27.3266C7.2128 27.3266 3.8032 26.963 2.9786 28.6285L3.35041 30.751L1.52152 30.0069C1.52152 30.0069 0.517296 31.5359 1.48458 32.626C1.48458 32.626 0.318691 33.2895 0.0171629 32.6085C0.0171629 32.6085 -0.704615 25.1839 7.2128 27.3266Z" fill="white"/>
</g>
</g>
</svg>
