<svg width="58" height="44" viewBox="0 0 58 44" fill="none" xmlns="http://www.w3.org/2000/svg">
<g id="Layer_x0020_1">
<g id="_276987448">
<path id="_276984160" fill-rule="evenodd" clip-rule="evenodd" d="M20.4628 9.54423C14.7656 7.82946 10.1779 2.48451 8.29217 0C7.87524 7.41694 13.0943 12.4903 14.8173 13.9548C16.2383 11.5891 18.3292 10.2641 20.4628 9.54423Z" fill="white"/>
<path id="_276984256" fill-rule="evenodd" clip-rule="evenodd" d="M42.5408 13.9554C44.2631 12.4916 49.4836 7.41795 49.0666 0C47.1809 2.48459 42.593 7.82972 36.8955 9.54438C39.0291 10.2643 41.12 11.5895 42.5409 13.9555L42.5408 13.9554Z" fill="white"/>
<path id="_276984040" fill-rule="evenodd" clip-rule="evenodd" d="M46.7837 21.2288L43.1293 18.6185C43.0575 18.575 42.9957 18.5169 42.9478 18.4479C42.8999 18.379 42.867 18.3007 42.8513 18.2182L42.8522 18.2177C41.7209 12.3187 37.3627 10.524 33.7942 10.077C33.7321 10.0794 33.6699 10.0813 33.6075 10.0827C33.5162 10.0847 33.4257 10.0656 33.3429 10.027C31.0416 9.80488 29.1571 10.1164 28.8367 10.1741C28.7494 10.1979 28.6578 10.2015 28.5688 10.1848L28.5692 10.1829C28.5272 10.1748 26.5178 9.78557 24.016 10.0271C23.9333 10.0656 23.8429 10.0846 23.7516 10.0827C23.6896 10.0813 23.6276 10.0794 23.5656 10.077C20.0018 10.5232 15.6501 12.3134 14.5112 18.1932C14.4994 18.2731 14.4717 18.3498 14.4295 18.4187C14.3874 18.4876 14.3318 18.5472 14.266 18.5941L14.2641 18.5934L10.6104 21.2031C10.5466 21.2563 10.4725 21.2957 10.3927 21.3187C10.3129 21.3417 10.2292 21.3479 10.1469 21.3369L10.1472 21.3348C10.0699 21.3243 1.75338 20.1757 0 25.853C2.4779 25.7908 10.2166 25.4511 12.8518 23.6146C13.1241 23.4249 13.4988 23.4917 13.6885 23.764C13.7794 23.8941 13.815 24.0548 13.7875 24.2111C13.7602 24.528 13.6259 26.379 14.1206 27.3446C14.1319 27.3624 14.1425 27.3809 14.1522 27.4001L14.1509 27.4007C14.1642 27.4272 17.0401 33.1747 20.1826 35.0184C20.6166 33.9853 21.1822 33.0743 21.8775 32.3871C22.7675 31.5075 23.8607 30.9937 25.1542 31.0439C26.274 31.0874 27.5254 31.5612 28.8982 32.6014C30.2711 31.5612 31.5225 31.0874 32.6423 31.0439C33.9357 30.9937 35.0289 31.5075 35.9189 32.3871C36.5649 33.0256 37.0989 33.8574 37.5196 34.8007C40.3823 32.8582 42.9404 27.925 43.1878 27.4394C43.2013 27.4068 43.218 27.3751 43.2376 27.3447C43.7323 26.379 43.598 24.528 43.5706 24.2111C43.5431 24.0548 43.5787 23.8941 43.6696 23.764C43.8593 23.4917 44.234 23.4249 44.506 23.615C47.1416 25.4511 54.8803 25.7908 57.3582 25.853C55.6733 20.3972 47.9279 21.245 47.2573 21.3289C47.1757 21.3463 47.0913 21.3466 47.0096 21.3296C46.9278 21.3126 46.8506 21.2787 46.7827 21.2302L46.7837 21.2288ZM39.1825 16.8096C38.3518 23.4184 31.8513 20.132 31.8513 20.132C32.8263 15.7262 39.1825 16.8096 39.1825 16.8096ZM18.1757 16.8096C18.1757 16.8096 24.5318 15.7262 25.5069 20.132C25.5069 20.132 19.0064 23.4184 18.1757 16.8096Z" fill="white"/>
<path id="_276983656" fill-rule="evenodd" clip-rule="evenodd" d="M56.2618 27.0132C53.3625 26.893 47.7959 26.4898 44.8012 25.1428C44.7965 25.8389 44.7306 26.7456 44.4746 27.4837C48.7954 30.7073 53.8163 28.4868 56.2618 27.0132Z" fill="white"/>
<path id="_276984088" fill-rule="evenodd" clip-rule="evenodd" d="M12.8834 27.4827C12.6276 26.7448 12.5618 25.8385 12.5571 25.1426C9.56249 26.4895 3.99607 26.8927 1.09668 27.013C3.5422 28.4863 8.56295 30.7062 12.8834 27.4827Z" fill="white"/>
<path id="_276984064" fill-rule="evenodd" clip-rule="evenodd" d="M32.6846 32.2411C31.7256 32.2784 30.6043 32.7471 29.3168 33.7952C29.1005 34.0057 28.7558 34.0245 28.517 33.8284L28.518 33.8264C27.2145 32.7564 26.0806 32.2787 25.112 32.2411C24.18 32.205 23.3799 32.5875 22.7181 33.2416C22.0111 33.9403 21.4538 34.9459 21.0525 36.0951C20.2631 38.3555 20.0887 41.1222 20.5612 43.2302C21.661 42.278 24.2585 40.6213 28.9181 40.7575L28.927 40.7573V40.7566L28.9371 40.7571C33.5386 40.6274 36.1249 42.2468 37.2418 43.2017C37.7063 41.0973 37.53 38.3454 36.7442 36.0951C36.3429 34.946 35.7855 33.9403 35.0785 33.2416C34.4168 32.5875 33.6165 32.205 32.6846 32.2411ZM22.6772 34.9941C22.6772 34.9941 25.3133 38.5341 27.4223 38.5341C27.4223 38.5341 20.9449 41.6221 22.6772 34.9941ZM29.9361 38.5341C32.0451 38.5341 34.6812 34.9941 34.6812 34.9941C36.4136 41.6221 29.9361 38.5341 29.9361 38.5341Z" fill="white"/>
<path id="_276987472" fill-rule="evenodd" clip-rule="evenodd" d="M36.7558 43.5721C35.6809 42.6813 33.2576 41.2337 28.9499 41.3558C28.9364 41.3572 28.9226 41.3578 28.9088 41.3574L28.9088 41.3563C24.5794 41.2281 22.1484 42.6842 21.0742 43.5763C23.3642 43.8588 26.1284 44 28.8979 44C31.6813 44 34.4593 43.8574 36.7558 43.5721Z" fill="white"/>
</g>
</g>
</svg>
