<svg width="47" height="44" viewBox="0 0 47 44" fill="none" xmlns="http://www.w3.org/2000/svg">
<g id="Layer_x0020_1">
<path id="Vector" d="M11.5475 24.2883C12.5354 24.2883 13.3362 23.7249 13.3362 23.0299C13.3362 22.3349 12.5354 21.7715 11.5475 21.7715C10.5596 21.7715 9.75879 22.3349 9.75879 23.0299C9.75879 23.7249 10.5596 24.2883 11.5475 24.2883Z" fill="white"/>
<path id="Vector_2" d="M10.0912 19.4345C10.0265 19.4631 9.96852 19.5048 9.92077 19.5569C9.87302 19.609 9.83657 19.6704 9.8137 19.7373C9.79083 19.8041 9.78204 19.875 9.78789 19.9454C9.79373 20.0159 9.81408 20.0843 9.84766 20.1465C9.88124 20.2087 9.92732 20.2632 9.983 20.3068C10.0387 20.3503 10.1028 20.3818 10.1712 20.3993C10.2397 20.4169 10.311 20.4201 10.3808 20.4087C10.4505 20.3974 10.5172 20.3717 10.5765 20.3334C10.9441 20.1187 11.3503 19.9782 11.772 19.9199C12.2887 19.861 12.8087 19.999 13.2281 20.3064C13.6686 20.621 14.0371 21.0884 14.3427 21.6457C14.8235 22.5696 15.1254 23.576 15.2326 24.6119C15.2865 25.1512 15.3045 25.6905 15.3225 26.2118C15.2874 27.0352 15.3907 27.8586 15.6281 28.6477C15.6907 28.7974 15.7756 28.9368 15.8797 29.0612C16.0955 29.3309 16.419 29.5646 16.7786 29.6904C17.0599 29.788 17.3618 29.8112 17.6547 29.7577C17.9477 29.7041 18.2218 29.5757 18.4504 29.3848C18.5583 29.2949 18.6841 29.1601 18.81 29.0252C19.0347 28.7826 19.2954 28.4859 19.3493 28.5219C19.467 28.5642 19.596 28.562 19.7122 28.5157C19.8284 28.4695 19.9236 28.3823 19.98 28.2707C20.0363 28.1591 20.0499 28.0307 20.0182 27.9097C19.9865 27.7888 19.9116 27.6836 19.8077 27.6141C19.0796 27.2365 18.5224 27.8388 18.0639 28.3331C17.9797 28.4284 17.8896 28.5185 17.7943 28.6028C17.7398 28.6471 17.6793 28.6834 17.6145 28.7106C17.4522 28.7713 17.2735 28.7713 17.1112 28.7106C16.937 28.6548 16.7815 28.5522 16.6617 28.414C16.6245 28.3677 16.5942 28.3163 16.5719 28.2612C16.3894 27.588 16.3106 26.8909 16.3382 26.1939C16.3311 25.6296 16.3011 25.0659 16.2483 24.504C16.1244 23.3324 15.7798 22.1947 15.2326 21.1513C14.8922 20.491 14.4067 19.9163 13.8124 19.4705C13.1927 19.0189 12.4259 18.8168 11.6641 18.9042C11.1101 18.9761 10.5756 19.1563 10.0912 19.4345Z" fill="white"/>
<path id="Vector_3" d="M21.5338 22.9579C22.5217 22.9579 23.3225 22.3945 23.3225 21.6996C23.3225 21.0046 22.5217 20.4412 21.5338 20.4412C20.5459 20.4412 19.7451 21.0046 19.7451 21.6996C19.7451 22.3945 20.5459 22.9579 21.5338 22.9579Z" fill="white"/>
<path id="Vector_4" d="M19.0343 30.3465C19.8252 30.1668 20.6792 30.2387 21.3713 30.3016C25.515 30.6701 21.1735 32.6386 19.8252 32.9083C17.7579 33.3127 15.0973 33.1779 16.2209 32.1532C16.9669 31.4701 18.441 30.4814 19.0343 30.3465ZM22.8094 19.5424C22.9273 19.5946 23.0605 19.6004 23.1825 19.5586C23.3045 19.5169 23.4063 19.4307 23.4676 19.3173C23.5288 19.2039 23.5451 19.0715 23.513 18.9466C23.481 18.8217 23.4031 18.7135 23.2948 18.6435C23.2948 18.6435 19.9511 16.8189 18.2253 20.1806C18.1857 20.2966 18.189 20.4229 18.2346 20.5367C18.2802 20.6505 18.365 20.7441 18.4738 20.8007C18.5825 20.8572 18.7079 20.8729 18.8273 20.8449C18.9466 20.8169 19.0519 20.747 19.1241 20.648C20.3825 18.2121 22.8094 19.5424 22.8094 19.5424Z" fill="white"/>
<path id="Vector_5" fill-rule="evenodd" clip-rule="evenodd" d="M36.688 17.0076C37.3981 8.46853 35.097 3.83946 32.0859 1.79009C30.7562 0.89032 29.1748 0.436735 27.5703 0.494903C25.9658 0.553072 24.4214 1.11998 23.1603 2.11367C23.1337 2.14409 23.1035 2.17125 23.0704 2.19457C21.3626 3.74059 22.1446 4.71134 21.102 5.74502C19.9874 4.63045 21.111 2.77882 22.0008 1.80806C20.4278 0.693492 17.5335 -0.169403 14.2707 0.028344C11.2228 0.212423 8.30768 1.34015 5.92941 3.25521C3.95194 4.83718 2.4239 7.09329 1.43517 9.78085C0.3625 12.8006 -0.116676 15.9992 0.0239763 19.2008C0.0958842 21.394 0.248688 23.9197 0.895859 26.5713C1.54303 29.2139 2.69355 32.0004 4.74293 34.7239C9.0574 40.4765 10.3877 43.1012 10.7652 44C16.7156 43.973 24.5535 43.982 26.8097 43.991C26.4142 42.3461 25.0479 37.771 21.8031 36.0092C19.9874 36.5216 17.5875 36.3688 14.4505 35.0924C14.4289 35.0848 14.4079 35.0758 14.3876 35.0654C13.6415 34.7239 4.65304 30.2117 6.45074 13.3493C6.46348 13.2407 6.5106 13.1391 6.58521 13.0592C6.65983 12.9794 6.75802 12.9255 6.86546 12.9054C6.97289 12.8853 7.08393 12.9001 7.18235 12.9476C7.28077 12.9951 7.36142 13.0729 7.41251 13.1695C9.40795 16.4503 19.9964 17.1963 21.884 13.8257C21.9446 13.7191 22.0325 13.6379 22.1479 13.5966C22.2634 13.5554 22.3898 13.5569 22.5042 13.601C22.8637 13.7268 27.9422 15.7312 27.6456 26.6522C27.7085 27.2545 28.7422 36.8542 35.7622 38.1305C37.6498 37.9867 39.4924 37.3755 41.0923 36.4227C42.6204 35.5239 43.9057 34.3284 44.7866 32.9442C45.6724 31.6154 46.1044 30.0356 46.018 28.4409C45.9232 27.2718 45.5536 26.1415 44.9394 25.1422C43.0159 21.8883 39.061 20.594 37.5599 20.1985C37.5779 21.8254 37.7936 23.1377 38.1172 24.1984C38.7284 26.1399 39.7351 27.2185 40.7238 27.8028C41.1373 28.0544 41.2991 28.5848 41.5238 29.0072C39.1149 28.6297 37.8385 26.7601 37.1464 24.504C36.6829 22.8926 36.4766 21.2181 36.5352 19.5423C36.5442 18.7603 36.5981 17.9244 36.688 17.0256V17.0076ZM20.9581 9.31345L21.3626 6.79667L22.5042 9.07975L25.0209 8.68425L23.2143 10.4819L24.3648 12.747L22.0997 11.5785L20.293 13.3762L20.7065 10.8595L18.4324 9.69096L20.9581 9.31345Z" fill="white"/>
</g>
</svg>
